<?xml version="1.0" encoding="utf-8"?>
<!-- Generator: Adobe Illustrator 16.0.4, SVG Export Plug-In . SVG Version: 6.00 Build 0)  -->
<!DOCTYPE svg PUBLIC "-//W3C//DTD SVG 1.1//EN" "http://www.w3.org/Graphics/SVG/1.1/DTD/svg11.dtd">
<svg version="1.1" xmlns="http://www.w3.org/2000/svg" xmlns:xlink="http://www.w3.org/1999/xlink" x="0px" y="0px"
	 width="299.445px" height="300.29px" viewBox="99 -0.29 299.445 300.29" enable-background="new 99 -0.29 299.445 300.29"
	 xml:space="preserve">
<g id="Calque_2">
	<circle fill="#259ED6" cx="248.723" cy="149.433" r="149.723"/>
</g>
<g id="Capa_1">
	<g>
		<path fill="#48BBEE" d="M282.479,3.537c0.969,0.214,1.936,0.438,2.898,0.67C284.414,3.975,283.447,3.75,282.479,3.537z"/>
		<path fill="#48BBEE" d="M279.114,2.834c0.54,0.106,1.079,0.21,1.616,0.322C280.193,3.044,279.653,2.94,279.114,2.834z"/>
		<path fill="#48BBEE" d="M286.578,4.5c0.658,0.166,1.316,0.336,1.971,0.509C287.894,4.836,287.236,4.666,286.578,4.5z"/>
		<path fill="#48BBEE" d="M289.518,5.272c2.373,0.647,4.723,1.349,7.047,2.109C294.24,6.621,291.891,5.918,289.518,5.272z"/>
		<path fill="#48BBEE" d="M253.473,0.044c0.347,0.008,0.692,0.019,1.038,0.029C254.165,0.063,253.819,0.052,253.473,0.044z"/>
		<path fill="#48BBEE" d="M296.916,7.494c0.814,0.268,1.627,0.542,2.435,0.825C298.543,8.037,297.731,7.762,296.916,7.494z"/>
		<path fill="#48BBEE" d="M257.056,0.17c0.346,0.016,0.691,0.031,1.036,0.049C257.747,0.201,257.401,0.186,257.056,0.17z"/>
		<path fill="#48BBEE" d="M261.465,0.433c0.167,0.012,0.332,0.029,0.499,0.042C261.797,0.462,261.632,0.445,261.465,0.433z"/>
		<path fill="#48BBEE" d="M272.634,1.699c0.395,0.06,0.786,0.127,1.181,0.19C273.42,1.826,273.029,1.759,272.634,1.699z"/>
		<path display="none" fill="#259ED6" d="M228.94,117.312c5.356,0,10.601,1.565,15.146,4.572l12.838,8.5
			c2.566,1.699,5.772,2.122,8.69,1.146l23.096-7.721l3.862-3.489c2.314-2.09,3.633-5.078,3.623-8.198
			c-0.015-2.67-1.001-5.237-2.745-7.219l-24.402,7.241c-0.843,0.25-1.755,0.04-2.404-0.554l-16.392-15.002
			c-1.088-0.999-2.3-0.611-2.642-0.466c-0.342,0.142-1.475,0.72-1.543,2.19l1.411,11.13c0.127,1.03-0.396,2.034-1.318,2.517
			c-0.918,0.483-2.045,0.349-2.822-0.342L229.73,99.55c-4.677-2.47-10.415-1.733-14.335,1.897l-4.351,10.929
			c-0.683,1.716-1.828,3.209-3.307,4.314l-6.907,5.158l23.295-4.111C225.728,117.454,227.339,117.312,228.94,117.312z"/>
		<path display="none" fill="#259ED6" d="M299.482,8.365c11.998,4.195,23.301,9.871,33.689,16.807
			c-0.012,0.001-0.023,0.001-0.035,0.002c10.465,6.984,20.004,15.248,28.389,24.571l0.011-0.021
			c4.546,5.052,8.734,10.427,12.563,16.065c0.127,0.186,0.254,0.373,0.379,0.56c1.521,2.261,2.981,4.563,4.381,6.909
			c0.209,0.352,0.416,0.703,0.623,1.056c1.064,1.817,2.104,3.649,3.094,5.514l-0.008,0.024
			c8.426,15.896,14.083,33.486,16.316,52.133c-0.354,0.043-0.717,0.05-1.068-0.057l-48.168-15.307l2.246,9.985
			c0.474,2.093,1.762,3.823,3.628,4.881c1.865,1.055,4.014,1.262,6.045,0.59l5.562-1.84c0.767-0.256,1.597-0.129,2.251,0.347
			c0.649,0.469,1.035,1.223,1.035,2.026v13.583v0.01c0,5.542-2.627,10.754-7.08,14.053l-14.304,11.503
			c-2.205,1.772-5.438,1.366-7.134-0.897L318.75,140c-2.441-3.254-5.816-5.688-9.676-6.974L300,130l37.837,49.139
			c3.399,2.828,7.778,4.328,12.397,4.008l7.1-0.485c0.767-0.034,1.519,0.251,2.036,0.827c0.513,0.576,0.732,1.355,0.596,2.115
			l-2.921,16.094c-0.097,0.524-0.355,1.006-0.746,1.371l-29.297,27.604l-21.89,55.331c-0.282,0.72-0.889,1.27-1.636,1.481
			c-2.758,0.795-5.566,1.186-8.354,1.186c-5.084,0-10.113-1.302-14.673-3.86c-7.017-3.933-12.056-10.354-14.189-18.084
			c-1.689-6.123-2.511-10.202-2.511-12.474v-20.869l-3.378-1.299c-7.783-2.992-14.663-8.003-19.903-14.487l-7.734-9.579
			l-33.232,5.932c-1.434,0.26-2.873,0.36-4.298,0.338c9.597,35.438,31.857,65.666,61.624,85.539
			C254.562,299.929,252.289,300,250,300c82.842,0,150-67.158,150-150C400,84.498,358.01,28.811,299.482,8.365z"/>
		<path fill="#48BBEE" d="M264.84,0.73c0.406,0.04,0.811,0.083,1.215,0.126C265.65,0.814,265.246,0.77,264.84,0.73z"/>
		<path fill="#48BBEE" d="M268.287,1.112c0.41,0.05,0.82,0.098,1.229,0.151C269.107,1.21,268.697,1.162,268.287,1.112z"/>
		<path display="none" fill="#48BBEE" d="M294.775,93.831l7.783-5.754c0.32-0.237,0.523-0.56,0.77-0.853l0.164-0.054
			c1.379-1.728,1.49-4.225,0.11-6.087c-1.631-2.217-4.771-2.691-6.993-1.048l-6.455,4.776h-12.24c-2.764,0-5,2.239-5,5s2.236,5,5,5
			h2.656h11.23C292.871,94.81,293.916,94.466,294.775,93.831z"/>
		<path fill="#48BBEE" d="M275.881,2.232c0.516,0.09,1.03,0.183,1.545,0.279C276.911,2.415,276.396,2.321,275.881,2.232z"/>
		<path display="none" fill="#48BBEE" d="M321.986,89.055c1.021,0,2.051-0.312,2.939-0.959c0.134-0.097,0.26-0.2,0.38-0.307
			c0.837-0.75,1.351-1.742,1.554-2.789l0.028-0.007c0.251-1.312-0.017-2.72-0.868-3.884l-12.799-17.554
			c-1.625-2.227-4.75-2.722-6.982-1.094c-2.23,1.626-2.725,4.755-1.094,6.987l12.799,17.554
			C318.92,88.342,320.444,89.055,321.986,89.055z"/>
		<path display="none" fill="#259ED6" d="M195.204,214.288c-2.452-0.038-4.863-0.473-7.143-1.28
			c-2.684-0.947-5.174-2.407-7.338-4.305c-0.129-0.112-0.257-0.224-0.384-0.34c-0.205-0.188-0.405-0.381-0.603-0.576
			c-0.178-0.176-0.353-0.354-0.525-0.537c-0.161-0.17-0.321-0.34-0.477-0.516c-0.21-0.236-0.414-0.48-0.615-0.728
			c-0.115-0.142-0.234-0.28-0.347-0.426c-0.312-0.402-0.615-0.814-0.902-1.241l0,0v-0.001l-3.637-5.417
			c-5.418-8.066-7.402-17.768-5.851-27.066c0.021-0.125,0.038-0.25,0.06-0.375c0.027-0.15,0.059-0.301,0.087-0.451
			c0.05-0.261,0.097-0.52,0.152-0.779c0.008-0.037,0.018-0.073,0.025-0.109c0.517-2.403,1.271-4.77,2.269-7.064
			c0.334-0.769,0.696-1.529,1.085-2.279c0.004-0.01,0.009-0.019,0.013-0.027l0,0l0,0l7.662-14.778l-0.113-5.154
			c-0.176-7.966,4.902-14.854,12.339-17.117l-6.792-1.889c-5.176-1.441-8.842-6.011-9.13-11.375l-0.361-6.682
			c-0.356-6.643,4.545-12.397,11.162-13.098l6.66-0.707V78.154c0-0.784,0.366-1.523,0.996-1.994l19.878-15.002
			c1.357-1.023,2.471-2.288,3.311-3.763l3.422-5.969l-22.222,4.36c-0.732,0.14-1.495-0.049-2.071-0.522
			c-0.581-0.476-0.913-1.184-0.913-1.931v-6.853c0-6.836,3.052-13.218,8.379-17.513l31.309-25.251
			c0.801-0.647,1.919-0.735,2.817-0.22l21.919,12.625c0.586,0.337,1.264,0.417,1.924,0.242c0.648-0.183,1.19-0.61,1.514-1.204
			l8.367-13.629l0,0l0.01-0.017c22.697,3.203,43.755,11.49,61.995,23.663c0.013,0,0.024-0.001,0.036-0.001
			c-10.389-6.937-21.692-12.613-33.689-16.808c-0.045-0.016-0.089-0.031-0.133-0.046c-0.808-0.282-1.619-0.556-2.434-0.824
			c-0.117-0.039-0.234-0.076-0.352-0.114c-2.324-0.759-4.676-1.461-7.049-2.109c-0.322-0.088-0.644-0.176-0.967-0.262
			c-0.656-0.174-1.312-0.344-1.971-0.509c-0.4-0.1-0.802-0.196-1.203-0.293c-0.962-0.233-1.928-0.456-2.897-0.67
			c-0.582-0.129-1.163-0.259-1.748-0.381c-0.537-0.112-1.077-0.216-1.616-0.322c-0.562-0.111-1.124-0.219-1.688-0.324
			c-0.515-0.095-1.028-0.189-1.545-0.279c-0.687-0.12-1.376-0.232-2.065-0.343c-0.395-0.063-0.786-0.13-1.181-0.19
			c-1.036-0.157-2.075-0.3-3.118-0.436c-0.408-0.053-0.818-0.101-1.229-0.151c-0.742-0.09-1.487-0.176-2.233-0.255
			c-0.404-0.043-0.81-0.086-1.215-0.126c-0.956-0.094-1.915-0.179-2.876-0.255c-0.166-0.013-0.332-0.03-0.498-0.042
			c-1.121-0.085-2.246-0.154-3.373-0.214c-0.346-0.018-0.691-0.033-1.037-0.049c-0.846-0.039-1.695-0.072-2.545-0.097
			c-0.346-0.011-0.691-0.021-1.037-0.029C252.318,0.018,251.161,0,250,0c-82.842,0-150,67.158-150,150c0,82.842,67.158,150,150,150
			c2.29,0,4.562-0.071,6.828-0.173C227.061,279.955,204.801,249.725,195.204,214.288z M170.737,54.966
			c1.45-2.356,4.526-3.096,6.88-1.644l7.993,4.908c1.816,1.116,2.724,3.262,2.266,5.344l-3.535,15.916
			c-0.518,2.331-2.588,3.916-4.878,3.916c-0.361,0-0.722-0.037-1.088-0.119c-2.696-0.598-4.395-3.269-3.799-5.965l2.764-12.436
			l-4.956-3.042C170.029,60.4,169.292,57.319,170.737,54.966z"/>
		<path fill="#00E389" d="M325.306,87.789c-0.12,0.107-0.246,0.21-0.38,0.307C325.06,87.999,325.186,87.896,325.306,87.789z"/>
		<path fill="#00E389" d="M291.802,94.81h0.003c1.068,0,2.11-0.343,2.971-0.979l7.783-5.754l-7.783,5.754
			C293.916,94.466,292.871,94.81,291.802,94.81z"/>
		<path fill="#42B34F" d="M377.57,114.608l3.182,11.898l-31.104-9.884l46.701,15.35c0.353,0.107,0.715,0.1,1.068,0.057
			c-2.233-18.646-6.424-36.279-14.85-52.176l-4.703,15.623C375.992,101.702,375.891,108.327,377.57,114.608z"/>
		<path fill="#42B34F" d="M306.484,180.275l-0.549,0.821c-3.709,5.562-9.953,8.903-16.639,8.903h-58.592
			c-6.687,0-12.932,3.342-16.641,8.906l-9.418,14.127l-5.138,0.916c-3.915,0.699-7.847,0.332-11.446-0.939
			c2.28,0.807,4.69,1.242,7.143,1.279c1.425,0.021,2.864-0.078,4.298-0.338l33.232-5.933l7.734,9.58
			c5.24,6.484,12.12,11.495,19.903,14.487l3.378,1.299v20.869c0,2.271,0.821,6.351,2.511,12.474
			c2.134,7.729,7.173,14.15,14.189,18.083c4.561,2.56,9.59,3.861,14.673,3.861c2.787,0,5.596-0.391,8.354-1.186
			c0.747-0.212,1.354-0.762,1.636-1.481l21.89-55.331l29.297-27.604c0.391-0.365,0.649-0.847,0.746-1.371l2.921-16.094
			c0.137-0.76-0.083-1.539-0.596-2.115c-0.518-0.576-1.27-0.861-2.036-0.827l-7.1,0.485c-4.619,0.32-8.998-1.18-12.397-4.008
			l-21.563-3.206C312.444,175.363,308.631,177.055,306.484,180.275z"/>
		<path fill="#00E389" d="M378.859,73.259c0.209,0.352,0.417,0.703,0.623,1.056C379.276,73.962,379.068,73.611,378.859,73.259z"/>
		<path fill="#00E389" d="M374.1,65.79c0.127,0.186,0.254,0.373,0.379,0.56C374.354,66.163,374.227,65.976,374.1,65.79z"/>
		<path fill="#42B34F" d="M271.131,1.529c0.088,0.012,0.176,0.017,0.262,0.029c8.183,1.169,16.15,3,23.851,5.433
			c0.558,0.177,1.097,0.393,1.652,0.576c3.156,1.039,6.274,2.163,9.335,3.401c1.021,0.414,2.017,0.875,3.026,1.311
			c2.559,1.103,5.091,2.253,7.573,3.491c1.145,0.571,2.27,1.174,3.396,1.773c2.303,1.224,4.574,2.499,6.805,3.837
			c1.137,0.683,2.266,1.376,3.383,2.087c0.863,0.55,1.689,1.151,2.541,1.719c-61.149,2.83-112.734,42.261-133.344,96.892
			l1.219-0.232l6.908-5.158c1.479-1.105,2.624-2.598,3.307-4.314l4.352-10.929c3.92-3.63,9.658-4.367,14.335-1.897l13.608,12.066
			c0.776,0.69,1.904,0.825,2.823,0.342c0.923-0.483,1.445-1.487,1.318-2.517l-1.411-11.13c0.068-1.47,1.201-2.048,1.543-2.19
			c0.342-0.144,1.553-0.533,2.642,0.466l16.392,15.002c0.648,0.594,1.561,0.804,2.404,0.554l24.402-7.241L280,108.894l-1.269-2.256
			c-2.189-3.895-1.43-8.782,1.84-11.828h-2.656c-2.764,0-5-2.239-5-5s2.236-5,5-5h12.241l6.455-4.776
			c2.222-1.643,5.361-1.169,6.992,1.048c1.379,1.862,1.269,4.359-0.11,6.087L310,85h6.484l1.459,2.002l-12.798-17.554
			c-1.63-2.231-1.138-5.361,1.094-6.988c2.231-1.628,5.356-1.133,6.982,1.094l12.798,17.554c0.852,1.165,1.119,2.572,0.869,3.884
			l9.938-2.739c5.225-1.44,9.641-4.938,12.238-9.694l12.461-22.812c-8.385-9.323-17.924-17.586-28.389-24.571
			c-18.24-12.173-39.298-20.459-61.994-23.663L271.131,1.529z"/>
		<path fill="#42B34F" d="M172.383,61.843l4.956,3.042l-2.764,12.437c-0.596,2.696,1.104,5.366,3.799,5.964
			c0.366,0.083,0.728,0.119,1.088,0.119c2.29,0,4.361-1.584,4.878-3.916l3.535-15.916c0.458-2.083-0.45-4.229-2.266-5.345
			l-7.993-4.907c-2.354-1.453-5.43-0.713-6.88,1.643C169.292,57.319,170.029,60.4,172.383,61.843z"/>
		<path fill="#42B34F" d="M199.611,122.08c20.609-54.631,72.194-94.062,133.342-96.892c-0.851-0.567-1.677-1.168-2.54-1.719
			c-1.118-0.712-2.245-1.405-3.384-2.087c-2.229-1.338-4.5-2.614-6.803-3.837c-1.128-0.6-2.252-1.202-3.396-1.773
			c-2.482-1.238-5.016-2.389-7.574-3.492c-1.01-0.436-2.004-0.897-3.026-1.311c-3.06-1.239-6.179-2.362-9.335-3.401
			c-0.555-0.183-1.094-0.4-1.652-0.576c-7.699-2.434-15.667-4.264-23.85-5.433c-0.087-0.012-0.176-0.017-0.262-0.029l0,0
			l-8.367,13.63c-0.323,0.593-0.865,1.021-1.514,1.204c-0.66,0.175-1.339,0.095-1.924-0.242L237.407,3.497
			c-0.898-0.515-2.017-0.428-2.817,0.22l-31.308,25.25c-5.327,4.294-8.379,10.676-8.379,17.513v6.853
			c0,0.747,0.332,1.455,0.913,1.931c0.577,0.474,1.338,0.662,2.071,0.523l22.222-4.361l-3.422,5.969
			c-0.84,1.475-1.953,2.739-3.311,3.763l-19.878,15.002c-0.63,0.471-0.997,1.211-0.997,1.994v11.816l-6.66,0.708
			c-6.616,0.701-11.519,6.455-11.162,13.098l0.361,6.682c0.288,5.364,3.955,9.934,9.13,11.375l6.792,1.889L199.611,122.08z"/>
		<path fill="#00BBBB" d="M167.395,184.264c-0.691-4.097-0.699-8.291-0.013-12.406c-1.552,9.299,0.433,18.999,5.851,27.066
			c-0.239-0.355-0.471-0.715-0.695-1.076C169.912,193.637,168.196,189.016,167.395,184.264z"/>
		<path fill="#00BBBB" d="M167.442,171.482c0.027-0.151,0.06-0.302,0.087-0.453C167.5,171.181,167.469,171.33,167.442,171.482z"/>
		<path fill="#00BBBB" d="M167.681,170.252c0.008-0.037,0.018-0.074,0.025-0.111C167.699,170.178,167.689,170.215,167.681,170.252z"
			/>
		<polygon fill="#FFEDB9" points="176.869,204.34 176.87,204.341 173.232,198.924 		"/>
		<path fill="#FFEDB9" d="M169.976,163.078c0.334-0.769,0.696-1.529,1.085-2.28C170.672,161.549,170.31,162.31,169.976,163.078z"/>
		<polygon fill="#FFEDB9" points="171.074,160.771 171.074,160.771 178.736,145.994 		"/>
		<path fill="#42B34F" d="M336.826,82.252l-9.938,2.739L326.859,85c-0.203,1.047-0.717,2.039-1.553,2.789
			c-0.12,0.108-0.246,0.21-0.38,0.307c-0.889,0.647-1.919,0.959-2.939,0.959c-1.543,0-3.065-0.713-4.043-2.053L316.484,85H310
			l-6.508,2.169l-0.162,0.054c-0.248,0.292-0.45,0.615-0.771,0.853l-7.783,5.754c-0.859,0.636-1.9,0.979-2.971,0.979h-0.002h-11.23
			c-3.27,3.046-4.029,7.933-1.84,11.828l1.268,2.256l13.453-3.991c1.742,1.982,2.729,4.548,2.744,7.219
			c0.01,3.12-1.309,6.108-3.623,8.198l-3.863,3.489l-23.095,7.721l-4.625,1.546l-4.066-2.692l-12.838-8.5
			c-4.545-3.008-9.79-4.573-15.146-4.573c-1.602,0-3.213,0.142-4.814,0.425l-23.296,4.111l-1.219,0.232l-8.649,1.643l8.688-1.651
			C193.437,138.536,190,156.361,190,175c0,13.587,1.846,26.734,5.233,39.248c-5.356-0.076-10.503-2.047-14.51-5.545
			c2.164,1.898,4.655,3.357,7.338,4.306c3.6,1.271,7.531,1.64,11.446,0.94l5.138-0.918l9.417-14.125
			c3.709-5.564,9.954-8.906,16.641-8.906h58.593c6.686,0,12.929-3.342,16.639-8.904l0.547-0.821c2.148-3.22,5.961-4.912,9.79-4.343
			l21.563,3.206L300,130l9.073,3.024c3.859,1.286,7.234,3.719,9.675,6.974l23.148,30.864c1.697,2.263,4.93,2.669,7.133,0.897
			l14.305-11.504c4.453-3.298,7.08-8.511,7.08-14.053v-0.009V132.61c0-0.803-0.385-1.557-1.035-2.026
			c-0.654-0.477-1.484-0.604-2.251-0.347l-5.562,1.841c-2.031,0.671-4.18,0.463-6.045-0.591c-1.865-1.057-3.154-2.788-3.628-4.88
			l-2.246-9.986l31.104,9.884l-3.183-11.898c-1.681-6.281-1.577-12.906,0.296-19.132l4.703-15.623l0.008-0.024
			c-0.989-1.865-2.029-3.697-3.094-5.514c-0.207-0.353-0.414-0.705-0.623-1.056c-1.399-2.346-2.859-4.649-4.381-6.91
			c-0.125-0.187-0.252-0.373-0.379-0.56c-3.829-5.639-8.018-11.013-12.563-16.065l-0.011,0.021l-12.461,22.812
			C346.467,77.314,342.051,80.813,336.826,82.252z"/>
		<path fill="#FFEDB9" d="M179.736,207.787c0.198,0.195,0.398,0.389,0.603,0.577C180.134,208.177,179.935,207.982,179.736,207.787z"
			/>
		<path fill="#FFEDB9" d="M177.772,205.582c0.112,0.146,0.231,0.284,0.347,0.426C178.003,205.865,177.884,205.728,177.772,205.582z"
			/>
		<path fill="#FFEDB9" d="M178.734,206.736c0.156,0.176,0.316,0.346,0.477,0.516C179.05,207.082,178.89,206.911,178.734,206.736z"/>
		<path fill="#FFEDB9" d="M167.395,184.264c0.801,4.752,2.518,9.373,5.143,13.584C169.912,193.637,168.196,189.016,167.395,184.264z
			"/>
		<path fill="#42B34F" d="M195.233,214.248C191.846,201.734,190,188.587,190,175c0-18.639,3.437-36.464,9.65-52.928l-8.688,1.651
			c-7.437,2.263-12.515,9.151-12.339,17.117l0.113,5.154l-7.662,14.778l0,0c-0.004,0.009-0.009,0.018-0.013,0.027
			c-0.389,0.75-0.75,1.511-1.085,2.279c-0.998,2.295-1.752,4.661-2.269,7.064c-0.008,0.036-0.018,0.072-0.025,0.109
			c-0.055,0.259-0.102,0.519-0.152,0.779c-0.028,0.15-0.061,0.3-0.087,0.451c-0.022,0.125-0.039,0.25-0.06,0.375
			c-0.686,4.115-0.678,8.311,0.013,12.407c0.801,4.751,2.518,9.372,5.143,13.584c0.225,0.361,0.457,0.72,0.695,1.075l3.638,5.417
			l0,0c0.287,0.427,0.589,0.839,0.902,1.241c0.112,0.146,0.231,0.284,0.348,0.426c0.201,0.247,0.404,0.492,0.615,0.729
			c0.156,0.175,0.316,0.346,0.477,0.516c0.172,0.182,0.347,0.36,0.525,0.536c0.199,0.196,0.398,0.39,0.603,0.577
			c0.126,0.115,0.256,0.227,0.384,0.34C184.73,212.201,189.876,214.172,195.233,214.248z"/>
	</g>
</g>
</svg>
