<?xml version="1.0" encoding="utf-8"?>
<!-- Generator: Adobe Illustrator 16.0.4, SVG Export Plug-In . SVG Version: 6.00 Build 0)  -->
<!DOCTYPE svg PUBLIC "-//W3C//DTD SVG 1.1//EN" "http://www.w3.org/Graphics/SVG/1.1/DTD/svg11.dtd">
<svg version="1.1" id="Capa_1" xmlns="http://www.w3.org/2000/svg" xmlns:xlink="http://www.w3.org/1999/xlink" x="0px" y="0px"
	 width="452.388px" height="365.104px" viewBox="0 43.643 452.388 365.104" enable-background="new 0 43.643 452.388 365.104"
	 xml:space="preserve">
<rect x="17.693" y="61.052" fill="#FFFFFF" width="420" height="266"/>
<g>
	<g id="Layer_8_14_">
		<path fill="#CCCCCC" d="M441.676,43.643H10.687C4.785,43.643,0,48.427,0,54.329v297.425c0,5.897,4.785,10.676,10.687,10.676
			h162.069v25.631c0,0.381,0.074,0.724,0.112,1.09h-23.257c-5.407,0-9.796,4.39-9.796,9.795c0,5.407,4.389,9.802,9.796,9.802
			h158.507c5.405,0,9.795-4.39,9.795-9.802c0-5.405-4.39-9.795-9.795-9.795h-23.257c0.031-0.354,0.115-0.709,0.115-1.09V362.43
			H441.7c5.897,0,10.688-4.781,10.688-10.676V54.329C452.37,48.427,447.588,43.643,441.676,43.643z M422.088,305.133
			c0,5.902-4.783,10.688-10.682,10.688H40.96c-5.898,0-10.684-4.782-10.684-10.688V79.615c0-5.898,4.786-10.684,10.684-10.684
			h370.447c5.896,0,10.682,4.785,10.682,10.684L422.088,305.133L422.088,305.133z"/>
	</g>
</g>
</svg>
