<?xml version="1.0" encoding="utf-8"?>
<!-- Generator: Adobe Illustrator 16.0.4, SVG Export Plug-In . SVG Version: 6.00 Build 0)  -->
<!DOCTYPE svg PUBLIC "-//W3C//DTD SVG 1.1//EN" "http://www.w3.org/Graphics/SVG/1.1/DTD/svg11.dtd">
<svg version="1.1" id="Calque_1" xmlns="http://www.w3.org/2000/svg" xmlns:xlink="http://www.w3.org/1999/xlink" x="0px" y="0px"
	 width="53.462px" height="39.966px" viewBox="0 0.001 53.462 39.966" enable-background="new 0 0.001 53.462 39.966"
	 xml:space="preserve">
<path d="M24.686,4.967c0,2.231-1.809,4.04-4.04,4.04H8.062c-2.23,0-4.04-1.809-4.04-4.04l0,0c0-2.231,1.81-4.04,4.04-4.04h12.583
	C22.877,0.927,24.686,2.736,24.686,4.967L24.686,4.967z"/>
<path display="none" d="M55.067,19.984c0,3.065-1.809,5.556-4.041,5.556H38.444c-2.23,0-4.04-2.488-4.04-5.556l0,0
	c0-3.069,1.81-5.557,4.04-5.557h12.582C53.259,14.427,55.067,16.915,55.067,19.984L55.067,19.984z"/>
<path d="M24.636,34.934c0,2.23-1.809,4.04-4.04,4.04H8.013c-2.23,0-4.04-1.81-4.04-4.04l0,0c0-2.23,1.81-4.04,4.04-4.04h12.583
	C22.827,30.894,24.636,32.704,24.636,34.934L24.636,34.934z"/>
<ellipse cx="14.354" cy="0.994" rx="3.146" ry="0.993"/>
<path d="M44.428,5.538c0,1.624-1.316,2.94-2.941,2.94h-9.161c-1.624,0-2.94-1.316-2.94-2.94l0,0c0-1.625,1.316-2.941,2.94-2.941
	h9.161C43.112,2.596,44.428,3.913,44.428,5.538L44.428,5.538z"/>
<ellipse cx="36.906" cy="2.645" rx="2.291" ry="0.723"/>
<path d="M44.428,34.596c0,1.625-1.316,2.941-2.941,2.941h-9.161c-1.624,0-2.94-1.316-2.94-2.941l0,0c0-1.624,1.316-2.94,2.94-2.94
	h9.161C43.112,31.656,44.428,32.972,44.428,34.596L44.428,34.596z"/>
<ellipse cx="36.906" cy="37.489" rx="2.291" ry="0.723"/>
<ellipse display="none" cx="47.6" cy="14.427" rx="3.146" ry="0.993"/>
<ellipse display="none" cx="47.6" cy="25.541" rx="3.146" ry="0.993"/>
<ellipse cx="14.304" cy="38.973" rx="3.146" ry="0.994"/>
<path fill="#F2B543" d="M46.048,13.766c3.428,0,6.211,1.082,6.211,2.419v7.53c0,1.335-2.783,2.42-6.211,2.42l0,0"/>
<path fill="#F2B543" d="M50.61,17.108L50.61,17.108c1.573,0,2.853,0.499,2.853,1.112v3.458c0,0.614-1.278,1.115-2.853,1.115l0,0"/>
<path fill="#439AD1" d="M48.676,22.934c0,6.627-4.556,12-10.176,12H10.176c-5.62,0-10.176-5.373-10.176-12v-5.967
	c0-6.627,4.556-12,10.176-12H38.5c5.62,0,10.176,5.373,10.176,12V22.934z"/>
</svg>
