<?xml version="1.0" encoding="utf-8"?>
<!-- Generator: Adobe Illustrator 16.0.4, SVG Export Plug-In . SVG Version: 6.00 Build 0)  -->
<!DOCTYPE svg PUBLIC "-//W3C//DTD SVG 1.1//EN" "http://www.w3.org/Graphics/SVG/1.1/DTD/svg11.dtd">
<svg version="1.1" id="Calque_1" xmlns="http://www.w3.org/2000/svg" xmlns:xlink="http://www.w3.org/1999/xlink" x="0px" y="0px"
	 width="273.06px" height="361.282px" viewBox="0 0 273.06 361.282" enable-background="new 0 0 273.06 361.282"
	 xml:space="preserve">
<g>
	<g>
		<path fill-rule="evenodd" clip-rule="evenodd" fill="#309C71" d="M264.935,109.275c-0.297,0.934-2.055,1.625-5.274,2.075l-6-8.5
			c2.087,3.5,2.754,7,2,10.5c-2.486,4.959-6.152,6.376-11,4.25l-11.75-8c3.216,4.25,4.966,8.5,5.25,12.75
			c-1.899,8.453-8.316,10.453-19.25,6l-10.75-8.25c2.418,3.167,3.751,6.333,4,9.5c-2.484,5.631-7.567,6.715-15.25,3.25l-10-9.75
			c2.864,3.667,4.28,7.333,4.25,11c-3.755,9.52-10.755,10.603-21,3.25l-7.5-6.25c2,3.083,3.25,6.417,3.75,10
			c-5.854,11.539-16.688,12.623-32.5,3.25c-2.452-2.869-4.169-5.735-5.15-8.6c0.552,2.281,0.186,4.564-1.1,6.85
			c-5.062,5.088-9.479,5.338-13.25,0.75c-2.077-2.143-3.345-4.451-3.8-6.925c0.107,3.002-0.543,5.81-1.95,8.425
			c-1.7,1.466-4.284,2.05-7.75,1.75c-3.435-4.411-5.102-9.411-5-15c-0.463,6.081-2.963,10.998-7.5,14.75
			c-2.196,0.395-4.196,0.569-6,0.525c-4.261-0.113-7.427-1.454-9.5-4.025c-1.921-2.922-2.646-5.847-2.175-8.775l-3.75,11.075
			c0.01-0.147,0.018-0.297,0.024-0.45c-1.333,1.6-2.649,3.083-3.95,4.45c-1.133,1.1-2.232,2.15-3.3,3.15
			c-5.233,4.7-10.5,7.933-15.8,9.7c-7.767,2.633-12.367,3.533-13.8,2.7c-1.5-0.833-2.867-1.617-4.101-2.35
			c-1.5-3.167-1.283-6.867,0.65-11.1c-2.267,4.6-7.95,6.633-17.05,6.1l-5.55-2.25c-3.101-4.2-4.233-8.867-3.4-14
			c-0.833-4.033-0.934-8.067-0.3-12.1c0.267-1.833,0.7-3.65,1.3-5.45c1.137-3.489,2.378-6.923,3.725-10.3
			c-0.924,6.917-0.365,13.625,1.676,20.125c0.444,1.415,0.961,2.824,1.55,4.225c3.392,6.236,8.976,8.403,16.75,6.5
			c5.316-4.284,8.649-9.7,10-16.25c-0.326,6.22,2.257,11.47,7.75,15.75c10.498-0.229,19.657-3.821,27.475-10.775
			c1.713-9.577,3.955-18.568,6.726-26.975c13.257-40.11,38.623-66.893,76.1-80.35c7.84,1.073,14.674,2.79,20.5,5.15
			c10.533,4.2,21.8,9.45,33.8,15.75c12.067,6.367,22.3,14.167,30.7,23.4c8.3,9.267,14.6,17.7,18.9,25.3
			c2.133,3.667,4.333,7.7,6.6,12.1l0.15,0.325C264.816,108.179,265.09,108.762,264.935,109.275z"/>
		<path fill-rule="evenodd" clip-rule="evenodd" fill="#28825F" d="M93.21,158.05l-3.15-6.45l-0.3-0.55
			c0.167,0.633,0.267,1.25,0.3,1.85c0,0.155,0,0.305,0,0.45c0,0.233,0,0.5,0,0.8c-0.199,2.667-1.217,5.317-3.05,7.95
			c-0.967,0.667-1.866,1.167-2.7,1.5c-0.033,0-0.05,0.017-0.05,0.05c-0.641,0.244-1.258,0.394-1.85,0.45
			c-1.594,0.158-3.011-0.359-4.25-1.55c-7.745-2.067-11.47-7.868-11.175-17.4l3.75-11.075c-0.471,2.928,0.254,5.853,2.175,8.775
			c2.073,2.571,5.239,3.912,9.5,4.025c1.804,0.044,3.804-0.13,6-0.525c4.537-3.752,7.037-8.669,7.5-14.75
			c-0.102,5.589,1.565,10.589,5,15c3.466,0.3,6.05-0.284,7.75-1.75c1.407-2.615,2.058-5.423,1.95-8.425
			c0.455,2.474,1.723,4.782,3.8,6.925c3.771,4.588,8.188,4.338,13.25-0.75c1.285-2.286,1.651-4.569,1.1-6.85
			c0.981,2.865,2.698,5.731,5.15,8.6c15.812,9.373,26.646,8.289,32.5-3.25c-0.5-3.583-1.75-6.917-3.75-10l7.5,6.25
			c10.245,7.353,17.245,6.27,21-3.25c0.03-3.667-1.386-7.333-4.25-11l10,9.75c7.683,3.465,12.766,2.381,15.25-3.25
			c-0.249-3.167-1.582-6.333-4-9.5l10.75,8.25c10.934,4.453,17.351,2.453,19.25-6c-0.284-4.25-2.034-8.5-5.25-12.75l11.75,8
			c4.848,2.126,8.514,0.709,11-4.25c0.754-3.5,0.087-7-2-10.5l6,8.5c3.22-0.45,4.978-1.141,5.274-2.075l8.125,17.325l-0.3,1.85
			c-1.899,5.167-5.8,7.917-11.7,8.25c-2.866-0.567-5.85-0.95-8.949-1.15l1.85,5.8c-3.434,3.3-7.517,4.617-12.25,3.95
			c-1.667-0.2-3.333-0.45-5-0.75c-2.967-0.567-5.85-1.6-8.65-3.1c-3.066-1.567-5.967-3.483-8.699-5.75c2.6,2.467,4.699,5.3,6.3,8.5
			c0.933,1.733,1.783,3.566,2.55,5.5c-0.767,2.967-2.533,5.133-5.3,6.5c-2.333,1.3-4.783,1.633-7.351,1
			c-4.666-0.733-8.933-2.817-12.8-6.25c-2.6-2.4-5.217-4.75-7.85-7.05l3.95,11c-0.834,1.633-2.051,2.934-3.65,3.9
			c-0.434,0.3-0.883,0.566-1.35,0.8c-1,0.2-2.018,0.5-3.051,0.9c-1.633-0.5-3.232-0.917-4.8-1.25c-1.1-0.5-2.183-0.95-3.25-1.35
			l-10.7-6.5l5.7,11.15c0.775,1.266,0.667,3.033-0.325,5.3c-0.273,0.628-0.614,1.295-1.024,2c-0.014,0.033-0.03,0.066-0.05,0.1
			c-1.934,3.333-5.684,3.867-11.25,1.6c-0.7-0.2-1.417-0.417-2.15-0.65h-0.05c-0.834-0.339-1.659-0.689-2.476-1.05
			c-1.441-0.633-2.866-1.299-4.274-2c-1.728-0.865-3.428-1.782-5.101-2.75c-0.1-0.067-0.217-0.133-0.35-0.2
			c-7.867-4.433-15.167-10.1-21.9-17l1.101,10.4c-1.8,2.367-4.567,2.517-8.3,0.45l-0.95-0.95c-0.033-0.034-0.067-0.05-0.101-0.05
			c-4.229-2.89-7.236-5.782-9.024-8.675c-0.168-0.273-0.326-0.548-0.476-0.825c0.201,1.432,0.301,2.899,0.301,4.4
			c0.004,0.251,0.004,0.501,0,0.75c0,0.067,0,0.15,0,0.25c0,0.467,0,0.934,0,1.4c-0.101,1.667-0.334,3.4-0.7,5.2
			c-0.067,0.4-0.15,0.817-0.25,1.25c-0.134,0.2-0.25,0.35-0.351,0.45c-0.066,0.033-0.149,0.117-0.25,0.25
			c-3.666,4.4-8.083,5.283-13.25,2.65L93.21,158.05z"/>
		<path fill-rule="evenodd" clip-rule="evenodd" fill="#3DB182" d="M148.786,24.95c-28.217,1.454-55.259,12.587-81.125,33.4
			c-16.026,13.076-30.535,28.91-43.525,47.5c-5.998,8.587-11.674,17.762-17.024,27.525c-2.041-6.5-2.6-13.208-1.676-20.125
			c0.997-2.499,2.056-4.965,3.176-7.4C11.579,99.337,14.961,93.053,18.76,87c6.667-10.767,14.267-20.617,22.8-29.55
			c8.934-9.434,19.134-16.75,30.601-21.95c0.467-0.2,0.933-0.417,1.399-0.65c4.634-2.133,9.117-4,13.45-5.6l0.45-0.3l0.7-0.2
			c0.967-0.333,2.783-0.95,5.45-1.85c-0.018-0.033-0.033-0.066-0.051-0.1c-1.115-1.707-2.049-3.44-2.8-5.2
			c-2.671-6.281-3.005-12.897-1-19.85c7.531,5.793,12.456,12.41,14.775,19.85c0.074,0.266,0.149,0.532,0.225,0.8
			c0.034-0.267,0.067-0.533,0.101-0.8c1.103-7.249,4.536-14.449,10.3-21.6c2.62,7.58,3.153,14.779,1.6,21.6
			c-0.106,0.468-0.224,0.935-0.35,1.4c0.293-0.478,0.601-0.945,0.925-1.4c2.231-3.068,5.307-5.618,9.225-7.65
			c0.576,3.232,0.543,5.782-0.1,7.65c-0.215,0.627-0.498,1.177-0.85,1.65l6.899,0.9C138.314,24.173,143.74,24.439,148.786,24.95z"/>
		<path fill-rule="evenodd" clip-rule="evenodd" fill="#35AA7B" d="M7.111,133.375c5.351-9.763,11.026-18.938,17.024-27.525
			c12.99-18.59,27.499-34.424,43.525-47.5c25.866-20.812,52.908-31.946,81.125-33.4c1.596,0.157,3.154,0.341,4.675,0.55
			c-37.477,13.457-62.843,40.24-76.1,80.35c-2.771,8.407-5.013,17.398-6.726,26.975c-7.817,6.954-16.977,10.545-27.475,10.775
			c-5.493-4.28-8.076-9.53-7.75-15.75c-1.351,6.55-4.684,11.966-10,16.25c-7.774,1.903-13.358-0.264-16.75-6.5
			C8.072,136.199,7.555,134.79,7.111,133.375z"/>
		<path fill-rule="evenodd" clip-rule="evenodd" fill="#29423B" d="M63.06,149.15c-0.066,2.6,0.2,5.217,0.801,7.85l-3.4,1.65
			c-0.467-2.133-0.7-4.25-0.7-6.35C60.828,151.3,61.927,150.25,63.06,149.15z M128.21,361.25l-0.25-91.4l0.25,0.55V217.5
			c1.467-4.634,4.85-7.851,10.15-9.65c6.633-1.3,13.232-5.4,19.8-12.3c2.5-5.567,2.733-10.567,0.7-15l-6.551-1.8
			c0.287-2.887,0.203-5.853-0.25-8.9c-0.101-0.663-0.217-1.33-0.35-2c-0.187-0.91-0.402-1.826-0.65-2.75
			c1.673,0.968,3.373,1.885,5.101,2.75c1.408,0.701,2.833,1.367,4.274,2c0.816,0.361,1.642,0.711,2.476,1.05l-0.601,23.05
			c-0.666,4.601-3.683,8.484-9.05,11.65l-9.7,6.3c-2.877,1.714-4.826,4.114-5.85,7.2l1.025,57.25l0.05-5.5l1.075,58
			c0.1,3.8,0.217,6.733,0.35,8.8l1.65,16.601C139.96,357.883,135.411,360.216,128.21,361.25z M120.56,157.75
			c-0.457,3.271-0.707,6.637-0.75,10.1c0.001,0.067,0.001,0.133,0,0.2l-9.899,0.75l-0.101-6.6c0.101-0.133,0.184-0.217,0.25-0.25
			c0.101-0.1,0.217-0.25,0.351-0.45c0.1-0.433,0.183-0.85,0.25-1.25c0.366-1.8,0.6-3.533,0.7-5.2c0-0.467,0-0.934,0-1.4
			c0-0.1,0-0.183,0-0.25c0.004-0.249,0.004-0.499,0-0.75c0-1.501-0.1-2.968-0.301-4.4c0.149,0.277,0.308,0.552,0.476,0.825
			C113.324,151.968,116.332,154.86,120.56,157.75z M90.06,151.6l3.15,6.45c0.028,2.127,0.236,5.394,0.625,9.8
			c0.053,0.643,0.111,1.309,0.175,2c0.013,0.214,0.03,0.431,0.05,0.65l-10.149-2.65l0.35-4.2c0-0.033,0.017-0.05,0.05-0.05
			c0.834-0.333,1.733-0.833,2.7-1.5c1.833-2.633,2.851-5.283,3.05-7.95c0-0.3,0-0.566,0-0.8c0-0.145,0-0.295,0-0.45
			c0-0.129,0-0.263,0-0.4C90.06,152.2,90.06,151.9,90.06,151.6z"/>
		<path fill-rule="evenodd" clip-rule="evenodd" fill="#395B51" d="M94.06,170.5c0.134,1.833,0.334,3.833,0.601,6
			c0.667,4.333,3.55,8.417,8.649,12.25c2.768,1.967,5.018,1.35,6.75-1.851l-0.149-18.1l9.899-0.75
			c-0.021,0.598-0.037,1.197-0.05,1.8c-0.075,5.143,0.274,10.46,1.05,15.95c2.567,6.167,6.15,10.316,10.75,12.45
			c2.967,1.066,6.117,1.066,9.45,0c5.867-1.601,9.233-4.417,10.101-8.45c0.866-4.034,1.267-7.717,1.199-11.05l6.551,1.8
			c2.033,4.433,1.8,9.433-0.7,15c-6.567,6.899-13.167,11-19.8,12.3c-5.301,1.8-8.684,5.017-10.15,9.65V270.4l-0.25-0.55l0.25,91.4
			c-6.434,0.267-12.35-1.167-17.75-4.301l1.7-86.6l0.024,0.025l1.275-47.926c0.833-4.533,0.65-8.732-0.55-12.6
			c-1.134-1.834-2.45-3.283-3.95-4.35l-19.85-17.2c-2.434-2.7-3.733-5.417-3.9-8.15c-0.96-0.17-1.894-0.362-2.8-0.575
			c-6.361-1.458-11.395-3.849-15.101-7.175c-0.66-0.857-1.277-1.707-1.85-2.55c-0.453-0.671-0.878-1.337-1.275-2
			c-1.895-3.167-3.136-6.233-3.725-9.2l3.4-1.65c0.866,3.833,2.467,7.217,4.8,10.15c0.366,0.246,0.733,0.479,1.1,0.7
			c1.383,0.848,2.732,1.515,4.05,2c3.07,1.14,5.937,1.281,8.601,0.425c0.379-0.121,0.754-0.263,1.125-0.425
			c0.172-0.079,0.347-0.162,0.524-0.25l-0.149-1.75L94.06,170.5z"/>
	</g>
</g>
</svg>
