<?xml version="1.0" encoding="utf-8"?>
<!-- Generator: Adobe Illustrator 16.0.4, SVG Export Plug-In . SVG Version: 6.00 Build 0)  -->
<!DOCTYPE svg PUBLIC "-//W3C//DTD SVG 1.1//EN" "http://www.w3.org/Graphics/SVG/1.1/DTD/svg11.dtd">
<svg version="1.1" id="Calque_1" xmlns="http://www.w3.org/2000/svg" xmlns:xlink="http://www.w3.org/1999/xlink" x="0px" y="0px"
	 width="134.217px" height="133.125px" viewBox="0 0 134.217 133.125" enable-background="new 0 0 134.217 133.125"
	 xml:space="preserve">
<circle fill="#D5EDFC" stroke="#FFFFFF" stroke-width="19" stroke-miterlimit="10" cx="67.174" cy="66.387" r="56.887"/>
<path fill="#B93719" d="M43.831,3.528l10.426,17.258c0,0,14.166-1.715,19.946-0.467l9.269-17.776
	C83.472,2.543,68.704-3.377,43.831,3.528z"/>
<path fill="#B93719" d="M6.396,93.292l15.96-12.322c0,0-3.316-13.878-2.733-19.763L0.905,54.022
	C0.905,54.022-3.294,69.368,6.396,93.292z"/>
<path fill="#B93719" d="M89.23,130.333l-9.993-17.513c0,0-14.204,1.363-19.951-0.029l-9.708,17.541
	C49.578,130.333,64.194,136.617,89.23,130.333z"/>
<path fill="#B93719" d="M131.319,45.932L113.856,56.01c0,0,1.431,14.197,0.067,19.951l17.588,9.623
	C131.512,85.584,137.724,70.936,131.319,45.932z"/>
</svg>
