<?xml version="1.0" encoding="utf-8"?>
<!-- Generator: Adobe Illustrator 16.0.4, SVG Export Plug-In . SVG Version: 6.00 Build 0)  -->
<!DOCTYPE svg PUBLIC "-//W3C//DTD SVG 1.1//EN" "http://www.w3.org/Graphics/SVG/1.1/DTD/svg11.dtd">
<svg version="1.1" id="Calque_1" xmlns="http://www.w3.org/2000/svg" xmlns:xlink="http://www.w3.org/1999/xlink" x="0px" y="0px"
	 width="193.757px" height="220.5px" viewBox="0 0 193.757 220.5" enable-background="new 0 0 193.757 220.5" xml:space="preserve">
<symbol  id="flash0.ai_x5F_16_x2F_Mode_Isolation_x2F__x3C_Path_x3E_" viewBox="-0.007 -170.83 160.665 170.86">
	
		<radialGradient id="SVGID_1_" cx="9610.1123" cy="2450.8057" r="89.5653" gradientTransform="matrix(0.5634 0.8262 0.6974 -0.4756 -7043.1357 -6859.7939)" gradientUnits="userSpaceOnUse">
		<stop  offset="0.3255" style="stop-color:#FFFFFF"/>
		<stop  offset="0.4353" style="stop-color:#A69D9A"/>
		<stop  offset="0.549" style="stop-color:#655954"/>
		<stop  offset="0.6549" style="stop-color:#382F2A"/>
		<stop  offset="0.7569" style="stop-color:#1B1510"/>
		<stop  offset="0.851" style="stop-color:#070706"/>
		<stop  offset="0.9373" style="stop-color:#020303"/>
		<stop  offset="1" style="stop-color:#010202"/>
	</radialGradient>
	<path fill-rule="evenodd" clip-rule="evenodd" fill="url(#SVGID_1_)" d="M130.8-11.4c8.467-5.767,15.25-13.233,20.35-22.4
		c4.934-8.833,7.95-18.633,9.05-29.4c1.1-10.767,0.216-21.65-2.65-32.65c-2.966-11.4-7.883-22.117-14.75-32.15
		s-15.05-18.517-24.55-25.45c-9.2-6.733-19.017-11.533-29.45-14.4c-10.433-2.9-20.65-3.683-30.65-2.35c-10.4,1.4-19.833,5-28.3,10.8
		C21.383-153.633,14.6-146.167,9.5-137c-4.933,8.833-7.95,18.633-9.05,29.4c-1.1,10.767-0.217,21.65,2.65,32.65
		c3,11.4,7.917,22.117,14.75,32.15c6.833,10.033,15.017,18.517,24.55,25.45c9.2,6.7,19.017,11.5,29.45,14.4
		c10.4,2.9,20.617,3.684,30.65,2.35C112.9-2.033,122.333-5.633,130.8-11.4z"/>
</symbol>
<symbol  id="flash0.ai_x5F_16_x2F_Mode_Isolation_x2F__x3C_Path_x3E__x5F_17" viewBox="-0.007 -106.763 91.233 106.781">
	
		<radialGradient id="SVGID_2_" cx="234.6064" cy="153.0723" r="87.4265" gradientTransform="matrix(0.9997 0.0256 0.0256 -0.9997 -205.9551 118.0703)" gradientUnits="userSpaceOnUse">
		<stop  offset="0" style="stop-color:#FFFFFF"/>
		<stop  offset="0.0039" style="stop-color:#FEFEFE"/>
		<stop  offset="0.1255" style="stop-color:#A9A19E"/>
		<stop  offset="0.2471" style="stop-color:#6E625E"/>
		<stop  offset="0.3725" style="stop-color:#423833"/>
		<stop  offset="0.498" style="stop-color:#251E18"/>
		<stop  offset="0.6196" style="stop-color:#110F0A"/>
		<stop  offset="0.7451" style="stop-color:#040405"/>
		<stop  offset="0.8706" style="stop-color:#020303"/>
		<stop  offset="1" style="stop-color:#010202"/>
	</radialGradient>
	<path fill-rule="evenodd" clip-rule="evenodd" fill="url(#SVGID_2_)" d="M83.8-32.3c4.233-1.867,6.65-3.6,7.25-5.2
		c0.733-1.933-0.816-4.167-4.65-6.7c-8.767-5.767-15.683-12.65-20.75-20.65c-3.167-5.033-6.15-11.733-8.95-20.1
		c-2.667-7.966-4.817-13.1-6.45-15.4c-2.933-4.1-7.317-6.233-13.15-6.4c-12.267-0.3-21.75,4.783-28.45,15.25
		C2.717-82.233-0.167-70.467,0-56.2C0.1-47,1.583-38.233,4.45-29.9c2.533,7.367,5.883,13.733,10.05,19.1
		c3.867,4.966,7.733,8.25,11.6,9.85c3.9,1.633,6.9,1.2,9-1.3c3.066-3.667,5.883-6.65,8.45-8.95c2.9-2.6,6.317-5.15,10.25-7.65
		c4.1-2.6,9.4-5.217,15.9-7.85C73.233-28.133,77.933-30,83.8-32.3z"/>
</symbol>
<g>
	<g>
		<path fill-rule="evenodd" clip-rule="evenodd" fill="#52352F" d="M37.6,55.176c0.033,6.267,1.3,12.083,3.8,17.45l-4.1,0.55
			c-9.233-2.699-15.633-8.75-19.2-18.149l1.8,0.05c3,9.2,9.067,14.833,18.2,16.9c-1.767-4.734-2.633-9.75-2.6-15.05
			c-0.066-0.6-0.066-1.2,0-1.8L37.6,55.176z M73.05,55.476l1.6-0.05c0.2,1.5,0.317,3.017,0.35,4.55c0,7.6-2.867,14.05-8.6,19.35
			c-4.267,4.066-9.216,6.583-14.85,7.55c1.667,1.767,3.566,3.45,5.7,5.05c5.467,4.267,11.483,7.65,18.05,10.15
			c0.167,0.066,0.367,0.167,0.6,0.3c7.967,2.9,16.684,4.483,26.15,4.75v-26.6c-13.434-5.134-20.95-13.467-22.55-25l1-0.05
			c1,10.867,8.167,18.534,21.5,23l-0.051-22.851l9.75,0.15l-0.05,63.6c1.134,0.033,2.267,0.05,3.4,0.05
			c8.033,0,15.3-1.316,21.8-3.949l-0.25-18.801h0.9l0.449,18.15c2.734-1.033,5.417-2.483,8.051-4.35
			c5.833-4.034,9.649-8.617,11.449-13.75h1.95c-1.566,5.767-5.55,10.85-11.95,15.25c-8.533,5.966-18.85,8.933-30.949,8.899
			c-1.7,0.033-3.334-0.017-4.9-0.149l2.35,97.149c-5.066,3.5-9.533,3.5-13.399,0l1.399-107.75c-0.6,0.066-2.266-0.033-5-0.3
			c-4.233-0.467-8.434-1.283-12.6-2.45l-6.25-1.85c-8.467-2.601-16.15-6.566-23.05-11.9c-2.633-2-4.95-4.083-6.95-6.25
			c-0.367-0.366-0.717-0.717-1.05-1.05c-1.833-2.066-3.434-4.184-4.8-6.35h3.35c1.433,2.033,3.05,3.983,4.85,5.85
			c5.167-1.066,9.767-3.45,13.8-7.15c0.133-0.066,0.233-0.149,0.3-0.25c0.066,0,0.117-0.033,0.15-0.1h-0.1l1.2-19.75l0.8,17.75
			c4.4-4.9,6.583-10.7,6.55-17.4C73.217,57.726,73.184,56.576,73.05,55.476z M135.5,55.826c1.166,4.3,2.516,7.917,4.05,10.85
			c4.466-2.467,6.417-6.05,5.85-10.75l1.2-0.05c0.8,4.934-1.4,8.817-6.6,11.65c0,0.066,0.05,0.117,0.149,0.15
			c1.7,3.3,3.616,5.6,5.75,6.9c-0.366,0.1-0.716,0.233-1.05,0.4v0.05c-4.467-2.4-8.166-8.784-11.1-19.15L135.5,55.826z
			 M178.75,55.576l1.199,0.4c0,12.233-3.266,20.234-9.8,24c-0.399-0.267-0.733-0.467-1-0.601
			C175.45,76.909,178.65,68.976,178.75,55.576z M157.3,73.625l-0.05-17.65l2.449,0.1v17.9c-0.166-0.034-0.333-0.101-0.5-0.2
			C158.6,73.709,157.967,73.659,157.3,73.625z"/>
		<path fill-rule="evenodd" clip-rule="evenodd" fill="#61712A" d="M18.1,55.026L0,54.976l1.25-1.35
			c6.667-1.033,13.133-2.033,19.4-3l170.2-7.5c2.033,3.3,3,7.684,2.9,13.15l-13.801-0.3l-1.199-0.4l-19.051,0.5l-2.449-0.1
			l-10.65-0.1l-1.2,0.05l-9.899-0.1l-1.75,0.05l-22.051-0.1l-9.75-0.15l-21.45-0.15l-1,0.05l-4.85-0.1l-1.6,0.05l-7.45-0.1l0.45-0.2
			H37.6l-2.1-0.05l-15.6-0.05L18.1,55.026z M37.3,73.175l4.1-0.55l2-0.3c3.6,1.066,5.517,2.017,5.75,2.85
			c1.067-0.1,2.317,0.101,3.75,0.601c2.534,1.133,3.633,2.533,3.3,4.2H45.6h-3.35l-15.15-0.2l-0.25-1.75l6.2-1.2l0.9-3.25
			L37.3,73.175z M157.45,96.726L137.5,96.675h-0.9l-16.9,0.051l-0.05-0.101c-0.8-2.8-0.517-5.55,0.851-8.25
			c16.066,3.2,34.05,3.184,53.949-0.05c0.134,1.233,0.066,2.634-0.199,4.2l5.649,0.45l3.95,3.699l-24.45,0.051H157.45z"/>
		<path fill-rule="evenodd" clip-rule="evenodd" fill="#9BAD43" d="M156,21.826c-12.667,10.1-57.783,19.7-135.351,28.8
			c-6.267,0.967-12.733,1.967-19.4,3l1.7-1.7c3.133-3.867,6.6-4.35,10.4-1.45c0.833-2.867,2.033-5.733,3.6-8.6
			c3.867-6.3,10.7-11.983,20.5-17.05c9.967-4.1,18.167-4.1,24.6,0l8.45-6.45c6.7-3.667,12.95-4.35,18.75-2.05
			c5.133-4.7,12.35-8.967,21.65-12.8c8.2-3.3,17.2-4.284,27-2.95c8.267,3.233,12.417,9.317,12.45,18.25
			c1.566-1.033,3.166-0.867,4.8,0.5L156,21.826z"/>
		<path fill-rule="evenodd" clip-rule="evenodd" fill="#818E39" d="M156,21.826l1.25,4.35c1.266-1.5,3.399-2.133,6.399-1.9
			c2.5,0.333,4.134,2.1,4.9,5.3l3.95-0.9c3,3.367,4.883,5.717,5.649,7.05c5.934,0.833,10.167,3.3,12.7,7.4l-170.2,7.5
			C98.217,41.526,143.333,31.926,156,21.826z M144.85,75.026v-0.05c0.334-0.167,0.684-0.301,1.05-0.4c1.934-0.6,4.167-0.967,6.7-1.1
			h0.1c1.434-0.067,2.967-0.017,4.601,0.149c0.667,0.033,1.3,0.084,1.899,0.15c0.167,0.1,0.334,0.166,0.5,0.2
			c2.301,0.899,5.25,2.55,8.851,4.949h0.1c0.134,0.101,0.3,0.25,0.5,0.45c0.267,0.134,0.601,0.334,1,0.601
			c2.733,1.767,4.167,4.55,4.3,8.35c-19.899,3.233-37.883,3.25-53.949,0.05c0.766-1.767,2-3.483,3.699-5.149
			c5.234-3.601,9.834-4.634,13.801-3.101c1.366-1.934,3.184-3.434,5.449-4.5C143.85,75.392,144.317,75.192,144.85,75.026z"/>
	</g>
</g>
<g>
	
		<use xlink:href="#flash0.ai_x5F_16_x2F_Mode_Isolation_x2F__x3C_Path_x3E_"  width="160.665" height="170.86" x="-0.007" y="-170.83" transform="matrix(-0.1942 -0.0186 0.0186 -0.1942 134.1499 140.6255)" overflow="visible" enable-background="new    "/>
	<g>
		<g>
			<g>
				<path fill-rule="evenodd" clip-rule="evenodd" fill="#030304" d="M107.961,151.853c-0.108-0.22-0.295-0.466-0.559-0.739
					c-0.535-0.541-1.199-0.932-1.996-1.171c-0.413-0.124-1.021-0.404-1.824-0.841c-0.503-0.271-0.741-0.306-0.715-0.107
					c0.042,0.37,0.227,0.697,0.554,0.983c0.327,0.28,0.709,0.44,1.144,0.482c1.1,0.099,1.996,0.36,2.69,0.786L107.961,151.853z"/>
				<path fill-rule="evenodd" clip-rule="evenodd" fill="#030304" d="M109.444,158.697l0.902-0.236l-0.922,0.039
					c-0.748,0.131-1.45,0.459-2.106,0.984c-0.335,0.269-0.913,0.611-1.732,1.029c-0.502,0.259-0.667,0.437-0.495,0.531
					c0.324,0.181,0.694,0.216,1.111,0.105c0.416-0.11,0.767-0.334,1.051-0.673C107.965,159.624,108.696,159.031,109.444,158.697z"/>
				<path fill-rule="evenodd" clip-rule="evenodd" fill="#030304" d="M113.141,162.696l-0.24,0.898
					c-0.104,0.755-0.008,1.528,0.291,2.32c0.148,0.406,0.297,1.067,0.448,1.983c0.095,0.564,0.212,0.778,0.354,0.642
					c0.264-0.263,0.406-0.611,0.429-1.047s-0.081-0.841-0.31-1.215c-0.592-0.945-0.931-1.823-1.014-2.635L113.141,162.696z"/>
			</g>
		</g>
		
			<radialGradient id="SVGID_3_" cx="-2605.5361" cy="-86.3525" r="72.3167" gradientTransform="matrix(-0.1911 -0.0233 0.0235 -0.1937 -381.664 74.8498)" gradientUnits="userSpaceOnUse">
			<stop  offset="0" style="stop-color:#EF7D5C"/>
			<stop  offset="0.6275" style="stop-color:#E3131B"/>
			<stop  offset="1" style="stop-color:#CD1D1E"/>
		</radialGradient>
		<path fill-rule="evenodd" clip-rule="evenodd" fill="url(#SVGID_3_)" d="M129.995,158.988c0.991-3.766,0.607-7.565-1.154-11.398
			c-1.754-3.833-4.37-6.575-7.848-8.228c-1.646-0.784-3.314-1.202-5.006-1.253c-1.748-0.057-3.398,0.282-4.951,1.016
			s-2.873,1.8-3.961,3.197c-1.045,1.345-1.803,2.908-2.277,4.691c-0.985,3.767-0.602,7.566,1.153,11.399
			c1.755,3.832,4.374,6.575,7.858,8.228c1.64,0.784,3.309,1.202,5.005,1.253c1.749,0.057,3.399-0.282,4.952-1.016
			s2.87-1.8,3.951-3.198C128.768,162.33,129.528,160.765,129.995,158.988z"/>
		<path fill-rule="evenodd" clip-rule="evenodd" fill="#91271A" d="M119.742,146.474c2.315-1.562,3.678-2.932,4.087-4.107
			c0.131-0.366,0.159-0.689,0.083-0.972l-0.153-0.318l-0.034,0.359c-0.069,0.313-0.237,0.656-0.505,1.029
			c-0.841,1.174-2.472,2.39-4.894,3.647c-4.349,2.256-7.938,3.226-10.771,2.909c-1.422-0.163-2.407-0.551-2.954-1.165
			c0.253,0.658,0.974,1.142,2.163,1.451c2.377,0.626,5.9,0.085,10.57-1.624c0.252-0.081,0.533-0.057,0.844,0.07
			c0.316,0.135,0.555,0.331,0.717,0.588c1.607,2.819,2.959,6.613,4.057,11.383c0.551,2.385,0.94,4.486,1.166,6.304
			c-0.036-1.708-0.248-3.743-0.635-6.106c-0.778-4.731-2.057-8.747-3.837-12.047c-0.114-0.214-0.18-0.448-0.194-0.704
			C119.432,146.836,119.53,146.604,119.742,146.474z"/>
		<path fill-rule="evenodd" clip-rule="evenodd" fill="#1E1E1C" d="M110.284,153.555c-0.613,0.483-0.968,1.115-1.062,1.897
			c-0.101,0.78,0.091,1.481,0.572,2.103s1.108,0.978,1.88,1.071s1.461-0.105,2.068-0.596c0.613-0.483,0.968-1.116,1.062-1.897
			c0.095-0.781-0.097-1.482-0.572-2.103c-0.476-0.621-1.099-0.978-1.87-1.07C111.59,152.867,110.898,153.065,110.284,153.555z"/>
		<path fill-rule="evenodd" clip-rule="evenodd" fill="#1E1E1C" d="M118.162,161.167c-0.292-0.381-0.675-0.6-1.146-0.658
			c-0.473-0.052-0.896,0.071-1.273,0.368c-0.383,0.297-0.6,0.684-0.652,1.162c-0.059,0.479,0.059,0.907,0.351,1.288
			c0.299,0.382,0.684,0.602,1.155,0.659c0.472,0.059,0.896-0.064,1.273-0.368c0.376-0.297,0.594-0.685,0.652-1.162
			C118.575,161.978,118.454,161.548,118.162,161.167z"/>
		<path fill-rule="evenodd" clip-rule="evenodd" fill="#1E1E1C" d="M128.006,148.529c-0.208-0.654-0.566-1.148-1.076-1.485
			c-0.509-0.343-1.017-0.427-1.523-0.253c-0.513,0.173-0.874,0.547-1.084,1.121c-0.21,0.581-0.207,1.195,0.008,1.843
			c0.209,0.647,0.567,1.142,1.076,1.484c0.503,0.336,1.008,0.42,1.514,0.253c0.506-0.174,0.867-0.548,1.084-1.121
			C128.214,149.79,128.215,149.175,128.006,148.529z"/>
		<path fill-rule="evenodd" clip-rule="evenodd" fill="#1E1E1C" d="M127.539,156.048c-0.331,0.021-0.601,0.184-0.812,0.49
			c-0.217,0.312-0.31,0.68-0.279,1.101c0.025,0.421,0.162,0.77,0.412,1.049c0.251,0.278,0.539,0.407,0.863,0.386
			c0.33-0.021,0.602-0.188,0.812-0.5c0.21-0.313,0.304-0.68,0.279-1.101c-0.031-0.414-0.169-0.761-0.413-1.039
			C128.151,156.156,127.863,156.027,127.539,156.048z"/>
		<path fill-rule="evenodd" clip-rule="evenodd" fill="#030304" d="M119.182,146.361c1.549-0.825,2.773-1.809,3.676-2.95
			c0.795-1.021,1.094-1.8,0.9-2.334c-1.387-1.132-3.033-1.956-4.938-2.472c-1.695-0.463-3.246-0.598-4.65-0.405
			c-0.602-0.652-1.241-0.844-1.918-0.575c-0.59,0.237-0.912,0.602-0.965,1.093l-0.355,0.172c-0.679-0.385-1.287-0.332-1.823,0.159
			c-0.51,0.474-0.666,0.994-0.469,1.562l-0.069,0.121c-1.006,0.877-1.849,1.934-2.527,3.168c-0.67,1.203-1.15,2.522-1.442,3.958
			c2.157,1.905,6.588,1.623,13.29-0.845c0.162-0.076,0.295-0.112,0.397-0.109c0.128,0.006,0.313,0.062,0.554,0.171
			c0.006-0.124,0.045-0.267,0.119-0.43C119.04,146.495,119.114,146.401,119.182,146.361z"/>
		<path fill-rule="evenodd" clip-rule="evenodd" fill="#030304" d="M112.698,134.581c0.211-0.307,0.297-0.671,0.26-1.093
			c-0.037-0.421-0.186-0.785-0.447-1.091c-0.145-0.164-0.249,0.016-0.312,0.538c-0.106,0.846-0.225,1.445-0.355,1.799
			c-0.254,0.694-0.318,1.413-0.197,2.156c0.062,0.372,0.148,0.674,0.262,0.907c-0.082-0.224-0.107-0.526-0.077-0.909
			C111.883,136.128,112.172,135.36,112.698,134.581z"/>
		<path fill-rule="evenodd" clip-rule="evenodd" fill="#030304" d="M110.221,138.645c-0.108-0.22-0.295-0.466-0.559-0.739
			c-0.535-0.535-1.201-0.925-1.996-1.171c-0.407-0.124-1.016-0.404-1.824-0.841c-0.504-0.264-0.742-0.297-0.717-0.098
			c0.043,0.369,0.227,0.697,0.555,0.983c0.328,0.28,0.709,0.438,1.145,0.472c1.1,0.1,1.996,0.361,2.689,0.787L110.221,138.645z"/>
		
			<linearGradient id="SVGID_4_" gradientUnits="userSpaceOnUse" x1="-2614.5186" y1="179.019" x2="-2515.3582" y2="179.019" gradientTransform="matrix(-0.1923 0.011 0.0104 0.1947 -378.6421 136.7773)">
			<stop  offset="0" style="stop-color:#FFFFFF"/>
			<stop  offset="0.0549" style="stop-color:#E8E7E7"/>
			<stop  offset="0.1569" style="stop-color:#C1C0C0"/>
			<stop  offset="0.2627" style="stop-color:#9C9B9A"/>
			<stop  offset="0.3686" style="stop-color:#7A7A78"/>
			<stop  offset="0.4784" style="stop-color:#5C5C5B"/>
			<stop  offset="0.5922" style="stop-color:#434342"/>
			<stop  offset="0.7137" style="stop-color:#2F2F2E"/>
			<stop  offset="0.8431" style="stop-color:#212120"/>
			<stop  offset="1" style="stop-color:#1E1E1C"/>
		</linearGradient>
		<path fill-rule="evenodd" clip-rule="evenodd" fill="url(#SVGID_4_)" d="M122.254,141.638c-0.275-1.025-1.375-1.741-3.295-2.147
			c-2.08-0.435-4.316-0.27-6.711,0.495c-1.809,0.578-3.366,1.699-4.674,3.364c-0.572,0.729-0.965,1.43-1.178,2.102
			c-0.227,0.697-0.229,1.259-0.006,1.685c0.295,0.558,1.439,0.827,3.434,0.809c2.063-0.012,4.043-0.348,5.938-1.01
			c2.08-0.722,3.715-1.535,4.903-2.44C121.967,143.496,122.497,142.543,122.254,141.638z"/>
		<path fill-rule="evenodd" clip-rule="evenodd" fill="#DADADA" d="M114.829,138.694c-0.038,0.264,0.135,0.513,0.519,0.745
			c0.384,0.239,0.858,0.393,1.426,0.46c0.573,0.068,1.073,0.034,1.499-0.102c0.42-0.137,0.648-0.337,0.686-0.601
			c0.032-0.265-0.144-0.517-0.526-0.756c-0.378-0.232-0.853-0.386-1.427-0.46c-0.566-0.067-1.062-0.033-1.488,0.103
			C115.089,138.226,114.86,138.429,114.829,138.694z"/>
		<path fill-rule="evenodd" clip-rule="evenodd" fill="#FFFFFF" d="M115.01,138.515c-0.025,0.2,0.107,0.39,0.4,0.567
			c0.285,0.178,0.646,0.294,1.078,0.349c0.434,0.054,0.812,0.028,1.139-0.077c0.32-0.107,0.492-0.261,0.519-0.46
			c0.025-0.2-0.108-0.39-0.4-0.568c-0.286-0.177-0.646-0.293-1.079-0.348c-0.433-0.055-0.812-0.028-1.139,0.077
			C115.209,138.156,115.037,138.309,115.01,138.515z"/>
		<path fill-rule="evenodd" clip-rule="evenodd" fill="#DADADA" d="M106.213,144.846c0.254,0.182,0.592,0.158,1.013-0.069
			c0.428-0.227,0.82-0.592,1.179-1.093c0.35-0.502,0.562-0.995,0.634-1.478c0.072-0.483-0.016-0.815-0.263-0.995
			c-0.247-0.181-0.584-0.157-1.012,0.069c-0.428,0.228-0.818,0.592-1.169,1.094c-0.352,0.509-0.566,1.001-0.644,1.477
			C105.879,144.334,105.967,144.666,106.213,144.846z"/>
		<path fill-rule="evenodd" clip-rule="evenodd" fill="#FFFFFF" d="M106.543,144.035c0.21,0.158,0.49,0.152,0.842-0.017
			c0.346-0.17,0.66-0.453,0.942-0.851c0.283-0.397,0.446-0.79,0.49-1.178c0.044-0.389-0.044-0.661-0.261-0.819
			c-0.217-0.151-0.498-0.143-0.844,0.027c-0.352,0.169-0.665,0.449-0.941,0.841c-0.283,0.397-0.446,0.793-0.49,1.188
			C106.239,143.614,106.325,143.884,106.543,144.035z"/>
		
			<use xlink:href="#flash0.ai_x5F_16_x2F_Mode_Isolation_x2F__x3C_Path_x3E__x5F_17"  width="91.233" height="106.781" x="-0.007" y="-106.763" transform="matrix(-0.1917 -0.0183 0.0186 -0.1942 129.6499 145.3755)" overflow="visible" enable-background="new    "/>
	</g>
</g>
</svg>
