<?xml version="1.0" encoding="utf-8"?>
<!-- Generator: Adobe Illustrator 16.0.4, SVG Export Plug-In . SVG Version: 6.00 Build 0)  -->
<!DOCTYPE svg PUBLIC "-//W3C//DTD SVG 1.1//EN" "http://www.w3.org/Graphics/SVG/1.1/DTD/svg11.dtd">
<svg version="1.1" id="Calque_1" xmlns="http://www.w3.org/2000/svg" xmlns:xlink="http://www.w3.org/1999/xlink" x="0px" y="0px"
	 width="193.95px" height="233.407px" viewBox="0 0 193.95 233.407" enable-background="new 0 0 193.95 233.407"
	 xml:space="preserve">
<g>
	<g>
		<path fill-rule="evenodd" clip-rule="evenodd" fill="#52352F" d="M73.112,125.876c0.032,0,0.063,0,0.094,0
			c-0.343,11.332-0.14,21.304,0.608,29.911c0.249,2.691,0.562,5.398,0.936,8.122c-3.681,0.903-7.25,0.852-10.712-0.155
			c3.617-11.057,4.74-22.206,3.367-33.452c-0.311-2.482-0.826-4.946-1.542-7.395h7.063
			C73.082,123.896,73.144,124.886,73.112,125.876z"/>
	</g>
	<g>
		<g>
			<path fill-rule="evenodd" clip-rule="evenodd" fill="#455C35" d="M67.7,58.558l4.449-0.299c-0.366-0.033-0.767-0.051-1.199-0.051
				c-0.4-0.033-0.801-0.051-1.2-0.051c-0.067,0-0.167,0-0.3,0c-0.567-0.033-1.15-0.049-1.75-0.049V29.308
				c0.066-0.033,0.183-0.049,0.35-0.049c0.033,0.166,0.1,0.332,0.2,0.5c0.7-0.5,2.167-0.834,4.399-1
				c1.367-0.135,3.018-0.184,4.95-0.15c7.567,0.033,18.517,5.166,32.851,15.4c-15.634,0.766-28.233,1.666-37.801,2.699
				c-0.566,0.066-1.133,0.117-1.699,0.15c-0.4,0.033-0.801,0.1-1.2,0.199c-0.101,0-0.2,0-0.3,0c-0.467,0.033-0.934,0.1-1.4,0.201
				h47.7c0.899,0.6,1.833,1.25,2.8,1.949c3.633,2.699,6.816,5.584,9.55,8.65c-2.899,0.166-5.967,0.334-9.2,0.5
				c-0.199,0-0.399,0.033-0.6,0.1c-16.9,0.934-32,1.949-45.3,3.051c-0.101,0-0.217,0.016-0.351,0.049
				c-0.566,0.066-1.133,0.117-1.699,0.15c-0.4,0-0.801,0.033-1.2,0.1c-0.101,0-0.2,0.018-0.3,0.051
				c-0.601,0.033-1.184,0.084-1.75,0.15V58.558z M67.7,96.208v-7.15l11.6-0.799c-2.066-0.168-4.283-0.334-6.65-0.5
				c-0.566-0.066-1.133-0.102-1.699-0.102c-0.4-0.033-0.801-0.066-1.2-0.1c-0.067,0-0.167,0-0.3,0c-0.567-0.033-1.15-0.066-1.75-0.1
				V64.657l64.85-0.799c1.934,3.066,3.45,6.266,4.55,9.6c-1.7,0.066-3.483,0.133-5.35,0.199c-0.167,0-0.317,0.018-0.45,0.051
				c-27.033,1.033-42.7,2.35-47,3.949h53.85c0.467,2.635,0.7,5.318,0.7,8.051c0,0.6,0,1.184,0,1.75c-0.2,0-5.649,0.699-16.35,2.1
				c-10.767,1.4-20.95,2.701-30.55,3.9c-9.667,1.234-15.684,1.9-18.051,2c-0.467,0-0.883,0.018-1.25,0.051
				c-1.6,0.1-2.566,0.166-2.899,0.199c-0.101,0-0.2,0.018-0.3,0.051C68.85,95.892,68.267,96.042,67.7,96.208z M67.7,96.759l71.8-3.9
				c-0.8,3.867-6.467,9.4-17,16.6c-10.567,7.199-22.634,11.633-36.2,13.301c-5.133,0.633-9.233,1.199-12.3,1.699h-4.7
				c-0.233,0.033-0.35,0.018-0.35-0.051c-0.067,0.102-0.117,0.068-0.15-0.1v0.201l-0.05-0.25v-0.102c0-0.033,0-0.066,0-0.1h0.05
				c0.066-0.033,0.15-0.049,0.25-0.049c-0.033,0.133-0.05,0.232-0.05,0.299c0.001-0.033,0.051-0.084,0.149-0.15
				c-0.066,0.035-0.1,0-0.1-0.1v-0.049c-0.1-0.066-0.184-0.102-0.25-0.102L67.7,96.759z"/>
			<path fill-rule="evenodd" clip-rule="evenodd" fill="#617C4F" d="M67.7,64.657v22.801c-15.267-0.801-36.067-0.949-62.4-0.449
				c-0.2,0-0.4,0-0.6,0c-1.634,0.033-3.2,0.066-4.7,0.1c0-0.434,0-0.9,0-1.4c0-5.566,1.033-10.816,3.1-15.75
				c1.033-2.533,2.351-4.982,3.95-7.35l60.65-4.051v3.451c-10.434,0.898-19.667,1.883-27.7,2.949L67.7,64.657z M67.7,89.058v7.15
				c-0.9,0.166-1.784,0.367-2.65,0.6l2.65-0.049l1.1,27.148c0.066,0,0.15,0.035,0.25,0.102c-0.1,0-0.184,0.016-0.25,0.049h-0.05
				c0,0.033,0,0.066,0,0.1v0.102c-0.2,0.266-1.283,0.332-3.25,0.199l-4.9,0.199c-1.434,0.035-2.983,0.035-4.649,0
				c-7.667-0.1-18.351-2.783-32.051-8.049c-13.733-5.301-21.5-13-23.3-23.1L67.7,89.058z M67.7,29.308v28.801
				c-10.867-0.334-26.717-0.15-47.551,0.549c-0.133,0-0.267,0-0.399,0c-0.2,0-0.4,0.018-0.601,0.051
				c-3.466,0.1-6.583,0.184-9.35,0.25c0.634-0.766,1.316-1.533,2.05-2.301c2.434-2.6,5.25-5.082,8.45-7.449
				C33.767,39.142,49.566,32.509,67.7,29.308z"/>
		</g>
	</g>
</g>
<g>
	<g>
		<g>
			<path fill-rule="evenodd" clip-rule="evenodd" fill="#61712A" d="M143.25,0.908c0.066-0.033,0.149-0.067,0.25-0.1
				c0.033,0.233,0.083,0.45,0.149,0.65c0.5-0.633,1.533-1.05,3.101-1.25c0.967-0.167,2.133-0.233,3.5-0.2
				c5.333,0.066,13.066,6.483,23.2,19.25c-11.033,0.967-19.934,2.1-26.7,3.399c-0.4,0.067-0.8,0.134-1.2,0.2
				c-0.267,0.033-0.55,0.101-0.85,0.2c-0.067,0-0.134,0-0.2,0c-0.333,0.066-0.667,0.15-1,0.25h33.7
				c0.633,0.767,1.283,1.583,1.949,2.45c2.567,3.399,4.817,7,6.75,10.799c-2.033,0.234-4.199,0.451-6.5,0.65
				c-0.133,0-0.267,0.033-0.399,0.1c-11.934,1.168-22.601,2.451-32,3.85c-0.067,0-0.15,0.018-0.25,0.051
				c-0.4,0.066-0.8,0.133-1.2,0.199c-0.267,0-0.55,0.035-0.85,0.102c-0.067,0-0.134,0.016-0.2,0.049
				c-0.434,0.066-0.851,0.135-1.25,0.201v-4.301l3.149-0.4c-0.267-0.033-0.55-0.049-0.85-0.049c-0.267-0.033-0.55-0.051-0.85-0.051
				c-0.033,0-0.101,0-0.2,0c-0.4-0.033-0.817-0.051-1.25-0.051V0.908z M143.25,84.509v-8.9l8.2-1c-1.467-0.234-3.033-0.451-4.7-0.65
				c-0.4-0.066-0.8-0.117-1.2-0.15c-0.267-0.033-0.55-0.066-0.85-0.1c-0.033,0-0.101,0-0.2,0c-0.4-0.033-0.817-0.066-1.25-0.1
				V45.058l45.8-0.949c1.367,3.799,2.434,7.799,3.2,12c-1.2,0.066-2.45,0.15-3.75,0.25c-0.134,0-0.25,0.016-0.351,0.049
				c-19.066,1.268-30.116,2.918-33.149,4.951h38c0.333,3.266,0.5,6.617,0.5,10.049c0,0.734,0,1.451,0,2.15
				c-0.134,0-3.983,0.885-11.55,2.65c-7.601,1.734-14.783,3.367-21.551,4.9c-6.833,1.533-11.083,2.35-12.75,2.449
				c-0.333,0.033-0.633,0.066-0.899,0.1c-1.134,0.102-1.817,0.184-2.05,0.25c-0.067,0-0.134,0.018-0.2,0.051
				C144.066,84.124,143.649,84.308,143.25,84.509z M144,119.558v-0.1c0-0.033,0-0.084,0-0.15h0.05
				c0.033-0.033,0.083-0.049,0.15-0.049c-0.067-0.066-0.117-0.117-0.15-0.15l-0.8-33.9l50.7-4.85
				c-0.567,4.799-4.567,11.699-12,20.699c-7.467,9-15.983,14.551-25.551,16.65c-3.633,0.768-6.533,1.467-8.699,2.1h-3.301
				c-0.3,0.033-0.333-0.082-0.1-0.35c-0.066,0.033-0.1-0.016-0.1-0.15c-0.068,0.557-0.118,0.656-0.15,0.301v0.25L144,119.558z"/>
			<path fill-rule="evenodd" clip-rule="evenodd" fill="#818E39" d="M143.25,84.509c-0.634,0.232-1.25,0.482-1.851,0.75l1.851-0.051
				l0.8,33.9c0.033,0.033,0.083,0.084,0.15,0.15c-0.067,0-0.117,0.016-0.15,0.049H144c0,0.066,0,0.117,0,0.15v0.1
				c-0.134,0.334-0.9,0.418-2.3,0.25l-3.45,0.25c-1,0.033-2.101,0.033-3.3,0c-5.4-0.1-12.934-3.449-22.601-10.049
				c-9.7-6.602-15.183-16.217-16.45-28.852l47.351-5.549V84.509z M143.25,0.908v35.999c-7.667-0.432-18.851-0.215-33.55,0.65
				c-0.101,0-0.2,0.018-0.301,0.051c-0.133,0-0.267,0.016-0.399,0.049c-2.467,0.102-4.667,0.201-6.601,0.301
				c0.434-0.967,0.917-1.916,1.45-2.85c1.7-3.268,3.684-6.383,5.95-9.35C119.3,13.191,130.45,4.908,143.25,0.908z M143.25,37.458
				v4.301c-7.367,1.133-13.884,2.365-19.55,3.699l19.55-0.4v28.551c-10.767-1-25.45-1.201-44.05-0.6c-0.134,0-0.268,0-0.4,0
				c-1.167,0.033-2.283,0.082-3.35,0.148c0-0.566,0-1.148,0-1.75c0-6.965,0.732-13.533,2.199-19.699
				c0.733-3.166,1.667-6.232,2.801-9.199L143.25,37.458z"/>
		</g>
	</g>
</g>
<g>
	<g>
		<linearGradient id="SVGID_1_" gradientUnits="userSpaceOnUse" x1="127.5508" y1="23.4141" x2="131.4006" y2="36.3883">
			<stop  offset="0" style="stop-color:#E4E78C"/>
			<stop  offset="0.5255" style="stop-color:#86BD35"/>
			<stop  offset="1" style="stop-color:#997514"/>
		</linearGradient>
		<path fill-rule="evenodd" clip-rule="evenodd" fill="url(#SVGID_1_)" d="M132.2,18.908v16.101
			c-0.002-0.033-0.018-0.051-0.051-0.051c-0.699,0.5-1.399,0.75-2.1,0.75c-1.934-0.066-3.633-1.117-5.1-3.15
			s-2.167-4.283-2.101-6.75c0.101-2.366,0.851-4.217,2.25-5.55c1.333-1.233,3-1.816,5-1.75
			C130.866,18.575,131.566,18.708,132.2,18.908z"/>
		<linearGradient id="SVGID_2_" gradientUnits="userSpaceOnUse" x1="134.4004" y1="21.3818" x2="138.2506" y2="34.3576">
			<stop  offset="0" style="stop-color:#D0DA54"/>
			<stop  offset="0.5255" style="stop-color:#70A72E"/>
			<stop  offset="1" style="stop-color:#997514"/>
		</linearGradient>
		<path fill-rule="evenodd" clip-rule="evenodd" fill="url(#SVGID_2_)" d="M132.2,35.009V18.908c0.066,0,0.116,0.017,0.149,0.051
			c0.067,0,0.117,0.017,0.15,0.05c0.767-0.267,1.583-0.367,2.45-0.3c2,0.066,3.6,0.767,4.8,2.1c1.333,1.434,1.95,3.333,1.85,5.7
			c-0.1,2.366-0.917,4.549-2.45,6.549c-1.433,1.934-2.85,2.867-4.25,2.801c-0.833,0-1.683-0.25-2.55-0.75
			C132.316,35.075,132.267,35.042,132.2,35.009z"/>
	</g>
	<path fill-rule="evenodd" clip-rule="evenodd" fill="#FFFFFF" fill-opacity="0.2" d="M123.899,23.658c0.167-0.833,0.5-1.55,1-2.149
		c0.601-0.7,1.268-1,2-0.9c0.867,0.167,1.483,0.684,1.851,1.55c0.333,0.834,0.25,1.534-0.25,2.101
		c-2.3,2.733-2.816,5.116-1.55,7.149c0.166,0.268,0.633,0.818,1.399,1.65c0.367,0.4,0.367,0.65,0,0.75
		c-1.366,0.334-2.583-0.684-3.649-3.049C123.633,28.392,123.366,26.025,123.899,23.658z"/>
	
		<radialGradient id="SVGID_3_" cx="-445.5649" cy="1004.1768" r="1.4618" gradientTransform="matrix(-0.9994 -0.0342 0.0342 -0.9994 -347.144 1008.1434)" gradientUnits="userSpaceOnUse">
		<stop  offset="0.4667" style="stop-color:#8FC046"/>
		<stop  offset="0.9765" style="stop-color:#C1D239"/>
	</radialGradient>
	<path fill-rule="evenodd" clip-rule="evenodd" fill="url(#SVGID_3_)" d="M134.55,19.808c0-0.067-0.217-0.051-0.65,0.05
		c-0.533,0.066-1,0.017-1.4-0.15c-0.433-0.2-0.899-0.283-1.399-0.25c-0.433,0-0.649,0.067-0.649,0.2c0,0.267,0.683,0.434,2.049,0.5
		C133.866,20.224,134.55,20.108,134.55,19.808z"/>
	<path fill-rule="evenodd" clip-rule="evenodd" fill="#52352F" d="M133.1,12.958l1-0.2l0.4,1.2c0.3,1.234,0.083,2.433-0.65,3.6
		c-0.866,1.4-1.316,2.267-1.35,2.6c-0.2,0.034-0.4,0.017-0.601-0.05c0-0.3,0.351-1.05,1.051-2.25
		c0.633-1.166,0.933-1.983,0.899-2.45C133.783,14.542,133.533,13.725,133.1,12.958z"/>
	<path fill-rule="evenodd" clip-rule="evenodd" fill="#FFFFFF" fill-opacity="0.302" d="M125.35,21.308c0.7-0.6,1.4-0.833,2.101-0.7
		c0.699,0.134,1.199,0.517,1.5,1.15c0.3,0.6,0.267,1.166-0.101,1.7c-0.899-0.534-1.783-0.834-2.649-0.9
		c-0.834-0.033-1.551,0.167-2.15,0.6C124.25,22.458,124.684,21.841,125.35,21.308z"/>
	<g>
		
			<linearGradient id="SVGID_4_" gradientUnits="userSpaceOnUse" x1="-1584.6074" y1="-1519.063" x2="-1581.6594" y2="-1519.063" gradientTransform="matrix(0.9754 -0.2206 -0.2206 -0.9754 1337.6495 -1811.6191)">
			<stop  offset="0" style="stop-color:#FEF8CE"/>
			<stop  offset="1" style="stop-color:#FDF5B1"/>
		</linearGradient>
		<path fill-rule="evenodd" clip-rule="evenodd" fill="url(#SVGID_4_)" d="M126.3,19.708c-0.233,0.167-0.334,0.317-0.301,0.45
			c0,0.133,0.117,0.2,0.351,0.2c0.8-0.7,1.75-1.184,2.851-1.45c1.1-0.233,2.016-0.167,2.75,0.2c-0.467-0.434-1.317-0.583-2.551-0.45
			C128.1,18.757,127.066,19.108,126.3,19.708z"/>
	</g>
</g>
<g>
	<g>
		<linearGradient id="SVGID_5_" gradientUnits="userSpaceOnUse" x1="170.4502" y1="47.333" x2="174.3" y2="60.3073">
			<stop  offset="0" style="stop-color:#D0DA54"/>
			<stop  offset="0.5255" style="stop-color:#70A72E"/>
			<stop  offset="1" style="stop-color:#997514"/>
		</linearGradient>
		<path fill-rule="evenodd" clip-rule="evenodd" fill="url(#SVGID_5_)" d="M168.25,60.958v-16.1c0.066,0,0.116,0.016,0.149,0.049
			c0.067,0,0.117,0.018,0.15,0.051c0.767-0.266,1.583-0.367,2.45-0.301c2,0.068,3.6,0.768,4.8,2.102
			c1.333,1.434,1.95,3.332,1.85,5.699c-0.1,2.367-0.916,4.551-2.449,6.551c-1.434,1.934-2.851,2.865-4.25,2.799
			c-0.834,0-1.684-0.25-2.551-0.75C168.366,61.024,168.316,60.991,168.25,60.958z"/>
		<linearGradient id="SVGID_6_" gradientUnits="userSpaceOnUse" x1="163.6006" y1="49.3643" x2="167.4506" y2="62.3393">
			<stop  offset="0" style="stop-color:#E4E78C"/>
			<stop  offset="0.5255" style="stop-color:#86BD35"/>
			<stop  offset="1" style="stop-color:#997514"/>
		</linearGradient>
		<path fill-rule="evenodd" clip-rule="evenodd" fill="url(#SVGID_6_)" d="M168.25,44.858v16.1c-0.001-0.033-0.018-0.051-0.05-0.051
			c-0.7,0.5-1.4,0.75-2.101,0.75c-1.933-0.066-3.633-1.115-5.1-3.148s-2.167-4.283-2.101-6.75c0.101-2.367,0.851-4.217,2.25-5.551
			c1.334-1.232,3-1.816,5-1.75C166.917,44.524,167.616,44.657,168.25,44.858z"/>
	</g>
	<path fill-rule="evenodd" clip-rule="evenodd" fill="#FFFFFF" fill-opacity="0.2" d="M164.8,48.108
		c0.333,0.834,0.25,1.533-0.25,2.1c-2.3,2.734-2.816,5.117-1.55,7.15c0.167,0.266,0.633,0.816,1.399,1.65
		c0.367,0.398,0.367,0.648,0,0.75c-1.366,0.332-2.583-0.684-3.649-3.051c-1.067-2.367-1.333-4.732-0.8-7.1
		c0.166-0.834,0.5-1.551,1-2.15c0.6-0.699,1.267-1,2-0.9C163.816,46.726,164.433,47.241,164.8,48.108z"/>
	
		<radialGradient id="SVGID_7_" cx="-445.564" cy="1004.1787" r="1.461" gradientTransform="matrix(-0.9994 -0.0342 0.0342 -0.9994 -311.0934 1034.0974)" gradientUnits="userSpaceOnUse">
		<stop  offset="0.4667" style="stop-color:#8FC046"/>
		<stop  offset="0.9765" style="stop-color:#C1D239"/>
	</radialGradient>
	<path fill-rule="evenodd" clip-rule="evenodd" fill="url(#SVGID_7_)" d="M170.6,45.759c0-0.068-0.217-0.051-0.65,0.049
		c-0.533,0.066-1,0.018-1.399-0.15c-0.434-0.199-0.9-0.283-1.4-0.25c-0.434,0-0.65,0.068-0.65,0.201c0,0.266,0.684,0.434,2.051,0.5
		C169.916,46.175,170.6,46.058,170.6,45.759z"/>
	<path fill-rule="evenodd" clip-rule="evenodd" fill="#52352F" d="M169.149,38.907l1-0.199l0.4,1.199
		c0.3,1.234,0.083,2.434-0.65,3.602c-0.866,1.398-1.316,2.266-1.35,2.6c-0.2,0.033-0.4,0.016-0.6-0.051
		c0-0.299,0.35-1.049,1.05-2.25c0.633-1.166,0.933-1.982,0.899-2.449C169.833,40.491,169.583,39.675,169.149,38.907z"/>
	<path fill-rule="evenodd" clip-rule="evenodd" fill="#FFFFFF" fill-opacity="0.302" d="M161.399,47.259
		c0.7-0.602,1.4-0.834,2.101-0.701c0.7,0.135,1.2,0.518,1.5,1.15c0.3,0.6,0.267,1.166-0.101,1.699
		c-0.899-0.533-1.783-0.832-2.649-0.898c-0.833-0.033-1.55,0.166-2.15,0.6C160.3,48.407,160.733,47.792,161.399,47.259z"/>
	<g>
		
			<linearGradient id="SVGID_8_" gradientUnits="userSpaceOnUse" x1="-1584.6074" y1="-1519.0635" x2="-1581.6599" y2="-1519.0635" gradientTransform="matrix(0.9754 -0.2206 -0.2206 -0.9754 1373.6993 -1785.6689)">
			<stop  offset="0" style="stop-color:#FEF8CE"/>
			<stop  offset="1" style="stop-color:#FDF5B1"/>
		</linearGradient>
		<path fill-rule="evenodd" clip-rule="evenodd" fill="url(#SVGID_8_)" d="M162.35,45.657c-0.233,0.168-0.333,0.318-0.3,0.451
			c0,0.133,0.116,0.199,0.35,0.199c0.8-0.699,1.75-1.184,2.85-1.449c1.101-0.234,2.018-0.168,2.75,0.199
			c-0.467-0.434-1.316-0.582-2.55-0.449C164.149,44.708,163.116,45.058,162.35,45.657z"/>
	</g>
</g>
<g>
	<g>
		<linearGradient id="SVGID_9_" gradientUnits="userSpaceOnUse" x1="122" y1="61.7822" x2="125.8502" y2="74.758">
			<stop  offset="0" style="stop-color:#D0DA54"/>
			<stop  offset="0.5255" style="stop-color:#70A72E"/>
			<stop  offset="1" style="stop-color:#997514"/>
		</linearGradient>
		<path fill-rule="evenodd" clip-rule="evenodd" fill="url(#SVGID_9_)" d="M119.8,75.407v-16.1c0.066,0,0.117,0.018,0.15,0.051
			c0.066,0,0.116,0.016,0.149,0.049c0.767-0.266,1.583-0.365,2.45-0.299c2,0.066,3.6,0.766,4.8,2.1
			c1.333,1.434,1.95,3.334,1.851,5.699c-0.101,2.367-0.917,4.551-2.45,6.551c-1.434,1.934-2.851,2.867-4.25,2.801
			c-0.833,0-1.684-0.25-2.55-0.75C119.917,75.476,119.866,75.442,119.8,75.407z"/>
		<linearGradient id="SVGID_10_" gradientUnits="userSpaceOnUse" x1="115.1504" y1="63.8154" x2="119.0004" y2="76.7904">
			<stop  offset="0" style="stop-color:#E4E78C"/>
			<stop  offset="0.5255" style="stop-color:#86BD35"/>
			<stop  offset="1" style="stop-color:#997514"/>
		</linearGradient>
		<path fill-rule="evenodd" clip-rule="evenodd" fill="url(#SVGID_10_)" d="M119.8,59.308v16.1c-0.001-0.033-0.018-0.049-0.05-0.049
			c-0.7,0.5-1.4,0.75-2.101,0.75c-1.933-0.066-3.633-1.117-5.1-3.15s-2.167-4.283-2.1-6.75c0.1-2.367,0.85-4.217,2.25-5.551
			c1.333-1.232,3-1.816,5-1.75C118.467,58.976,119.167,59.108,119.8,59.308z"/>
	</g>
	<path fill-rule="evenodd" clip-rule="evenodd" fill="#FFFFFF" fill-opacity="0.2" d="M116.35,62.558
		c0.333,0.834,0.25,1.533-0.25,2.1c-2.3,2.734-2.816,5.117-1.55,7.15c0.167,0.268,0.633,0.816,1.4,1.65c0.366,0.4,0.366,0.65,0,0.75
		c-1.367,0.334-2.584-0.684-3.65-3.051c-1.066-2.365-1.333-4.732-0.8-7.1c0.167-0.832,0.5-1.549,1-2.15c0.6-0.699,1.267-1,2-0.898
		C115.366,61.175,115.983,61.692,116.35,62.558z"/>
	
		<radialGradient id="SVGID_11_" cx="-445.5635" cy="1004.1777" r="1.462" gradientTransform="matrix(-0.9994 -0.0342 0.0342 -0.9994 -359.5435 1048.5458)" gradientUnits="userSpaceOnUse">
		<stop  offset="0.4667" style="stop-color:#8FC046"/>
		<stop  offset="0.9765" style="stop-color:#C1D239"/>
	</radialGradient>
	<path fill-rule="evenodd" clip-rule="evenodd" fill="url(#SVGID_11_)" d="M122.15,60.208c0-0.066-0.217-0.051-0.65,0.051
		c-0.533,0.066-1,0.016-1.399-0.15c-0.434-0.201-0.9-0.283-1.4-0.25c-0.434,0-0.65,0.066-0.65,0.199c0,0.268,0.684,0.434,2.051,0.5
		C121.467,60.624,122.15,60.509,122.15,60.208z"/>
	<path fill-rule="evenodd" clip-rule="evenodd" fill="#52352F" d="M120.7,53.358l1-0.201l0.399,1.201
		c0.3,1.232,0.083,2.434-0.649,3.6c-0.867,1.4-1.317,2.268-1.351,2.6c-0.2,0.033-0.399,0.018-0.6-0.049
		c0-0.301,0.35-1.051,1.05-2.25c0.633-1.168,0.934-1.984,0.9-2.451C121.383,54.942,121.133,54.124,120.7,53.358z"/>
	<path fill-rule="evenodd" clip-rule="evenodd" fill="#FFFFFF" fill-opacity="0.302" d="M112.95,61.708
		c0.699-0.6,1.399-0.834,2.1-0.699c0.7,0.133,1.2,0.516,1.5,1.148c0.3,0.602,0.267,1.168-0.1,1.701c-0.9-0.533-1.783-0.834-2.65-0.9
		c-0.833-0.033-1.55,0.166-2.15,0.6C111.85,62.858,112.283,62.241,112.95,61.708z"/>
	<g>
		
			<linearGradient id="SVGID_12_" gradientUnits="userSpaceOnUse" x1="-1584.6064" y1="-1519.0635" x2="-1581.6593" y2="-1519.0635" gradientTransform="matrix(0.9754 -0.2206 -0.2206 -0.9754 1325.2501 -1771.2188)">
			<stop  offset="0" style="stop-color:#FEF8CE"/>
			<stop  offset="1" style="stop-color:#FDF5B1"/>
		</linearGradient>
		<path fill-rule="evenodd" clip-rule="evenodd" fill="url(#SVGID_12_)" d="M113.9,60.108c-0.233,0.166-0.333,0.316-0.3,0.449
			c0,0.133,0.116,0.201,0.35,0.201c0.8-0.701,1.75-1.184,2.85-1.451c1.101-0.232,2.018-0.166,2.75,0.201
			c-0.467-0.434-1.316-0.584-2.55-0.451C115.7,59.157,114.667,59.509,113.9,60.108z"/>
	</g>
</g>
<g>
	<g>
		<linearGradient id="SVGID_13_" gradientUnits="userSpaceOnUse" x1="156.6006" y1="88.4141" x2="160.4504" y2="101.3883">
			<stop  offset="0" style="stop-color:#E4E78C"/>
			<stop  offset="0.5255" style="stop-color:#86BD35"/>
			<stop  offset="1" style="stop-color:#997514"/>
		</linearGradient>
		<path fill-rule="evenodd" clip-rule="evenodd" fill="url(#SVGID_13_)" d="M161.25,83.907v16.102
			c-0.001-0.033-0.018-0.051-0.05-0.051c-0.7,0.5-1.4,0.75-2.101,0.75c-1.933-0.066-3.633-1.117-5.1-3.15s-2.167-4.283-2.101-6.75
			c0.101-2.365,0.851-4.217,2.25-5.549c1.334-1.234,3-1.816,5-1.75C159.917,83.575,160.616,83.708,161.25,83.907z"/>
		<linearGradient id="SVGID_14_" gradientUnits="userSpaceOnUse" x1="163.4492" y1="86.3818" x2="167.2994" y2="99.3576">
			<stop  offset="0" style="stop-color:#D0DA54"/>
			<stop  offset="0.5255" style="stop-color:#70A72E"/>
			<stop  offset="1" style="stop-color:#997514"/>
		</linearGradient>
		<path fill-rule="evenodd" clip-rule="evenodd" fill="url(#SVGID_14_)" d="M161.25,100.009V83.907c0.066,0,0.116,0.018,0.149,0.051
			c0.067,0,0.117,0.018,0.15,0.051c0.767-0.268,1.583-0.367,2.45-0.301c2,0.066,3.6,0.768,4.8,2.1
			c1.333,1.434,1.95,3.334,1.85,5.701c-0.1,2.365-0.916,4.549-2.449,6.549c-1.434,1.934-2.851,2.867-4.25,2.801
			c-0.834,0-1.684-0.25-2.551-0.75C161.366,100.075,161.316,100.042,161.25,100.009z"/>
	</g>
	<path fill-rule="evenodd" clip-rule="evenodd" fill="#FFFFFF" fill-opacity="0.2" d="M157.8,87.157
		c0.333,0.834,0.25,1.535-0.25,2.102c-2.3,2.732-2.816,5.115-1.55,7.148c0.167,0.268,0.633,0.818,1.399,1.65
		c0.367,0.4,0.367,0.65,0,0.75c-1.366,0.334-2.583-0.684-3.649-3.049c-1.067-2.367-1.333-4.734-0.8-7.102
		c0.166-0.832,0.5-1.549,1-2.148c0.6-0.701,1.267-1,2-0.9C156.816,85.774,157.433,86.292,157.8,87.157z"/>
	
		<radialGradient id="SVGID_15_" cx="-445.564" cy="1004.1768" r="1.461" gradientTransform="matrix(-0.9994 -0.0342 0.0342 -0.9994 -318.0932 1073.1434)" gradientUnits="userSpaceOnUse">
		<stop  offset="0.4667" style="stop-color:#8FC046"/>
		<stop  offset="0.9765" style="stop-color:#C1D239"/>
	</radialGradient>
	<path fill-rule="evenodd" clip-rule="evenodd" fill="url(#SVGID_15_)" d="M163.6,84.808c0-0.066-0.217-0.051-0.65,0.051
		c-0.533,0.066-1,0.016-1.399-0.15c-0.434-0.201-0.9-0.283-1.4-0.25c-0.434,0-0.65,0.066-0.65,0.199c0,0.268,0.684,0.434,2.051,0.5
		C162.916,85.224,163.6,85.108,163.6,84.808z"/>
	<path fill-rule="evenodd" clip-rule="evenodd" fill="#52352F" d="M162.149,77.958l1-0.199l0.4,1.199
		c0.3,1.234,0.083,2.434-0.65,3.6c-0.866,1.4-1.316,2.268-1.35,2.6c-0.2,0.035-0.4,0.018-0.6-0.049c0-0.301,0.35-1.051,1.05-2.25
		c0.633-1.166,0.933-1.984,0.899-2.451C162.833,79.542,162.583,78.726,162.149,77.958z"/>
	<path fill-rule="evenodd" clip-rule="evenodd" fill="#FFFFFF" fill-opacity="0.302" d="M154.399,86.308
		c0.7-0.6,1.4-0.832,2.101-0.699s1.2,0.516,1.5,1.15c0.3,0.6,0.267,1.166-0.101,1.699c-0.899-0.533-1.783-0.834-2.649-0.9
		c-0.833-0.033-1.55,0.168-2.15,0.6C153.3,87.458,153.733,86.841,154.399,86.308z"/>
	<g>
		
			<linearGradient id="SVGID_16_" gradientUnits="userSpaceOnUse" x1="-1584.6064" y1="-1519.0625" x2="-1581.6593" y2="-1519.0625" gradientTransform="matrix(0.9754 -0.2206 -0.2206 -0.9754 1366.6993 -1746.6191)">
			<stop  offset="0" style="stop-color:#FEF8CE"/>
			<stop  offset="1" style="stop-color:#FDF5B1"/>
		</linearGradient>
		<path fill-rule="evenodd" clip-rule="evenodd" fill="url(#SVGID_16_)" d="M155.35,84.708c-0.233,0.166-0.333,0.316-0.3,0.449
			c0,0.133,0.116,0.201,0.35,0.201c0.8-0.701,1.75-1.184,2.85-1.451c1.101-0.232,2.018-0.166,2.75,0.201
			c-0.467-0.434-1.316-0.584-2.55-0.451C157.149,83.757,156.116,84.108,155.35,84.708z"/>
	</g>
</g>
<g>
	<g>
		
			<linearGradient id="SVGID_17_" gradientUnits="userSpaceOnUse" x1="-1592.7783" y1="458.3369" x2="-1556.3605" y2="458.3369" gradientTransform="matrix(-0.2109 -0.9775 0.9775 -0.2109 -704.502 -1231.3875)">
			<stop  offset="0" style="stop-color:#4E5024"/>
			<stop  offset="1" style="stop-color:#999C3F"/>
		</linearGradient>
		<path fill-rule="evenodd" clip-rule="evenodd" fill="url(#SVGID_17_)" d="M71.8,197.657c1.934,1.201,3.417,2.234,4.45,3.102
			c4.066,3.566,6.116,8.467,6.149,14.699c0,1.734,0.384,3.199,1.15,4.4c0.434,0.967,0.883,1.766,1.35,2.4
			c-1.566-1.102-3.217-2.584-4.949-4.451c-0.533-0.6-1.084-1.217-1.65-1.85c-3.267-3.801-5.35-7.016-6.25-9.65
			c0.033,2.033,1.117,4.5,3.25,7.4c1.633,2.268,3.45,4.25,5.45,5.949c-5.233-0.832-8.967-3.316-11.2-7.449
			c-0.866-1.6-1.434-3.383-1.7-5.35c0-0.066,0-0.15,0-0.25c-0.333-3,0.05-6.35,1.15-10.051c0.066-0.299,0.149-0.582,0.25-0.85
			c0.066,0.1,0.2,0.268,0.399,0.5C70.05,196.575,70.767,197.058,71.8,197.657z"/>
		<g>
			<g>
				<path fill-rule="evenodd" clip-rule="evenodd" fill="#DBB20F" d="M88.05,196.558l-1.8,1.5l-1.4-1.4
					c-0.333-0.398-0.616-0.816-0.85-1.25c-0.233-0.365-0.434-0.732-0.601-1.1c-0.533-1.232-0.883-2.549-1.05-3.949
					c-0.767,1.334-1.667,2.467-2.7,3.4s-2.133,1.582-3.3,1.949c-0.233,0.066-0.467,0.051-0.7-0.051c-0.199-0.1-0.366-0.266-0.5-0.5
					c-0.467-1-0.732-2.148-0.8-3.449c-0.1-1.301,0.017-2.617,0.351-3.949c-1.134,0.799-2.317,1.416-3.551,1.85
					c-1.232,0.4-2.399,0.566-3.5,0.5c-0.233-0.033-0.449-0.133-0.649-0.301c-0.167-0.166-0.267-0.365-0.3-0.6
					c-0.067-1.199,0.133-2.467,0.6-3.801c0.5-1.299,1.217-2.549,2.15-3.75c-1.467,0.4-2.9,0.568-4.301,0.5
					c-1.399-0.1-2.633-0.416-3.699-0.949c-0.233-0.1-0.384-0.266-0.45-0.5c-0.101-0.232-0.117-0.467-0.05-0.699
					c0.366-1.066,0.983-2.084,1.85-3.051s1.9-1.816,3.1-2.551c-1.366-0.199-2.633-0.6-3.8-1.199c-1.166-0.566-2.133-1.266-2.899-2.1
					c-0.134-0.201-0.2-0.416-0.2-0.65c0-0.232,0.066-0.467,0.2-0.699c0.8-0.867,1.833-1.602,3.1-2.201s2.65-0.982,4.15-1.15
					c-1.301-0.766-2.417-1.666-3.351-2.699s-1.6-2.117-2-3.25c-0.066-0.266-0.033-0.5,0.101-0.699
					c0.066-0.234,0.216-0.418,0.449-0.551c1-0.467,2.15-0.732,3.45-0.801c1.3-0.1,2.634,0.018,4,0.352
					c-0.833-1.135-1.467-2.316-1.899-3.551c-0.4-1.232-0.567-2.4-0.5-3.5c0.033-0.232,0.133-0.449,0.3-0.65
					c0.2-0.166,0.416-0.266,0.649-0.299c1.167-0.066,2.417,0.133,3.75,0.6c1.334,0.467,2.584,1.166,3.75,2.1
					c-0.366-1.434-0.517-2.85-0.449-4.25c0.066-1.4,0.366-2.633,0.899-3.699c0.134-0.201,0.3-0.352,0.5-0.451
					c0.233-0.1,0.467-0.115,0.7-0.049c1.066,0.365,2.083,0.982,3.05,1.85s1.817,1.9,2.55,3.1c0.2-1.4,0.601-2.666,1.2-3.801
					c0.601-1.199,1.317-2.166,2.15-2.898c0.167-0.168,0.383-0.25,0.649-0.25c0.233,0,0.45,0.082,0.65,0.25
					c0.867,0.799,1.617,1.832,2.25,3.1c0.566,1.266,0.95,2.65,1.15,4.15c0.767-1.301,1.666-2.418,2.699-3.352
					c1.067-0.965,2.15-1.615,3.25-1.949c0.233-0.1,0.467-0.1,0.7,0s0.4,0.268,0.5,0.5c0.5,1,0.783,2.15,0.851,3.449
					c0.066,1.301-0.067,2.617-0.4,3.951c1.133-0.801,2.316-1.4,3.55-1.801c1.233-0.434,2.417-0.615,3.55-0.549
					c0.233,0.033,0.45,0.133,0.65,0.299c0.167,0.201,0.25,0.418,0.25,0.65c0.1,1.199-0.1,2.449-0.6,3.75
					c-0.467,1.301-1.167,2.551-2.101,3.75c1.467-0.4,2.884-0.566,4.25-0.5c1.4,0.1,2.634,0.416,3.7,0.949
					c0.233,0.102,0.4,0.268,0.5,0.5c0.1,0.234,0.1,0.467,0,0.701c-0.333,1.066-0.95,2.084-1.85,3.049
					c-0.834,1-1.867,1.852-3.101,2.551c1.4,0.234,2.684,0.633,3.851,1.199c1.166,0.568,2.116,1.268,2.85,2.102
					c0.333,0.467,0.333,0.916,0,1.35c-0.767,0.9-1.783,1.633-3.05,2.199c-1.3,0.6-2.684,1-4.15,1.201
					c1.3,0.732,2.417,1.633,3.351,2.699c0.933,1.033,1.583,2.117,1.949,3.25c0.067,0.234,0.051,0.467-0.05,0.699
					c-0.1,0.201-0.25,0.367-0.45,0.5c-1,0.5-2.149,0.785-3.449,0.852c-1.334,0.066-2.667-0.066-4-0.4
					c0.833,1.133,1.449,2.316,1.85,3.549c0.4,1.268,0.566,2.451,0.5,3.551c0,0.234-0.083,0.434-0.25,0.6
					c-0.2,0.168-0.417,0.268-0.65,0.301c-1.199,0.066-2.449-0.133-3.75-0.6c-1.3-0.467-2.566-1.168-3.8-2.102
					c0.4,1.467,0.567,2.9,0.5,4.301c-0.1,1.367-0.417,2.584-0.95,3.65c-0.1,0.232-0.267,0.4-0.5,0.5c-0.232,0.1-0.467,0.1-0.699,0
					c-2.167-0.734-4.033-2.383-5.601-4.951c-0.267,1.734-0.767,3.234-1.5,4.5C88.616,195.808,88.35,196.192,88.05,196.558z
					 M96.149,147.407c-0.933,0.5-1.816,1.217-2.649,2.15c-0.833,0.967-1.517,2.084-2.05,3.35c-0.567,1.367-0.9,2.75-1,4.15
					l0.85,0.301l1.25-3c0.066-0.166,0.184-0.283,0.35-0.35c0.167-0.066,0.317-0.066,0.45,0c0.167,0.1,0.283,0.217,0.351,0.35
					c0.033,0.166,0.033,0.334,0,0.5l-1.301,2.949l0.801,0.4c0.933-1,1.699-2.199,2.3-3.6c0.5-1.234,0.816-2.484,0.95-3.75
					C96.583,149.591,96.483,148.442,96.149,147.407z M88,148.458c-0.4-1.199-0.934-2.199-1.601-3c-0.699,0.801-1.232,1.801-1.6,3
					c-0.4,1.199-0.6,2.484-0.6,3.85c0,1.467,0.232,2.885,0.699,4.25c0.367-0.033,0.65-0.049,0.851-0.049v-3.301
					c0-0.166,0.066-0.301,0.2-0.4c0.133-0.133,0.283-0.199,0.449-0.199c0.167,0,0.317,0.066,0.45,0.199
					c0.101,0.1,0.15,0.234,0.15,0.4v3.301c0.2,0,0.483,0.016,0.85,0.049c0.467-1.365,0.7-2.783,0.7-4.25
					C88.55,150.942,88.366,149.657,88,148.458z M77,147.259c-0.3,1-0.4,2.133-0.3,3.398c0.066,1.268,0.366,2.535,0.899,3.801
					c0.533,1.4,1.267,2.617,2.2,3.65l0.8-0.4l-1.25-3c-0.033-0.166-0.033-0.334,0-0.5c0.101-0.133,0.217-0.232,0.351-0.301
					c0.166-0.066,0.333-0.066,0.5,0c0.133,0.068,0.232,0.184,0.3,0.352l1.2,3l0.85-0.25c-0.066-1.4-0.367-2.801-0.9-4.201
					c-0.533-1.266-1.199-2.383-2-3.35C78.816,148.491,77.933,147.759,77,147.259z M88.35,158.608H88.3
					c-1.267-0.234-2.55-0.234-3.85,0h-0.051c-2.533,0.434-4.699,1.549-6.5,3.35c-1.8,1.834-2.916,4-3.35,6.5v0.051
					c-0.1,0.633-0.15,1.283-0.15,1.949c0,0.633,0.051,1.268,0.15,1.9v0.049c0.4,2.535,1.517,4.701,3.35,6.5
					c1.834,1.801,4,2.918,6.5,3.352l0.051,0.049c1.3,0.201,2.583,0.201,3.85,0l0.05-0.049c2.533-0.4,4.7-1.518,6.5-3.352
					c1.833-1.799,2.95-3.965,3.351-6.5v-0.049c0.133-0.633,0.199-1.268,0.199-1.9c0-0.666-0.066-1.316-0.199-1.949v-0.051
					c-0.4-2.5-1.518-4.666-3.351-6.5C93.05,160.157,90.883,159.042,88.35,158.608z M96.7,161.009l0.55,0.648
					c1.267-0.566,2.433-1.398,3.5-2.5c0.967-0.965,1.733-2,2.3-3.1c0.6-1.133,0.934-2.232,1-3.299c-1.033,0.1-2.117,0.434-3.25,1
					c-1.133,0.6-2.184,1.383-3.15,2.35c-1.1,1.066-1.933,2.217-2.5,3.449c0.4,0.334,0.617,0.533,0.65,0.6l2.35-2.35
					c0.101-0.1,0.233-0.15,0.4-0.15s0.316,0.051,0.45,0.15c0.267,0.301,0.267,0.6,0,0.9L96.7,161.009z M97.25,179.208l-0.55,0.65
					l2.3,2.299c0.1,0.135,0.149,0.285,0.149,0.451s-0.05,0.316-0.149,0.449c-0.167,0.135-0.317,0.201-0.45,0.201
					s-0.267-0.066-0.4-0.201l-2.35-2.299l-0.65,0.549c0.567,1.234,1.4,2.385,2.5,3.451c0.967,0.967,2.018,1.75,3.15,2.35
					c1.133,0.566,2.217,0.9,3.25,1c-0.066-1.033-0.4-2.133-1-3.301c-0.566-1.1-1.333-2.133-2.3-3.1
					C99.683,180.642,98.517,179.808,97.25,179.208z M76.35,190.058c-0.133,1.268-0.05,2.4,0.25,3.4c0.967-0.5,1.867-1.217,2.7-2.15
					c0.833-0.967,1.5-2.082,2-3.35c0.6-1.367,0.95-2.75,1.05-4.15l-0.85-0.299l-1.25,3.049c-0.134,0.234-0.333,0.35-0.601,0.35
					l-0.25-0.049c-0.133-0.1-0.232-0.217-0.3-0.35c-0.066-0.135-0.066-0.283,0-0.451l1.25-3l-0.75-0.4
					c-0.933,1.035-1.7,2.234-2.3,3.602C76.767,187.491,76.45,188.759,76.35,190.058z M76.1,179.858l-0.55-0.65
					c-1.267,0.6-2.434,1.434-3.5,2.5c-0.967,0.967-1.75,2-2.35,3.1c-0.567,1.168-0.9,2.268-1,3.301c1.066-0.1,2.166-0.434,3.3-1
					c1.133-0.6,2.167-1.383,3.1-2.35c1.101-1.066,1.934-2.217,2.5-3.451l-0.649-0.549l-2.301,2.299
					c-0.133,0.135-0.283,0.201-0.449,0.201c-0.134,0-0.283-0.066-0.45-0.201c-0.101-0.133-0.15-0.283-0.15-0.449
					s0.05-0.316,0.15-0.451L76.1,179.858z M72.95,174.259c-1.434,0.1-2.817,0.416-4.15,0.949c-1.267,0.5-2.384,1.166-3.35,2
					c-0.967,0.801-1.717,1.666-2.25,2.6c1,0.334,2.133,0.451,3.399,0.35c1.267-0.1,2.533-0.398,3.8-0.898
					c1.434-0.602,2.65-1.352,3.65-2.25l-0.35-0.75l-3.051,1.199l-0.25,0.051c-0.267,0-0.449-0.135-0.55-0.4
					c-0.066-0.133-0.066-0.301,0-0.5c0.067-0.133,0.184-0.234,0.351-0.301l3-1.199L72.95,174.259z M64.45,168.858
					c-1.233,0.367-2.25,0.9-3.051,1.6c0.801,0.666,1.817,1.199,3.051,1.6c1.199,0.367,2.483,0.551,3.85,0.551
					c1.5,0,2.9-0.234,4.2-0.701l-0.05-0.85H69.2c-0.167,0-0.317-0.066-0.45-0.199c-0.134-0.1-0.2-0.234-0.2-0.4
					s0.066-0.316,0.2-0.449c0.133-0.102,0.283-0.15,0.45-0.15h3.25l0.05-0.9c-1.267-0.467-2.667-0.699-4.2-0.699
					C66.934,168.259,65.649,168.458,64.45,168.858z M70.3,163.157c0.167-0.066,0.333-0.066,0.5,0l2.95,1.301l0.45-0.801
					c-1.033-0.932-2.233-1.699-3.601-2.299c-1.267-0.533-2.533-0.867-3.8-1c-1.3-0.133-2.434-0.033-3.4,0.299
					c0.467,0.967,1.184,1.852,2.15,2.65c0.934,0.834,2.033,1.518,3.3,2.051c1.367,0.566,2.75,0.9,4.15,1l0.3-0.801l-3-1.299
					c-0.133-0.066-0.25-0.184-0.35-0.352c-0.033-0.133-0.033-0.283,0-0.449C70.05,163.292,70.167,163.192,70.3,163.157z M72,153.759
					c-1.167-0.566-2.267-0.9-3.3-1c0.1,1.066,0.433,2.166,1,3.299c0.6,1.1,1.383,2.135,2.35,3.1c1.066,1.102,2.233,1.934,3.5,2.5
					l0.55-0.648l-2.35-2.301c-0.233-0.301-0.233-0.6,0-0.9c0.133-0.1,0.283-0.15,0.45-0.15c0.166,0,0.316,0.051,0.449,0.15
					l2.301,2.35l0.649-0.6c-0.566-1.232-1.399-2.383-2.5-3.449C74.133,155.142,73.1,154.358,72,153.759z M92.95,182.759l-0.75,0.398
					l1.199,3c0.067,0.168,0.067,0.334,0,0.5c-0.066,0.135-0.183,0.234-0.35,0.301l-0.2,0.051c-0.267,0-0.467-0.135-0.6-0.4l-1.2-3
					l-0.85,0.25c0.066,1.434,0.383,2.834,0.949,4.199c0.533,1.268,1.2,2.385,2,3.35c0.801,1,1.667,1.734,2.601,2.201
					c0.333-1,0.45-2.133,0.35-3.4c-0.1-1.266-0.399-2.533-0.899-3.801C94.633,185.009,93.883,183.792,92.95,182.759z M87.85,184.308
					l-0.85,0.1v3.25c0,0.168-0.05,0.318-0.15,0.451c-0.133,0.1-0.283,0.15-0.45,0.15c-0.166,0-0.316-0.051-0.449-0.15
					c-0.134-0.133-0.2-0.283-0.2-0.451v-3.25l-0.851-0.1c-0.467,1.367-0.699,2.783-0.699,4.25c0,1.367,0.199,2.65,0.6,3.85
					c0.367,1.201,0.883,2.201,1.55,3l0.05,0.051v-0.051c0.667-0.799,1.2-1.799,1.601-3c0.366-1.199,0.55-2.482,0.55-3.85
					C88.55,187.091,88.316,185.675,87.85,184.308z M99.75,174.509l-0.25,0.799l3,1.301c0.333,0.166,0.433,0.434,0.3,0.799
					c-0.1,0.234-0.3,0.352-0.6,0.352l-0.2-0.051l-3-1.25l-0.4,0.75c1.033,0.934,2.233,1.699,3.601,2.301
					c1.232,0.533,2.5,0.865,3.8,1c1.267,0.133,2.399,0.033,3.399-0.301c-0.467-0.934-1.183-1.816-2.149-2.65
					c-0.967-0.832-2.083-1.516-3.351-2.049C102.533,174.942,101.149,174.608,99.75,174.509z M108.399,168.858
					c-1.232-0.4-2.533-0.6-3.899-0.6c-1.533,0-2.934,0.232-4.2,0.699l0.05,0.9h3.25c0.167,0,0.317,0.049,0.45,0.15
					c0.1,0.133,0.15,0.283,0.15,0.449s-0.051,0.301-0.15,0.4c-0.133,0.133-0.283,0.199-0.45,0.199h-3.25l-0.05,0.85
					c1.267,0.467,2.667,0.701,4.2,0.701c1.366,0,2.667-0.184,3.899-0.551c1.167-0.4,2.167-0.934,3-1.6
					C110.566,169.759,109.566,169.226,108.399,168.858z M102.1,163.407c0.167-0.066,0.333-0.066,0.5,0
					c0.134,0.102,0.233,0.217,0.3,0.352c0.067,0.166,0.067,0.332,0,0.5c-0.066,0.133-0.166,0.232-0.3,0.299l-3.05,1.201l0.25,0.85
					c1.367-0.066,2.767-0.383,4.2-0.951c1.267-0.5,2.383-1.166,3.35-2c0.967-0.799,1.7-1.666,2.2-2.6c-1-0.332-2.133-0.449-3.4-0.35
					c-1.267,0.1-2.533,0.416-3.8,0.949c-1.399,0.568-2.6,1.301-3.6,2.201l0.35,0.75L102.1,163.407z"/>
				<path fill-rule="evenodd" clip-rule="evenodd" fill="#FFD120" d="M77,147.259c0.933,0.5,1.816,1.232,2.649,2.199
					c0.801,0.967,1.467,2.084,2,3.35c0.533,1.4,0.834,2.801,0.9,4.201l-0.85,0.25l-1.2-3c-0.067-0.168-0.167-0.283-0.3-0.352
					c-0.167-0.066-0.334-0.066-0.5,0c-0.134,0.068-0.25,0.168-0.351,0.301c-0.033,0.166-0.033,0.334,0,0.5l1.25,3l-0.8,0.4
					c-0.934-1.033-1.667-2.25-2.2-3.65c-0.533-1.266-0.833-2.533-0.899-3.801C76.6,149.392,76.7,148.259,77,147.259z M88,148.458
					c0.366,1.199,0.55,2.484,0.55,3.85c0,1.467-0.233,2.885-0.7,4.25c-0.366-0.033-0.649-0.049-0.85-0.049v-3.301
					c0-0.166-0.05-0.301-0.15-0.4c-0.133-0.133-0.283-0.199-0.45-0.199c-0.166,0-0.316,0.066-0.449,0.199
					c-0.134,0.1-0.2,0.234-0.2,0.4v3.301c-0.2,0-0.483,0.016-0.851,0.049c-0.467-1.365-0.699-2.783-0.699-4.25
					c0-1.365,0.199-2.65,0.6-3.85c0.367-1.199,0.9-2.199,1.6-3C87.066,146.259,87.6,147.259,88,148.458z M96.149,147.407
					c0.334,1.035,0.434,2.184,0.301,3.451c-0.134,1.266-0.45,2.516-0.95,3.75c-0.601,1.4-1.367,2.6-2.3,3.6l-0.801-0.4l1.301-2.949
					c0.033-0.166,0.033-0.334,0-0.5c-0.067-0.133-0.184-0.25-0.351-0.35c-0.133-0.066-0.283-0.066-0.45,0
					c-0.166,0.066-0.283,0.184-0.35,0.35l-1.25,3l-0.85-0.301c0.1-1.4,0.433-2.783,1-4.15c0.533-1.266,1.217-2.383,2.05-3.35
					C94.333,148.624,95.217,147.907,96.149,147.407z M96.7,161.009l2.3-2.301c0.267-0.301,0.267-0.6,0-0.9
					c-0.134-0.1-0.283-0.15-0.45-0.15s-0.3,0.051-0.4,0.15l-2.35,2.35c-0.033-0.066-0.25-0.266-0.65-0.6
					c0.567-1.232,1.4-2.383,2.5-3.449c0.967-0.967,2.018-1.75,3.15-2.35c1.133-0.566,2.217-0.9,3.25-1
					c-0.066,1.066-0.4,2.166-1,3.299c-0.566,1.1-1.333,2.135-2.3,3.1c-1.067,1.102-2.233,1.934-3.5,2.5L96.7,161.009z M72,153.759
					c1.1,0.6,2.133,1.383,3.1,2.35c1.101,1.066,1.934,2.217,2.5,3.449l-0.649,0.6l-2.301-2.35c-0.133-0.1-0.283-0.15-0.449-0.15
					c-0.167,0-0.317,0.051-0.45,0.15c-0.233,0.301-0.233,0.6,0,0.9l2.35,2.301l-0.55,0.648c-1.267-0.566-2.434-1.398-3.5-2.5
					c-0.967-0.965-1.75-2-2.35-3.1c-0.567-1.133-0.9-2.232-1-3.299C69.733,152.858,70.833,153.192,72,153.759z M70.3,163.157
					c-0.133,0.035-0.25,0.135-0.35,0.301c-0.033,0.166-0.033,0.316,0,0.449c0.1,0.168,0.217,0.285,0.35,0.352l3,1.299l-0.3,0.801
					c-1.4-0.1-2.783-0.434-4.15-1c-1.267-0.533-2.366-1.217-3.3-2.051c-0.967-0.799-1.684-1.684-2.15-2.65
					c0.967-0.332,2.101-0.432,3.4-0.299c1.267,0.133,2.533,0.467,3.8,1c1.367,0.6,2.567,1.367,3.601,2.299l-0.45,0.801l-2.95-1.301
					C70.633,163.091,70.467,163.091,70.3,163.157z M64.45,168.858c1.199-0.4,2.483-0.6,3.85-0.6c1.533,0,2.934,0.232,4.2,0.699
					l-0.05,0.9H69.2c-0.167,0-0.317,0.049-0.45,0.15c-0.134,0.133-0.2,0.283-0.2,0.449s0.066,0.301,0.2,0.4
					c0.133,0.133,0.283,0.199,0.45,0.199h3.25l0.05,0.85c-1.3,0.467-2.7,0.701-4.2,0.701c-1.366,0-2.65-0.184-3.85-0.551
					c-1.233-0.4-2.25-0.934-3.051-1.6C62.2,169.759,63.217,169.226,64.45,168.858z M72.95,174.259l0.25,0.85l-3,1.199
					c-0.167,0.066-0.283,0.168-0.351,0.301c-0.066,0.199-0.066,0.367,0,0.5c0.101,0.266,0.283,0.4,0.55,0.4l0.25-0.051l3.051-1.199
					l0.35,0.75c-1,0.898-2.217,1.648-3.65,2.25c-1.267,0.5-2.533,0.799-3.8,0.898c-1.267,0.102-2.399-0.016-3.399-0.35
					c0.533-0.934,1.283-1.799,2.25-2.6c0.966-0.834,2.083-1.5,3.35-2C70.133,174.675,71.517,174.358,72.95,174.259z M76.1,179.858
					l-2.35,2.299c-0.101,0.135-0.15,0.285-0.15,0.451s0.05,0.316,0.15,0.449c0.167,0.135,0.316,0.201,0.45,0.201
					c0.166,0,0.316-0.066,0.449-0.201l2.301-2.299l0.649,0.549c-0.566,1.234-1.399,2.385-2.5,3.451
					c-0.933,0.967-1.967,1.75-3.1,2.35c-1.134,0.566-2.233,0.9-3.3,1c0.1-1.033,0.433-2.133,1-3.301c0.6-1.1,1.383-2.133,2.35-3.1
					c1.066-1.066,2.233-1.9,3.5-2.5L76.1,179.858z M76.35,190.058c0.101-1.299,0.417-2.566,0.95-3.799
					c0.6-1.367,1.367-2.566,2.3-3.602l0.75,0.4l-1.25,3c-0.066,0.168-0.066,0.316,0,0.451c0.067,0.133,0.167,0.25,0.3,0.35
					l0.25,0.049c0.268,0,0.467-0.115,0.601-0.35l1.25-3.049l0.85,0.299c-0.1,1.4-0.45,2.783-1.05,4.15
					c-0.5,1.268-1.167,2.383-2,3.35c-0.833,0.934-1.733,1.65-2.7,2.15C76.3,192.458,76.217,191.325,76.35,190.058z M97.25,179.208
					c1.267,0.6,2.433,1.434,3.5,2.5c0.967,0.967,1.733,2,2.3,3.1c0.6,1.168,0.934,2.268,1,3.301c-1.033-0.1-2.117-0.434-3.25-1
					c-1.133-0.6-2.184-1.383-3.15-2.35c-1.1-1.066-1.933-2.217-2.5-3.451l0.65-0.549l2.35,2.299c0.134,0.135,0.268,0.201,0.4,0.201
					s0.283-0.066,0.45-0.201c0.1-0.133,0.149-0.283,0.149-0.449s-0.05-0.316-0.149-0.451l-2.3-2.299L97.25,179.208z M92.95,182.759
					c0.933,1.033,1.683,2.25,2.25,3.648c0.5,1.268,0.8,2.535,0.899,3.801c0.101,1.268-0.017,2.4-0.35,3.4
					c-0.934-0.467-1.8-1.201-2.601-2.201c-0.8-0.965-1.467-2.082-2-3.35c-0.566-1.365-0.883-2.766-0.949-4.199l0.85-0.25l1.2,3
					c0.133,0.266,0.333,0.4,0.6,0.4l0.2-0.051c0.167-0.066,0.283-0.166,0.35-0.301c0.067-0.166,0.067-0.332,0-0.5l-1.199-3
					L92.95,182.759z M87.85,184.308c0.467,1.367,0.7,2.783,0.7,4.25c0,1.367-0.184,2.65-0.55,3.85c-0.4,1.201-0.934,2.201-1.601,3
					v0.051l-0.05-0.051c-0.667-0.799-1.183-1.799-1.55-3c-0.4-1.199-0.6-2.482-0.6-3.85c0-1.467,0.232-2.883,0.699-4.25l0.851,0.1
					v3.25c0,0.168,0.066,0.318,0.2,0.451c0.133,0.1,0.283,0.15,0.449,0.15c0.167,0,0.317-0.051,0.45-0.15
					c0.101-0.133,0.15-0.283,0.15-0.451v-3.25L87.85,184.308z M102.1,163.407l-3,1.201l-0.35-0.75c1-0.9,2.2-1.633,3.6-2.201
					c1.267-0.533,2.533-0.85,3.8-0.949c1.268-0.1,2.4,0.018,3.4,0.35c-0.5,0.934-1.233,1.801-2.2,2.6c-0.967,0.834-2.083,1.5-3.35,2
					c-1.434,0.568-2.833,0.885-4.2,0.951l-0.25-0.85l3.05-1.201c0.134-0.066,0.233-0.166,0.3-0.299c0.067-0.168,0.067-0.334,0-0.5
					c-0.066-0.135-0.166-0.25-0.3-0.352C102.433,163.341,102.267,163.341,102.1,163.407z M108.399,168.858
					c1.167,0.367,2.167,0.9,3,1.6c-0.833,0.666-1.833,1.199-3,1.6c-1.232,0.367-2.533,0.551-3.899,0.551
					c-1.533,0-2.934-0.234-4.2-0.701l0.05-0.85h3.25c0.167,0,0.317-0.066,0.45-0.199c0.1-0.1,0.15-0.234,0.15-0.4
					s-0.051-0.316-0.15-0.449c-0.133-0.102-0.283-0.15-0.45-0.15h-3.25l-0.05-0.9c1.267-0.467,2.667-0.699,4.2-0.699
					C105.866,168.259,107.167,168.458,108.399,168.858z M99.75,174.509c1.399,0.1,2.783,0.434,4.149,1
					c1.268,0.533,2.384,1.217,3.351,2.049c0.967,0.834,1.683,1.717,2.149,2.65c-1,0.334-2.133,0.434-3.399,0.301
					c-1.3-0.135-2.567-0.467-3.8-1c-1.367-0.602-2.567-1.367-3.601-2.301l0.4-0.75l3,1.25l0.2,0.051c0.3,0,0.5-0.117,0.6-0.352
					c0.133-0.365,0.033-0.633-0.3-0.799l-3-1.301L99.75,174.509z"/>
				<path fill-rule="evenodd" clip-rule="evenodd" fill="#DAA00F" d="M88.35,158.608c2.533,0.434,4.7,1.549,6.5,3.35
					c1.833,1.834,2.95,4,3.351,6.5v0.051c0.133,0.633,0.199,1.283,0.199,1.949c0,0.633-0.066,1.268-0.199,1.9v0.049
					c-0.4,2.535-1.518,4.701-3.351,6.5c-1.8,1.834-3.967,2.951-6.5,3.352l-0.05,0.049c-1.267,0.201-2.55,0.201-3.85,0l-0.051-0.049
					c-2.5-0.434-4.666-1.551-6.5-3.352c-1.833-1.799-2.949-3.965-3.35-6.5v-0.049c-0.1-0.633-0.15-1.268-0.15-1.9
					c0-0.666,0.051-1.316,0.15-1.949v-0.051c0.434-2.5,1.55-4.666,3.35-6.5c1.801-1.801,3.967-2.916,6.5-3.35h0.051
					c1.3-0.234,2.583-0.234,3.85,0H88.35z M89.05,162.608l-0.15,0.35c-0.066,0.133-0.066,0.283,0,0.449
					c0.067,0.168,0.184,0.285,0.351,0.352c0.033,0.033,0.1,0.049,0.2,0.049c0.3,0,0.5-0.133,0.6-0.4l0.15-0.35
					c0.066-0.133,0.066-0.283,0-0.449c-0.067-0.166-0.184-0.283-0.351-0.35c-0.133-0.066-0.283-0.066-0.45,0
					C89.233,162.325,89.116,162.442,89.05,162.608z M92.649,175.858l-0.25-0.301c-0.133-0.1-0.283-0.15-0.449-0.15
					c-0.167,0-0.301,0.051-0.4,0.15c-0.133,0.135-0.2,0.283-0.2,0.451c0,0.166,0.067,0.316,0.2,0.449l0.25,0.25
					c0.133,0.133,0.283,0.199,0.45,0.199s0.3-0.066,0.399-0.199c0.134-0.133,0.2-0.266,0.2-0.4
					C92.85,176.142,92.783,175.991,92.649,175.858z M93.05,173.259c-0.066,0.166-0.066,0.332,0,0.5c0.1,0.133,0.217,0.25,0.35,0.35
					l0.601,0.15c0.267,0,0.45-0.117,0.55-0.352c0.167-0.365,0.066-0.633-0.3-0.799l-0.351-0.15c-0.166-0.066-0.333-0.066-0.5,0
					C93.267,173.024,93.149,173.124,93.05,173.259z M89.6,172.759c-0.133-0.135-0.283-0.201-0.45-0.201
					c-0.166,0-0.316,0.066-0.449,0.201c-0.134,0.133-0.2,0.283-0.2,0.449s0.066,0.301,0.2,0.4l0.149,0.15
					c0.101,0.1,0.233,0.148,0.4,0.148s0.316-0.049,0.45-0.148c0.133-0.135,0.199-0.283,0.199-0.451c0-0.166-0.066-0.299-0.199-0.4
					L89.6,172.759z M90.45,169.858H90.3c-0.167,0-0.316,0.049-0.45,0.15c-0.133,0.133-0.2,0.283-0.2,0.449s0.067,0.301,0.2,0.4
					c0.134,0.133,0.283,0.199,0.45,0.199h0.15c0.166,0,0.316-0.066,0.449-0.199c0.101-0.1,0.15-0.234,0.15-0.4
					s-0.05-0.316-0.15-0.449C90.767,169.907,90.616,169.858,90.45,169.858z M89.7,168.009c0.133-0.135,0.199-0.283,0.199-0.451
					c0-0.166-0.066-0.316-0.199-0.449c-0.134-0.1-0.283-0.15-0.45-0.15s-0.3,0.051-0.4,0.15l-0.149,0.15
					c-0.134,0.133-0.2,0.283-0.2,0.449c0,0.133,0.066,0.268,0.2,0.4c0.133,0.133,0.283,0.199,0.449,0.199
					c0.167,0,0.317-0.066,0.45-0.199L89.7,168.009z M92.649,164.157c-0.1-0.1-0.232-0.148-0.399-0.148s-0.317,0.049-0.45,0.148
					l-0.25,0.301c-0.133,0.1-0.2,0.234-0.2,0.4s0.067,0.316,0.2,0.449c0.1,0.1,0.233,0.15,0.4,0.15c0.166,0,0.316-0.051,0.449-0.15
					l0.25-0.299c0.134-0.102,0.2-0.234,0.2-0.4S92.783,164.292,92.649,164.157z M94.649,169.858H94.3
					c-0.167,0-0.316,0.049-0.45,0.15c-0.133,0.133-0.2,0.283-0.2,0.449s0.067,0.301,0.2,0.4c0.134,0.133,0.283,0.199,0.45,0.199
					h0.35c0.4,0,0.601-0.199,0.601-0.6c0-0.166-0.05-0.316-0.15-0.449C94.967,169.907,94.816,169.858,94.649,169.858z M93.7,168.108
					l0.199-0.051l0.4-0.15c0.133-0.066,0.233-0.166,0.3-0.299c0.101-0.166,0.101-0.334,0-0.5c-0.033-0.133-0.133-0.234-0.3-0.301
					c-0.167-0.1-0.316-0.1-0.45,0l-0.399,0.1c-0.134,0.068-0.233,0.168-0.301,0.301c-0.1,0.199-0.1,0.367,0,0.5
					C93.217,167.976,93.399,168.108,93.7,168.108z M87,174.509v-0.201c0-0.166-0.05-0.299-0.15-0.4
					c-0.133-0.133-0.283-0.199-0.45-0.199c-0.166,0-0.316,0.066-0.449,0.199c-0.134,0.102-0.2,0.234-0.2,0.4v0.201
					c0,0.166,0.066,0.316,0.2,0.449c0.133,0.1,0.283,0.15,0.449,0.15c0.167,0,0.317-0.051,0.45-0.15
					C86.95,174.825,87,174.675,87,174.509z M82.899,173.308c0,0.168,0.067,0.316,0.2,0.451c0.101,0.1,0.233,0.148,0.4,0.148
					s0.316-0.049,0.45-0.148l0.1-0.15c0.133-0.1,0.2-0.234,0.2-0.4s-0.067-0.316-0.2-0.449c-0.1-0.135-0.233-0.201-0.4-0.201
					c-0.166,0-0.316,0.066-0.449,0.201l-0.101,0.148C82.967,173.009,82.899,173.142,82.899,173.308z M80.35,175.558l-0.25,0.301
					c-0.1,0.133-0.149,0.283-0.149,0.449c0,0.135,0.05,0.268,0.149,0.4c0.134,0.133,0.283,0.199,0.45,0.199s0.316-0.066,0.45-0.199
					l0.25-0.25c0.133-0.133,0.2-0.283,0.2-0.449c0-0.168-0.067-0.316-0.2-0.451c-0.134-0.1-0.283-0.15-0.45-0.15
					S80.483,175.458,80.35,175.558z M78.85,172.808l-0.35,0.15c-0.167,0.066-0.283,0.184-0.351,0.35
					c-0.066,0.135-0.066,0.283,0,0.451c0.101,0.266,0.283,0.398,0.551,0.398c0.133,0,0.217-0.016,0.25-0.049l0.35-0.15
					c0.167-0.066,0.283-0.166,0.35-0.301c0.067-0.166,0.067-0.332,0-0.5c-0.066-0.133-0.166-0.25-0.3-0.35
					C79.183,172.741,79.017,172.741,78.85,172.808z M82.5,169.858h-0.2c-0.167,0-0.3,0.049-0.4,0.15
					c-0.133,0.133-0.199,0.283-0.199,0.449s0.066,0.301,0.199,0.4c0.101,0.133,0.233,0.199,0.4,0.199h0.2
					c0.167,0,0.316-0.066,0.45-0.199c0.1-0.1,0.149-0.234,0.149-0.4s-0.05-0.316-0.149-0.449
					C82.816,169.907,82.667,169.858,82.5,169.858z M78.5,169.858h-0.351c-0.166,0-0.316,0.049-0.449,0.15
					c-0.134,0.133-0.2,0.283-0.2,0.449s0.066,0.301,0.2,0.4c0.133,0.133,0.283,0.199,0.449,0.199H78.5
					c0.167,0,0.316-0.066,0.45-0.199c0.1-0.1,0.149-0.234,0.149-0.4s-0.05-0.316-0.149-0.449
					C78.816,169.907,78.667,169.858,78.5,169.858z M79.05,166.657c-0.167-0.1-0.333-0.1-0.5,0c-0.133,0.068-0.25,0.168-0.35,0.301
					c-0.067,0.166-0.067,0.334,0,0.5c0.066,0.133,0.183,0.234,0.35,0.301l0.35,0.148l0.25,0.051c0.268,0,0.45-0.117,0.551-0.35
					c0.066-0.166,0.066-0.334,0-0.5c-0.067-0.133-0.184-0.234-0.351-0.301L79.05,166.657z M81.45,164.858
					c0-0.166-0.067-0.301-0.2-0.4L81,164.157c-0.134-0.1-0.283-0.148-0.45-0.148s-0.316,0.049-0.45,0.148
					c-0.1,0.135-0.149,0.285-0.149,0.451s0.05,0.299,0.149,0.4l0.25,0.299c0.167,0.1,0.317,0.15,0.45,0.15
					c0.167,0,0.316-0.051,0.45-0.15C81.383,165.175,81.45,165.024,81.45,164.858z M86.45,169.858H86.3c-0.167,0-0.3,0.049-0.4,0.15
					c-0.133,0.133-0.199,0.283-0.199,0.449s0.066,0.301,0.199,0.4c0.101,0.133,0.233,0.199,0.4,0.199h0.15
					c0.166,0,0.316-0.066,0.449-0.199c0.134-0.1,0.2-0.234,0.2-0.4s-0.066-0.316-0.2-0.449
					C86.767,169.907,86.616,169.858,86.45,169.858z M83.649,168.308c0.167,0,0.301-0.066,0.4-0.199c0.133-0.133,0.2-0.268,0.2-0.4
					c0-0.166-0.067-0.316-0.2-0.449l-0.1-0.15c-0.134-0.1-0.283-0.15-0.45-0.15s-0.3,0.051-0.4,0.15
					c-0.133,0.133-0.2,0.283-0.2,0.449c0,0.168,0.067,0.316,0.2,0.451l0.101,0.1C83.333,168.241,83.483,168.308,83.649,168.308z
					 M85.75,166.358v0.199c0,0.168,0.066,0.316,0.2,0.451c0.133,0.1,0.283,0.148,0.449,0.148c0.167,0,0.317-0.049,0.45-0.148
					c0.101-0.135,0.15-0.283,0.15-0.451v-0.199c0-0.166-0.05-0.301-0.15-0.4c-0.133-0.133-0.283-0.199-0.45-0.199
					c-0.166,0-0.316,0.066-0.449,0.199C85.816,166.058,85.75,166.192,85.75,166.358z M86.85,161.759
					c-0.133-0.135-0.283-0.201-0.45-0.201c-0.166,0-0.316,0.066-0.449,0.201c-0.134,0.1-0.2,0.232-0.2,0.398v0.4
					c0,0.168,0.066,0.316,0.2,0.451c0.133,0.1,0.283,0.148,0.449,0.148c0.167,0,0.317-0.049,0.45-0.148
					c0.101-0.135,0.15-0.283,0.15-0.451v-0.4C87,161.991,86.95,161.858,86.85,161.759z M82.7,162.509
					c-0.033,0.199-0.033,0.365,0,0.5l0.149,0.35c0.134,0.266,0.333,0.4,0.601,0.4l0.199-0.051c0.167-0.066,0.283-0.184,0.351-0.35
					c0.066-0.166,0.066-0.316,0-0.451l-0.15-0.398c-0.066-0.135-0.167-0.234-0.3-0.301c-0.167-0.066-0.333-0.066-0.5,0
					C82.917,162.274,82.8,162.374,82.7,162.509z M89.899,177.509c-0.133-0.367-0.399-0.484-0.8-0.352
					c-0.133,0.068-0.25,0.184-0.35,0.352c-0.033,0.166-0.033,0.316,0,0.449l0.149,0.4c0.134,0.232,0.334,0.35,0.601,0.35l0.2-0.051
					c0.366-0.166,0.482-0.432,0.35-0.799L89.899,177.509z M83.149,178.657c0.268,0,0.467-0.115,0.601-0.35l0.1-0.4
					c0.101-0.133,0.117-0.283,0.05-0.449c-0.066-0.166-0.183-0.266-0.35-0.301c-0.167-0.1-0.316-0.1-0.45,0
					c-0.167,0.035-0.283,0.135-0.35,0.301l-0.15,0.35c-0.066,0.135-0.066,0.301,0,0.5c0.067,0.135,0.167,0.234,0.3,0.301
					L83.149,178.657z M85.95,177.907c-0.134,0.102-0.2,0.234-0.2,0.4v0.4c0,0.166,0.066,0.316,0.2,0.449
					c0.133,0.102,0.283,0.15,0.449,0.15c0.167,0,0.317-0.049,0.45-0.15c0.101-0.133,0.15-0.283,0.15-0.449v-0.4
					c0-0.166-0.05-0.299-0.15-0.4c-0.133-0.133-0.283-0.199-0.45-0.199C86.233,177.708,86.083,177.774,85.95,177.907z"/>
				<path fill-rule="evenodd" clip-rule="evenodd" fill="#1E1E1C" d="M89.05,162.608c0.066-0.166,0.184-0.283,0.35-0.35
					c0.167-0.066,0.317-0.066,0.45,0c0.167,0.066,0.283,0.184,0.351,0.35c0.066,0.166,0.066,0.316,0,0.449l-0.15,0.35
					c-0.1,0.268-0.3,0.4-0.6,0.4c-0.101,0-0.167-0.016-0.2-0.049c-0.167-0.066-0.283-0.184-0.351-0.352
					c-0.066-0.166-0.066-0.316,0-0.449L89.05,162.608z M82.7,162.509c0.1-0.135,0.217-0.234,0.35-0.301
					c0.167-0.066,0.333-0.066,0.5,0c0.133,0.066,0.233,0.166,0.3,0.301l0.15,0.398c0.066,0.135,0.066,0.285,0,0.451
					c-0.067,0.166-0.184,0.283-0.351,0.35l-0.199,0.051c-0.268,0-0.467-0.135-0.601-0.4l-0.149-0.35
					C82.667,162.874,82.667,162.708,82.7,162.509z M86.85,161.759c0.101,0.1,0.15,0.232,0.15,0.398v0.4
					c0,0.168-0.05,0.316-0.15,0.451c-0.133,0.1-0.283,0.148-0.45,0.148c-0.166,0-0.316-0.049-0.449-0.148
					c-0.134-0.135-0.2-0.283-0.2-0.451v-0.4c0-0.166,0.066-0.299,0.2-0.398c0.133-0.135,0.283-0.201,0.449-0.201
					C86.566,161.558,86.717,161.624,86.85,161.759z M85.75,166.358c0-0.166,0.066-0.301,0.2-0.4
					c0.133-0.133,0.283-0.199,0.449-0.199c0.167,0,0.317,0.066,0.45,0.199c0.101,0.1,0.15,0.234,0.15,0.4v0.199
					c0,0.168-0.05,0.316-0.15,0.451c-0.133,0.1-0.283,0.148-0.45,0.148c-0.166,0-0.316-0.049-0.449-0.148
					c-0.134-0.135-0.2-0.283-0.2-0.451V166.358z M83.649,168.308c-0.166,0-0.316-0.066-0.449-0.199l-0.101-0.1
					c-0.133-0.135-0.2-0.283-0.2-0.451c0-0.166,0.067-0.316,0.2-0.449c0.101-0.1,0.233-0.15,0.4-0.15s0.316,0.051,0.45,0.15
					l0.1,0.15c0.133,0.133,0.2,0.283,0.2,0.449c0,0.133-0.067,0.268-0.2,0.4C83.95,168.241,83.816,168.308,83.649,168.308z
					 M86.45,169.858c0.166,0,0.316,0.049,0.449,0.15c0.134,0.133,0.2,0.283,0.2,0.449s-0.066,0.301-0.2,0.4
					c-0.133,0.133-0.283,0.199-0.449,0.199H86.3c-0.167,0-0.3-0.066-0.4-0.199c-0.133-0.1-0.199-0.234-0.199-0.4
					s0.066-0.316,0.199-0.449c0.101-0.102,0.233-0.15,0.4-0.15H86.45z M81.45,164.858c0,0.166-0.067,0.316-0.2,0.449
					c-0.134,0.1-0.283,0.15-0.45,0.15c-0.133,0-0.283-0.051-0.45-0.15l-0.25-0.299c-0.1-0.102-0.149-0.234-0.149-0.4
					s0.05-0.316,0.149-0.451c0.134-0.1,0.283-0.148,0.45-0.148s0.316,0.049,0.45,0.148l0.25,0.301
					C81.383,164.558,81.45,164.692,81.45,164.858z M79.05,166.657l0.3,0.15c0.167,0.066,0.283,0.168,0.351,0.301
					c0.066,0.166,0.066,0.334,0,0.5c-0.101,0.232-0.283,0.35-0.551,0.35l-0.25-0.051l-0.35-0.148
					c-0.167-0.066-0.283-0.168-0.35-0.301c-0.067-0.166-0.067-0.334,0-0.5c0.1-0.133,0.217-0.232,0.35-0.301
					C78.717,166.558,78.883,166.558,79.05,166.657z M78.5,169.858c0.167,0,0.316,0.049,0.45,0.15c0.1,0.133,0.149,0.283,0.149,0.449
					s-0.05,0.301-0.149,0.4c-0.134,0.133-0.283,0.199-0.45,0.199h-0.351c-0.166,0-0.316-0.066-0.449-0.199
					c-0.134-0.1-0.2-0.234-0.2-0.4s0.066-0.316,0.2-0.449c0.133-0.102,0.283-0.15,0.449-0.15H78.5z M82.5,169.858
					c0.167,0,0.316,0.049,0.45,0.15c0.1,0.133,0.149,0.283,0.149,0.449s-0.05,0.301-0.149,0.4c-0.134,0.133-0.283,0.199-0.45,0.199
					h-0.2c-0.167,0-0.3-0.066-0.4-0.199c-0.133-0.1-0.199-0.234-0.199-0.4s0.066-0.316,0.199-0.449c0.101-0.102,0.233-0.15,0.4-0.15
					H82.5z M78.85,172.808c0.167-0.066,0.333-0.066,0.5,0c0.134,0.1,0.233,0.217,0.3,0.35c0.067,0.168,0.067,0.334,0,0.5
					c-0.066,0.135-0.183,0.234-0.35,0.301l-0.35,0.15c-0.033,0.033-0.117,0.049-0.25,0.049c-0.268,0-0.45-0.133-0.551-0.398
					c-0.066-0.168-0.066-0.316,0-0.451c0.067-0.166,0.184-0.283,0.351-0.35L78.85,172.808z M80.35,175.558
					c0.134-0.1,0.283-0.15,0.45-0.15s0.316,0.051,0.45,0.15c0.133,0.135,0.2,0.283,0.2,0.451c0,0.166-0.067,0.316-0.2,0.449
					l-0.25,0.25c-0.134,0.133-0.283,0.199-0.45,0.199s-0.316-0.066-0.45-0.199c-0.1-0.133-0.149-0.266-0.149-0.4
					c0-0.166,0.05-0.316,0.149-0.449L80.35,175.558z M82.899,173.308c0-0.166,0.067-0.299,0.2-0.4l0.101-0.148
					c0.133-0.135,0.283-0.201,0.449-0.201c0.167,0,0.301,0.066,0.4,0.201c0.133,0.133,0.2,0.283,0.2,0.449s-0.067,0.301-0.2,0.4
					l-0.1,0.15c-0.134,0.1-0.283,0.148-0.45,0.148s-0.3-0.049-0.4-0.148C82.967,173.624,82.899,173.476,82.899,173.308z M87,174.509
					c0,0.166-0.05,0.316-0.15,0.449c-0.133,0.1-0.283,0.15-0.45,0.15c-0.166,0-0.316-0.051-0.449-0.15
					c-0.134-0.133-0.2-0.283-0.2-0.449v-0.201c0-0.166,0.066-0.299,0.2-0.4c0.133-0.133,0.283-0.199,0.449-0.199
					c0.167,0,0.317,0.066,0.45,0.199c0.101,0.102,0.15,0.234,0.15,0.4V174.509z M93.7,168.108c-0.301,0-0.483-0.133-0.551-0.4
					c-0.1-0.133-0.1-0.301,0-0.5c0.067-0.133,0.167-0.232,0.301-0.301l0.399-0.1c0.134-0.1,0.283-0.1,0.45,0
					c0.167,0.066,0.267,0.168,0.3,0.301c0.101,0.166,0.101,0.334,0,0.5c-0.066,0.133-0.167,0.232-0.3,0.299l-0.4,0.15L93.7,168.108z
					 M94.649,169.858c0.167,0,0.317,0.049,0.45,0.15c0.101,0.133,0.15,0.283,0.15,0.449c0,0.4-0.2,0.6-0.601,0.6H94.3
					c-0.167,0-0.316-0.066-0.45-0.199c-0.133-0.1-0.2-0.234-0.2-0.4s0.067-0.316,0.2-0.449c0.134-0.102,0.283-0.15,0.45-0.15H94.649
					z M92.649,164.157c0.134,0.135,0.2,0.285,0.2,0.451s-0.066,0.299-0.2,0.4l-0.25,0.299c-0.133,0.1-0.283,0.15-0.449,0.15
					c-0.167,0-0.301-0.051-0.4-0.15c-0.133-0.133-0.2-0.283-0.2-0.449s0.067-0.301,0.2-0.4l0.25-0.301
					c0.133-0.1,0.283-0.148,0.45-0.148S92.55,164.058,92.649,164.157z M89.7,168.009l-0.101,0.1
					c-0.133,0.133-0.283,0.199-0.45,0.199c-0.166,0-0.316-0.066-0.449-0.199c-0.134-0.133-0.2-0.268-0.2-0.4
					c0-0.166,0.066-0.316,0.2-0.449l0.149-0.15c0.101-0.1,0.233-0.15,0.4-0.15s0.316,0.051,0.45,0.15
					c0.133,0.133,0.199,0.283,0.199,0.449C89.899,167.726,89.833,167.874,89.7,168.009z M90.45,169.858
					c0.166,0,0.316,0.049,0.449,0.15c0.101,0.133,0.15,0.283,0.15,0.449s-0.05,0.301-0.15,0.4c-0.133,0.133-0.283,0.199-0.449,0.199
					H90.3c-0.167,0-0.316-0.066-0.45-0.199c-0.133-0.1-0.2-0.234-0.2-0.4s0.067-0.316,0.2-0.449c0.134-0.102,0.283-0.15,0.45-0.15
					H90.45z M89.6,172.759l0.101,0.148c0.133,0.102,0.199,0.234,0.199,0.4c0,0.168-0.066,0.316-0.199,0.451
					c-0.134,0.1-0.283,0.148-0.45,0.148s-0.3-0.049-0.4-0.148l-0.149-0.15c-0.134-0.1-0.2-0.234-0.2-0.4s0.066-0.316,0.2-0.449
					c0.133-0.135,0.283-0.201,0.449-0.201C89.316,172.558,89.467,172.624,89.6,172.759z M93.05,173.259
					c0.1-0.135,0.217-0.234,0.35-0.301c0.167-0.066,0.334-0.066,0.5,0l0.351,0.15c0.366,0.166,0.467,0.434,0.3,0.799
					c-0.1,0.234-0.283,0.352-0.55,0.352l-0.601-0.15c-0.133-0.1-0.25-0.217-0.35-0.35C92.983,173.591,92.983,173.425,93.05,173.259z
					 M92.649,175.858c0.134,0.133,0.2,0.283,0.2,0.449c0,0.135-0.066,0.268-0.2,0.4c-0.1,0.133-0.232,0.199-0.399,0.199
					s-0.317-0.066-0.45-0.199l-0.25-0.25c-0.133-0.133-0.2-0.283-0.2-0.449c0-0.168,0.067-0.316,0.2-0.451
					c0.1-0.1,0.233-0.15,0.4-0.15c0.166,0,0.316,0.051,0.449,0.15L92.649,175.858z M89.899,177.509l0.15,0.35
					c0.133,0.367,0.017,0.633-0.35,0.799l-0.2,0.051c-0.267,0-0.467-0.117-0.601-0.35l-0.149-0.4c-0.033-0.133-0.033-0.283,0-0.449
					c0.1-0.168,0.217-0.283,0.35-0.352C89.5,177.024,89.767,177.142,89.899,177.509z M85.95,177.907
					c0.133-0.133,0.283-0.199,0.449-0.199c0.167,0,0.317,0.066,0.45,0.199c0.101,0.102,0.15,0.234,0.15,0.4v0.4
					c0,0.166-0.05,0.316-0.15,0.449c-0.133,0.102-0.283,0.15-0.45,0.15c-0.166,0-0.316-0.049-0.449-0.15
					c-0.134-0.133-0.2-0.283-0.2-0.449v-0.4C85.75,178.142,85.816,178.009,85.95,177.907z M83.149,178.657l-0.25-0.049
					c-0.133-0.066-0.232-0.166-0.3-0.301c-0.066-0.199-0.066-0.365,0-0.5l0.15-0.35c0.066-0.166,0.183-0.266,0.35-0.301
					c0.134-0.1,0.283-0.1,0.45,0c0.167,0.035,0.283,0.135,0.35,0.301c0.067,0.166,0.051,0.316-0.05,0.449l-0.1,0.4
					C83.616,178.542,83.417,178.657,83.149,178.657z"/>
				<path fill-rule="evenodd" clip-rule="evenodd" fill="#868944" d="M88.05,196.558c-0.2,0.268-0.417,0.5-0.65,0.701v30.6
					c0,0.367-0.1,0.699-0.3,1c-0.2,0.299-0.433,0.449-0.7,0.449c-0.3,0-0.533-0.15-0.699-0.449c-0.2-0.301-0.301-0.633-0.301-1
					v-30.6c-0.166-0.168-0.35-0.367-0.55-0.602l1.4,1.4L88.05,196.558z"/>
			</g>
		</g>
	</g>
</g>
<g>
	<g>
		<g>
			<path fill-rule="evenodd" clip-rule="evenodd" fill="#3A3229" d="M33.649,54.358c-0.199,0.232-0.416,0.467-0.649,0.699v-0.1
				c-0.033-0.133-0.084-0.25-0.15-0.35c0.3-1.467,0.816-2.85,1.55-4.15c1.233-2.199,2.867-3.934,4.9-5.199l0.6-0.352
				c0.167-0.066,0.301-0.066,0.4,0l0.15,0.102c0.066,0.166,0.017,0.35-0.15,0.549c-0.667,0.734-1.134,1.816-1.4,3.25
				c-0.1,0.434-0.183,0.967-0.25,1.6c-0.066,0.768-0.066,1.418,0,1.951l0.25,2c-0.133,0.232-0.267,0.467-0.399,0.699l-0.3-0.199
				l-0.051-0.451c-0.233-1.033-0.333-2.1-0.3-3.199c0.066-1.666,0.367-3.232,0.9-4.699c-0.533,0.467-0.917,0.816-1.15,1.049
				c-0.434,0.434-0.816,0.85-1.149,1.25c-0.301,0.334-0.617,0.768-0.95,1.301c-0.367,0.533-0.684,1.1-0.95,1.699l-0.7,1.801
				C33.783,53.874,33.717,54.124,33.649,54.358z"/>
			<linearGradient id="SVGID_18_" gradientUnits="userSpaceOnUse" x1="35.7744" y1="58.0332" x2="43.4238" y2="58.0332">
				<stop  offset="0" style="stop-color:#E73F6D"/>
				<stop  offset="0.3412" style="stop-color:#BE3351"/>
				<stop  offset="1" style="stop-color:#6F1515"/>
			</linearGradient>
			<path fill-rule="evenodd" clip-rule="evenodd" fill="url(#SVGID_18_)" d="M38.899,54.358L39,54.808l0.3-0.25
				c0.333-0.199,0.667-0.299,1-0.299c0.267,0,0.5,0.049,0.7,0.148c0.733,0.268,1.316,0.717,1.75,1.352
				c0.434,0.666,0.649,1.398,0.649,2.199c0,1.066-0.366,1.984-1.1,2.75c-0.767,0.734-1.667,1.1-2.7,1.1
				c-0.866,0-1.633-0.25-2.3-0.75c-0.634-0.467-1.083-1.082-1.35-1.85c-0.134-0.4-0.2-0.816-0.2-1.25c0-0.4,0.066-0.801,0.2-1.199
				c0.133-0.434,0.333-0.816,0.6-1.15c0.333-0.467,0.816-0.701,1.45-0.701h0.1l0.15,0.051l-0.05-0.1l0.3,0.199
				C38.633,54.825,38.767,54.591,38.899,54.358z"/>
			<linearGradient id="SVGID_19_" gradientUnits="userSpaceOnUse" x1="28.4619" y1="58.0361" x2="35.6369" y2="58.0361">
				<stop  offset="0" style="stop-color:#E73F6D"/>
				<stop  offset="0.3412" style="stop-color:#BE3351"/>
				<stop  offset="1" style="stop-color:#6F1515"/>
			</linearGradient>
			<path fill-rule="evenodd" clip-rule="evenodd" fill="url(#SVGID_19_)" d="M33.649,54.358c-0.033,0.232-0.066,0.434-0.1,0.6
				l0.25-0.051c0.634-0.033,1.15,0.201,1.55,0.701l0.3,0.449c-0.1,0.168-0.166,0.316-0.199,0.451
				c-0.167,0.467-0.25,0.949-0.25,1.449c0,0.633,0.116,1.199,0.35,1.699l0.1,0.201c-0.333,0.6-0.8,1.066-1.399,1.4
				c-0.601,0.365-1.25,0.549-1.95,0.549c-1.066,0-1.967-0.365-2.7-1.1c-0.767-0.766-1.149-1.684-1.149-2.75
				c0-0.801,0.233-1.533,0.699-2.199c0.434-0.635,1.017-1.084,1.75-1.352c0.601-0.232,1.167-0.182,1.7,0.15l0.2,0.201
				c0.033-0.033,0.05-0.084,0.05-0.15c0.066,0.1,0.117,0.217,0.15,0.35v0.1C33.233,54.825,33.45,54.591,33.649,54.358z"/>
		</g>
	</g>
	<path fill-rule="evenodd" clip-rule="evenodd" fill="#FFFFFF" fill-opacity="0.2" d="M31.429,55.761
		c0.138,0.346,0.104,0.635-0.104,0.869c-0.952,1.131-1.166,2.117-0.642,2.959c0.069,0.111,0.262,0.34,0.579,0.684
		c0.152,0.166,0.152,0.27,0,0.311c-0.565,0.139-1.068-0.283-1.511-1.262c-0.441-0.98-0.552-1.959-0.331-2.939
		c0.069-0.346,0.207-0.643,0.414-0.891c0.248-0.289,0.524-0.414,0.828-0.371C31.021,55.188,31.276,55.401,31.429,55.761z"/>
	<path fill-rule="evenodd" clip-rule="evenodd" fill="#FFFFFF" fill-opacity="0.2" d="M38.778,55.761
		c0.139,0.346,0.104,0.635-0.103,0.869c-0.953,1.131-1.167,2.117-0.643,2.959c0.069,0.111,0.263,0.34,0.58,0.684
		c0.151,0.166,0.151,0.27,0,0.311c-0.566,0.139-1.069-0.283-1.511-1.262c-0.441-0.98-0.552-1.959-0.331-2.939
		c0.068-0.346,0.206-0.643,0.413-0.891c0.249-0.289,0.524-0.414,0.828-0.371C38.372,55.188,38.627,55.401,38.778,55.761z"/>
</g>
<g>
	<g>
		<g>
			<path fill-rule="evenodd" clip-rule="evenodd" fill="#3A3229" d="M81.3,73.858c-0.133,0.232-0.267,0.467-0.4,0.699l-0.3-0.199
				l-0.05-0.451c-0.233-1.033-0.333-2.1-0.3-3.199c0.066-1.666,0.366-3.232,0.899-4.699c-0.533,0.467-0.916,0.816-1.149,1.049
				c-0.434,0.434-0.817,0.85-1.15,1.25c-0.3,0.334-0.616,0.768-0.95,1.301c-0.366,0.533-0.683,1.1-0.949,1.699l-0.7,1.801
				c-0.067,0.266-0.134,0.516-0.2,0.75c-0.2,0.232-0.417,0.467-0.65,0.699v-0.1c-0.033-0.133-0.083-0.25-0.149-0.35
				c0.3-1.467,0.816-2.85,1.55-4.15c1.233-2.199,2.867-3.934,4.9-5.199l0.6-0.352c0.167-0.066,0.3-0.066,0.4,0l0.149,0.102
				c0.067,0.166,0.017,0.35-0.149,0.549c-0.667,0.734-1.134,1.816-1.4,3.25c-0.1,0.434-0.184,0.967-0.25,1.6
				c-0.066,0.768-0.066,1.418,0,1.951L81.3,73.858z"/>
			<linearGradient id="SVGID_20_" gradientUnits="userSpaceOnUse" x1="78.1748" y1="77.5332" x2="85.8252" y2="77.5332">
				<stop  offset="0" style="stop-color:#E73F6D"/>
				<stop  offset="0.3412" style="stop-color:#BE3351"/>
				<stop  offset="1" style="stop-color:#6F1515"/>
			</linearGradient>
			<path fill-rule="evenodd" clip-rule="evenodd" fill="url(#SVGID_20_)" d="M81.3,73.858l0.1,0.449l0.301-0.25
				c0.333-0.199,0.666-0.299,1-0.299c0.267,0,0.5,0.049,0.699,0.148c0.733,0.268,1.317,0.717,1.75,1.352
				c0.434,0.666,0.65,1.398,0.65,2.199c0,1.066-0.367,1.984-1.1,2.75c-0.768,0.734-1.667,1.1-2.7,1.1c-0.867,0-1.634-0.25-2.3-0.75
				c-0.634-0.467-1.084-1.082-1.351-1.85c-0.133-0.4-0.2-0.816-0.2-1.25c0-0.4,0.067-0.801,0.2-1.199
				c0.134-0.434,0.333-0.816,0.601-1.15c0.333-0.467,0.816-0.701,1.449-0.701H80.5l0.149,0.051l-0.05-0.1l0.3,0.199
				C81.033,74.325,81.167,74.091,81.3,73.858z"/>
			<linearGradient id="SVGID_21_" gradientUnits="userSpaceOnUse" x1="70.8623" y1="77.5361" x2="78.0373" y2="77.5361">
				<stop  offset="0" style="stop-color:#E73F6D"/>
				<stop  offset="0.3412" style="stop-color:#BE3351"/>
				<stop  offset="1" style="stop-color:#6F1515"/>
			</linearGradient>
			<path fill-rule="evenodd" clip-rule="evenodd" fill="url(#SVGID_21_)" d="M76.05,73.858c-0.033,0.232-0.066,0.434-0.1,0.6
				l0.25-0.051c0.633-0.033,1.149,0.201,1.55,0.701l0.3,0.449c-0.1,0.168-0.167,0.316-0.2,0.451c-0.167,0.467-0.25,0.949-0.25,1.449
				c0,0.633,0.117,1.199,0.351,1.699l0.1,0.201c-0.333,0.6-0.8,1.066-1.4,1.4c-0.6,0.365-1.25,0.549-1.949,0.549
				c-1.067,0-1.967-0.365-2.7-1.1c-0.767-0.766-1.15-1.684-1.15-2.75c0-0.801,0.233-1.533,0.7-2.199
				c0.434-0.635,1.017-1.084,1.75-1.352c0.6-0.232,1.167-0.182,1.7,0.15l0.2,0.201c0.033-0.033,0.05-0.084,0.05-0.15
				c0.066,0.1,0.116,0.217,0.149,0.35v0.1C75.633,74.325,75.85,74.091,76.05,73.858z"/>
		</g>
	</g>
	<path fill-rule="evenodd" clip-rule="evenodd" fill="#FFFFFF" fill-opacity="0.2" d="M73.062,74.62
		c0.359,0.068,0.614,0.281,0.767,0.641c0.138,0.346,0.104,0.635-0.104,0.869c-0.953,1.131-1.167,2.117-0.643,2.959
		c0.069,0.111,0.263,0.34,0.58,0.684c0.152,0.166,0.152,0.27,0,0.311c-0.566,0.139-1.069-0.283-1.512-1.262
		c-0.441-0.98-0.551-1.959-0.33-2.939c0.068-0.346,0.207-0.643,0.413-0.891C72.483,74.702,72.759,74.577,73.062,74.62z"/>
	<path fill-rule="evenodd" clip-rule="evenodd" fill="#FFFFFF" fill-opacity="0.2" d="M80.413,74.62
		c0.358,0.068,0.613,0.281,0.766,0.641c0.138,0.346,0.104,0.635-0.104,0.869c-0.952,1.131-1.166,2.117-0.642,2.959
		c0.069,0.111,0.262,0.34,0.579,0.684c0.152,0.166,0.152,0.27,0,0.311c-0.565,0.139-1.068-0.283-1.511-1.262
		c-0.441-0.98-0.552-1.959-0.331-2.939c0.069-0.346,0.207-0.643,0.414-0.891C79.833,74.702,80.109,74.577,80.413,74.62z"/>
</g>
<g>
	<g>
		<g>
			<linearGradient id="SVGID_22_" gradientUnits="userSpaceOnUse" x1="12.0625" y1="85.5361" x2="19.2375" y2="85.5361">
				<stop  offset="0" style="stop-color:#E73F6D"/>
				<stop  offset="0.3412" style="stop-color:#BE3351"/>
				<stop  offset="1" style="stop-color:#6F1515"/>
			</linearGradient>
			<path fill-rule="evenodd" clip-rule="evenodd" fill="url(#SVGID_22_)" d="M17.25,81.858c-0.033,0.232-0.066,0.434-0.101,0.6
				l0.25-0.051c0.634-0.033,1.15,0.201,1.551,0.701l0.3,0.449c-0.101,0.168-0.167,0.316-0.2,0.451
				c-0.167,0.467-0.25,0.949-0.25,1.449c0,0.633,0.116,1.199,0.35,1.699l0.101,0.201c-0.334,0.6-0.8,1.066-1.4,1.4
				c-0.6,0.365-1.25,0.549-1.95,0.549c-1.066,0-1.966-0.365-2.699-1.1c-0.767-0.766-1.15-1.684-1.15-2.75
				c0-0.801,0.233-1.533,0.7-2.199c0.434-0.635,1.017-1.084,1.75-1.352c0.6-0.232,1.166-0.182,1.7,0.15l0.199,0.201
				c0.034-0.033,0.051-0.084,0.051-0.15c0.066,0.1,0.116,0.217,0.149,0.35v0.1C16.833,82.325,17.05,82.091,17.25,81.858z"/>
			<path fill-rule="evenodd" clip-rule="evenodd" fill="#3A3229" d="M16.45,82.108c0.3-1.467,0.816-2.85,1.55-4.15
				c1.233-2.199,2.866-3.934,4.899-5.199l0.601-0.352c0.166-0.066,0.3-0.066,0.399,0l0.15,0.102c0.066,0.166,0.017,0.35-0.15,0.549
				c-0.666,0.734-1.133,1.816-1.399,3.25c-0.101,0.434-0.184,0.967-0.25,1.6c-0.066,0.768-0.066,1.418,0,1.951l0.25,2
				c-0.134,0.232-0.267,0.467-0.4,0.699l-0.3-0.199l-0.05-0.451c-0.233-1.033-0.334-2.1-0.3-3.199
				c0.066-1.666,0.366-3.232,0.899-4.699c-0.533,0.467-0.916,0.816-1.149,1.049c-0.434,0.434-0.817,0.85-1.15,1.25
				c-0.3,0.334-0.616,0.768-0.95,1.301c-0.366,0.533-0.684,1.1-0.95,1.699l-0.699,1.801c-0.067,0.266-0.134,0.516-0.2,0.75
				c-0.2,0.232-0.417,0.467-0.65,0.699v-0.1C16.566,82.325,16.517,82.208,16.45,82.108z"/>
			<linearGradient id="SVGID_23_" gradientUnits="userSpaceOnUse" x1="19.375" y1="85.5332" x2="27.0254" y2="85.5332">
				<stop  offset="0" style="stop-color:#E73F6D"/>
				<stop  offset="0.3412" style="stop-color:#BE3351"/>
				<stop  offset="1" style="stop-color:#6F1515"/>
			</linearGradient>
			<path fill-rule="evenodd" clip-rule="evenodd" fill="url(#SVGID_23_)" d="M22.5,81.858l0.1,0.449l0.3-0.25
				c0.334-0.199,0.667-0.299,1-0.299c0.267,0,0.5,0.049,0.7,0.148c0.733,0.268,1.316,0.717,1.75,1.352
				c0.434,0.666,0.65,1.398,0.65,2.199c0,1.066-0.367,1.984-1.101,2.75c-0.767,0.734-1.666,1.1-2.699,1.1
				c-0.867,0-1.634-0.25-2.301-0.75c-0.633-0.467-1.083-1.082-1.35-1.85c-0.134-0.4-0.2-0.816-0.2-1.25c0-0.4,0.066-0.801,0.2-1.199
				c0.134-0.434,0.333-0.816,0.6-1.15c0.334-0.467,0.817-0.701,1.45-0.701H21.7l0.149,0.051l-0.05-0.1l0.3,0.199
				C22.233,82.325,22.366,82.091,22.5,81.858z"/>
		</g>
	</g>
	<path fill-rule="evenodd" clip-rule="evenodd" fill="#FFFFFF" fill-opacity="0.2" d="M14.263,82.62
		c0.359,0.068,0.614,0.281,0.766,0.641c0.139,0.346,0.104,0.635-0.103,0.869c-0.953,1.131-1.167,2.117-0.643,2.959
		c0.069,0.111,0.263,0.34,0.58,0.684c0.151,0.166,0.151,0.27,0,0.311c-0.566,0.139-1.069-0.283-1.511-1.262
		c-0.441-0.98-0.552-1.959-0.331-2.939c0.068-0.346,0.206-0.643,0.413-0.891C13.684,82.702,13.959,82.577,14.263,82.62z"/>
	<path fill-rule="evenodd" clip-rule="evenodd" fill="#FFFFFF" fill-opacity="0.2" d="M21.613,82.62
		c0.358,0.068,0.613,0.281,0.766,0.641c0.138,0.346,0.104,0.635-0.104,0.869c-0.952,1.131-1.166,2.117-0.642,2.959
		c0.068,0.111,0.262,0.34,0.579,0.684c0.152,0.166,0.152,0.27,0,0.311c-0.565,0.139-1.069-0.283-1.511-1.262
		c-0.441-0.98-0.552-1.959-0.331-2.939c0.069-0.346,0.207-0.643,0.414-0.891C21.034,82.702,21.31,82.577,21.613,82.62z"/>
</g>
<g>
	<g>
		<g>
			<path fill-rule="evenodd" clip-rule="evenodd" fill="#3A3229" d="M61.05,101.858c-0.134,0.232-0.267,0.467-0.4,0.699l-0.3-0.199
				l-0.05-0.451c-0.233-1.033-0.333-2.1-0.3-3.199c0.066-1.666,0.366-3.232,0.899-4.699c-0.533,0.467-0.916,0.816-1.149,1.049
				c-0.434,0.434-0.816,0.85-1.15,1.25c-0.3,0.334-0.616,0.768-0.95,1.301c-0.366,0.533-0.683,1.1-0.949,1.699l-0.7,1.801
				c-0.066,0.266-0.134,0.516-0.2,0.75c-0.2,0.232-0.417,0.467-0.65,0.699v-0.1c-0.033-0.133-0.083-0.25-0.149-0.35
				c0.3-1.467,0.816-2.85,1.55-4.15c1.233-2.199,2.866-3.934,4.9-5.199l0.6-0.352c0.167-0.066,0.3-0.066,0.4,0l0.149,0.102
				c0.066,0.166,0.017,0.35-0.149,0.549c-0.667,0.734-1.134,1.816-1.4,3.25c-0.1,0.434-0.184,0.967-0.25,1.6
				c-0.066,0.768-0.066,1.418,0,1.951L61.05,101.858z"/>
			<linearGradient id="SVGID_24_" gradientUnits="userSpaceOnUse" x1="50.6123" y1="105.5361" x2="57.7873" y2="105.5361">
				<stop  offset="0" style="stop-color:#E73F6D"/>
				<stop  offset="0.3412" style="stop-color:#BE3351"/>
				<stop  offset="1" style="stop-color:#6F1515"/>
			</linearGradient>
			<path fill-rule="evenodd" clip-rule="evenodd" fill="url(#SVGID_24_)" d="M55.8,101.858c-0.033,0.232-0.066,0.434-0.1,0.6
				l0.25-0.051c0.633-0.033,1.149,0.201,1.55,0.701l0.3,0.449c-0.1,0.168-0.167,0.316-0.2,0.451c-0.166,0.467-0.25,0.949-0.25,1.449
				c0,0.633,0.117,1.199,0.351,1.699l0.1,0.201c-0.333,0.6-0.8,1.066-1.4,1.4c-0.6,0.365-1.25,0.549-1.949,0.549
				c-1.067,0-1.967-0.365-2.7-1.1c-0.767-0.766-1.15-1.684-1.15-2.75c0-0.801,0.233-1.533,0.7-2.199
				c0.434-0.635,1.017-1.084,1.75-1.352c0.6-0.232,1.167-0.182,1.7,0.15l0.2,0.201c0.033-0.033,0.05-0.084,0.05-0.15
				c0.066,0.1,0.116,0.217,0.149,0.35v0.1C55.383,102.325,55.6,102.091,55.8,101.858z"/>
			<linearGradient id="SVGID_25_" gradientUnits="userSpaceOnUse" x1="57.9248" y1="105.5332" x2="65.5752" y2="105.5332">
				<stop  offset="0" style="stop-color:#E73F6D"/>
				<stop  offset="0.3412" style="stop-color:#BE3351"/>
				<stop  offset="1" style="stop-color:#6F1515"/>
			</linearGradient>
			<path fill-rule="evenodd" clip-rule="evenodd" fill="url(#SVGID_25_)" d="M61.05,101.858l0.1,0.449l0.301-0.25
				c0.333-0.199,0.666-0.299,1-0.299c0.267,0,0.5,0.049,0.699,0.148c0.733,0.268,1.317,0.717,1.75,1.352
				c0.434,0.666,0.65,1.398,0.65,2.199c0,1.066-0.366,1.984-1.1,2.75c-0.767,0.734-1.667,1.1-2.7,1.1c-0.867,0-1.634-0.25-2.3-0.75
				c-0.634-0.467-1.084-1.082-1.351-1.85c-0.133-0.4-0.2-0.816-0.2-1.25c0-0.4,0.067-0.801,0.2-1.199
				c0.134-0.434,0.334-0.816,0.601-1.15c0.333-0.467,0.816-0.701,1.449-0.701h0.101l0.149,0.051l-0.05-0.1l0.3,0.199
				C60.783,102.325,60.916,102.091,61.05,101.858z"/>
		</g>
	</g>
	<path fill-rule="evenodd" clip-rule="evenodd" fill="#FFFFFF" fill-opacity="0.2" d="M52.812,102.62
		c0.359,0.068,0.614,0.281,0.767,0.641c0.138,0.346,0.104,0.635-0.104,0.869c-0.953,1.131-1.167,2.117-0.643,2.959
		c0.069,0.111,0.263,0.34,0.58,0.684c0.151,0.166,0.151,0.27,0,0.311c-0.566,0.139-1.069-0.283-1.511-1.262
		c-0.441-0.98-0.552-1.959-0.331-2.939c0.068-0.346,0.207-0.643,0.413-0.891C52.233,102.702,52.509,102.577,52.812,102.62z"/>
	<path fill-rule="evenodd" clip-rule="evenodd" fill="#FFFFFF" fill-opacity="0.2" d="M60.163,102.62
		c0.358,0.068,0.613,0.281,0.766,0.641c0.138,0.346,0.104,0.635-0.104,0.869c-0.952,1.131-1.166,2.117-0.642,2.959
		c0.069,0.111,0.262,0.34,0.579,0.684c0.152,0.166,0.152,0.27,0,0.311c-0.565,0.139-1.068-0.283-1.511-1.262
		c-0.441-0.98-0.552-1.959-0.331-2.939c0.069-0.346,0.207-0.643,0.414-0.891C59.583,102.702,59.859,102.577,60.163,102.62z"/>
</g>
<g>
	<g>
		<g>
			<linearGradient id="SVGID_26_" gradientUnits="userSpaceOnUse" x1="91.6748" y1="110.2832" x2="99.3252" y2="110.2832">
				<stop  offset="0" style="stop-color:#E73F6D"/>
				<stop  offset="0.3412" style="stop-color:#BE3351"/>
				<stop  offset="1" style="stop-color:#6F1515"/>
			</linearGradient>
			<path fill-rule="evenodd" clip-rule="evenodd" fill="url(#SVGID_26_)" d="M94.1,107.108l0.3,0.199
				c0.134-0.232,0.268-0.467,0.4-0.699l0.1,0.449l0.301-0.25c0.333-0.199,0.666-0.299,1-0.299c0.267,0,0.5,0.049,0.699,0.148
				c0.733,0.268,1.317,0.717,1.75,1.352c0.434,0.666,0.65,1.398,0.65,2.199c0,1.066-0.367,1.984-1.1,2.75
				c-0.768,0.734-1.667,1.1-2.7,1.1c-0.867,0-1.634-0.25-2.3-0.75c-0.634-0.467-1.084-1.082-1.351-1.85
				c-0.133-0.4-0.2-0.816-0.2-1.25c0-0.4,0.067-0.801,0.2-1.199c0.134-0.434,0.333-0.816,0.601-1.15
				c0.333-0.467,0.816-0.701,1.449-0.701H94l0.149,0.051L94.1,107.108z"/>
			<path fill-rule="evenodd" clip-rule="evenodd" fill="#3A3229" d="M94.1,107.108l-0.05-0.451c-0.233-1.033-0.333-2.1-0.3-3.199
				c0.066-1.666,0.366-3.232,0.899-4.699c-0.533,0.467-0.916,0.816-1.149,1.049c-0.434,0.434-0.817,0.85-1.15,1.25
				c-0.3,0.334-0.616,0.768-0.95,1.301c-0.366,0.533-0.683,1.1-0.949,1.699l-0.7,1.801c-0.067,0.266-0.134,0.516-0.2,0.75
				c-0.2,0.232-0.417,0.467-0.65,0.699v-0.1c-0.033-0.133-0.083-0.25-0.149-0.35c0.3-1.467,0.816-2.85,1.55-4.15
				c1.233-2.199,2.867-3.934,4.9-5.199l0.6-0.352c0.167-0.066,0.3-0.066,0.4,0l0.149,0.102c0.067,0.166,0.017,0.35-0.149,0.549
				c-0.667,0.734-1.134,1.816-1.4,3.25c-0.1,0.434-0.184,0.967-0.25,1.6c-0.066,0.768-0.066,1.418,0,1.951l0.25,2
				c-0.133,0.232-0.267,0.467-0.4,0.699L94.1,107.108z"/>
			<linearGradient id="SVGID_27_" gradientUnits="userSpaceOnUse" x1="84.3623" y1="110.2861" x2="91.5373" y2="110.2861">
				<stop  offset="0" style="stop-color:#E73F6D"/>
				<stop  offset="0.3412" style="stop-color:#BE3351"/>
				<stop  offset="1" style="stop-color:#6F1515"/>
			</linearGradient>
			<path fill-rule="evenodd" clip-rule="evenodd" fill="url(#SVGID_27_)" d="M89.55,106.608c-0.033,0.232-0.066,0.434-0.1,0.6
				l0.25-0.051c0.633-0.033,1.149,0.201,1.55,0.701l0.3,0.449c-0.1,0.168-0.167,0.316-0.2,0.451c-0.167,0.467-0.25,0.949-0.25,1.449
				c0,0.633,0.117,1.199,0.351,1.699l0.1,0.201c-0.333,0.6-0.8,1.066-1.4,1.4c-0.6,0.365-1.25,0.549-1.949,0.549
				c-1.067,0-1.967-0.365-2.7-1.1c-0.767-0.766-1.15-1.684-1.15-2.75c0-0.801,0.233-1.533,0.7-2.199
				c0.434-0.635,1.017-1.084,1.75-1.352c0.6-0.232,1.167-0.182,1.7,0.15l0.2,0.201c0.033-0.033,0.05-0.084,0.05-0.15
				c0.066,0.1,0.116,0.217,0.149,0.35v0.1C89.133,107.075,89.35,106.841,89.55,106.608z"/>
		</g>
	</g>
	<path fill-rule="evenodd" clip-rule="evenodd" fill="#FFFFFF" fill-opacity="0.2" d="M86.562,107.37
		c0.359,0.068,0.614,0.281,0.767,0.641c0.138,0.346,0.104,0.635-0.104,0.869c-0.953,1.131-1.167,2.117-0.643,2.959
		c0.069,0.111,0.263,0.34,0.58,0.684c0.152,0.166,0.152,0.27,0,0.311c-0.566,0.139-1.069-0.283-1.512-1.262
		c-0.441-0.98-0.551-1.959-0.33-2.939c0.068-0.346,0.207-0.643,0.413-0.891C85.983,107.452,86.259,107.327,86.562,107.37z"/>
	<path fill-rule="evenodd" clip-rule="evenodd" fill="#FFFFFF" fill-opacity="0.2" d="M93.913,107.37
		c0.358,0.068,0.613,0.281,0.766,0.641c0.138,0.346,0.104,0.635-0.104,0.869c-0.952,1.131-1.166,2.117-0.642,2.959
		c0.069,0.111,0.262,0.34,0.579,0.684c0.152,0.166,0.152,0.27,0,0.311c-0.565,0.139-1.068-0.283-1.511-1.262
		c-0.441-0.98-0.552-1.959-0.331-2.939c0.069-0.346,0.207-0.643,0.414-0.891C93.333,107.452,93.609,107.327,93.913,107.37z"/>
</g>
<g>
	<g>
		<g>
			<linearGradient id="SVGID_28_" gradientUnits="userSpaceOnUse" x1="75.6123" y1="49.0361" x2="82.7873" y2="49.0361">
				<stop  offset="0" style="stop-color:#E73F6D"/>
				<stop  offset="0.3412" style="stop-color:#BE3351"/>
				<stop  offset="1" style="stop-color:#6F1515"/>
			</linearGradient>
			<path fill-rule="evenodd" clip-rule="evenodd" fill="url(#SVGID_28_)" d="M80,45.608c0.066,0.1,0.116,0.217,0.149,0.35v0.1
				c0.233-0.232,0.45-0.467,0.65-0.699c-0.033,0.232-0.066,0.434-0.1,0.6l0.25-0.051c0.633-0.033,1.149,0.201,1.55,0.701l0.3,0.449
				c-0.1,0.168-0.167,0.316-0.2,0.451c-0.167,0.467-0.25,0.949-0.25,1.449c0,0.633,0.117,1.199,0.351,1.699l0.1,0.201
				c-0.333,0.6-0.8,1.066-1.4,1.4c-0.6,0.365-1.25,0.549-1.949,0.549c-1.067,0-1.967-0.365-2.7-1.1
				c-0.767-0.766-1.15-1.684-1.15-2.75c0-0.801,0.233-1.533,0.7-2.199c0.434-0.635,1.017-1.084,1.75-1.352
				c0.6-0.232,1.167-0.182,1.7,0.15l0.2,0.201C79.983,45.726,80,45.675,80,45.608z"/>
			<path fill-rule="evenodd" clip-rule="evenodd" fill="#3A3229" d="M80.8,45.358c-0.2,0.232-0.417,0.467-0.65,0.699v-0.1
				c-0.033-0.133-0.083-0.25-0.149-0.35c0.3-1.467,0.816-2.85,1.55-4.15c1.233-2.199,2.867-3.934,4.9-5.199l0.6-0.352
				c0.167-0.066,0.3-0.066,0.4,0l0.149,0.102c0.067,0.166,0.017,0.35-0.149,0.549c-0.667,0.734-1.134,1.816-1.4,3.25
				c-0.1,0.434-0.184,0.967-0.25,1.6c-0.066,0.768-0.066,1.418,0,1.951l0.25,2c-0.133,0.232-0.267,0.467-0.4,0.699l-0.3-0.199
				l-0.05-0.451c-0.233-1.033-0.333-2.1-0.3-3.199c0.066-1.666,0.366-3.232,0.899-4.699c-0.533,0.467-0.916,0.816-1.149,1.049
				c-0.434,0.434-0.817,0.85-1.15,1.25c-0.3,0.334-0.616,0.768-0.95,1.301c-0.366,0.533-0.683,1.1-0.949,1.699L81,44.608
				C80.933,44.874,80.866,45.124,80.8,45.358z"/>
			<linearGradient id="SVGID_29_" gradientUnits="userSpaceOnUse" x1="82.9248" y1="49.0332" x2="90.5752" y2="49.0332">
				<stop  offset="0" style="stop-color:#E73F6D"/>
				<stop  offset="0.3412" style="stop-color:#BE3351"/>
				<stop  offset="1" style="stop-color:#6F1515"/>
			</linearGradient>
			<path fill-rule="evenodd" clip-rule="evenodd" fill="url(#SVGID_29_)" d="M86.05,45.358l0.1,0.449l0.301-0.25
				c0.333-0.199,0.666-0.299,1-0.299c0.267,0,0.5,0.049,0.699,0.148c0.733,0.268,1.317,0.717,1.75,1.352
				c0.434,0.666,0.65,1.398,0.65,2.199c0,1.066-0.367,1.984-1.1,2.75c-0.768,0.734-1.667,1.1-2.7,1.1c-0.867,0-1.634-0.25-2.3-0.75
				c-0.634-0.467-1.084-1.082-1.351-1.85c-0.133-0.4-0.2-0.816-0.2-1.25c0-0.4,0.067-0.801,0.2-1.199
				c0.134-0.434,0.333-0.816,0.601-1.15c0.333-0.467,0.816-0.701,1.449-0.701h0.101l0.149,0.051l-0.05-0.1l0.3,0.199
				C85.783,45.825,85.917,45.591,86.05,45.358z"/>
		</g>
	</g>
	<path fill-rule="evenodd" clip-rule="evenodd" fill="#FFFFFF" fill-opacity="0.2" d="M77.812,46.12
		c0.359,0.068,0.614,0.281,0.767,0.641c0.138,0.346,0.104,0.635-0.104,0.869c-0.953,1.131-1.167,2.117-0.643,2.959
		c0.069,0.111,0.263,0.34,0.58,0.684c0.152,0.166,0.152,0.27,0,0.311c-0.566,0.139-1.069-0.283-1.512-1.262
		c-0.441-0.98-0.551-1.959-0.33-2.939c0.068-0.346,0.207-0.643,0.413-0.891C77.233,46.202,77.509,46.077,77.812,46.12z"/>
	<path fill-rule="evenodd" clip-rule="evenodd" fill="#FFFFFF" fill-opacity="0.2" d="M85.163,46.12
		c0.358,0.068,0.613,0.281,0.766,0.641c0.138,0.346,0.104,0.635-0.104,0.869c-0.952,1.131-1.166,2.117-0.642,2.959
		c0.069,0.111,0.262,0.34,0.579,0.684c0.152,0.166,0.152,0.27,0,0.311c-0.565,0.139-1.068-0.283-1.511-1.262
		c-0.441-0.98-0.552-1.959-0.331-2.939c0.069-0.346,0.207-0.643,0.414-0.891C84.583,46.202,84.859,46.077,85.163,46.12z"/>
</g>
</svg>
