<?xml version="1.0" encoding="utf-8"?>
<!-- Generator: Adobe Illustrator 16.0.4, SVG Export Plug-In . SVG Version: 6.00 Build 0)  -->
<!DOCTYPE svg PUBLIC "-//W3C//DTD SVG 1.1//EN" "http://www.w3.org/Graphics/SVG/1.1/DTD/svg11.dtd">
<svg version="1.1" id="Calque_1" xmlns="http://www.w3.org/2000/svg" xmlns:xlink="http://www.w3.org/1999/xlink" x="0px" y="0px"
	 width="142.52px" height="183.818px" viewBox="0 0 142.52 183.818" enable-background="new 0 0 142.52 183.818"
	 xml:space="preserve">
<g>
	<g>
		<rect x="71.351" fill-rule="evenodd" clip-rule="evenodd" fill="#796C56" width="3.75" height="32.662"/>
		<linearGradient id="SVGID_1_" gradientUnits="userSpaceOnUse" x1="8.9629" y1="107.7275" x2="141.0379" y2="107.7275">
			<stop  offset="0" style="stop-color:#716552"/>
			<stop  offset="0.3725" style="stop-color:#938975"/>
			<stop  offset="0.651" style="stop-color:#938975"/>
			<stop  offset="1" style="stop-color:#71673E"/>
		</linearGradient>
		<path fill-rule="evenodd" clip-rule="evenodd" fill="url(#SVGID_1_)" d="M56.5,131.512c-2.933-0.233-5.649-0.534-8.149-0.9
			c-7.134-0.767-19.783-3.716-37.95-8.85c-1.434-3.5-2.3-8.65-2.6-15.45c-0.334-6.8,2.116-14.316,7.35-22.55
			c17.7,3.033,29.633,4.95,35.8,5.75c6.4,0.8,14.15,1.399,23.25,1.8c8.667,0.434,29.217-2.316,61.65-8.25
			c0.633,1.066,1.967,3.55,4,7.45c2.066,3.733,2.933,9.616,2.6,17.649c-0.366,7.934-1.5,13-3.399,15.2
			c-18.834,3.9-33.9,6.65-45.2,8.25C93.851,131.611,72.9,133.437,56.5,131.512z"/>
		<linearGradient id="SVGID_2_" gradientUnits="userSpaceOnUse" x1="16.5508" y1="69.1279" x2="134.4004" y2="69.1279">
			<stop  offset="0" style="stop-color:#716552"/>
			<stop  offset="0.3725" style="stop-color:#938975"/>
			<stop  offset="0.651" style="stop-color:#938975"/>
			<stop  offset="1" style="stop-color:#71673E"/>
		</linearGradient>
		<path fill-rule="evenodd" clip-rule="evenodd" fill="url(#SVGID_2_)" d="M123.4,58.562c3.3,3.5,5.9,7.9,7.8,13.2
			c1.9,5.167,2.967,8.366,3.2,9.6c-31.233,5.567-51.3,8.167-60.2,7.8c-9.1-0.399-16.85-1.016-23.25-1.85
			c-6.333-0.834-17.8-2.816-34.399-5.95c1.033-7.333,3.683-14.55,7.949-21.65c3-5.267,6.551-8.717,10.65-10.35
			c0.167-0.2,0.367-0.3,0.6-0.3c23.733,6.033,42.2,7.633,55.4,4.8c13.1-2.9,20.917-3.7,23.45-2.4
			C117.067,52.662,120,55.028,123.4,58.562z"/>
		<linearGradient id="SVGID_3_" gradientUnits="userSpaceOnUse" x1="39.9004" y1="43.4819" x2="108.8008" y2="43.4819">
			<stop  offset="0" style="stop-color:#716552"/>
			<stop  offset="0.3725" style="stop-color:#938975"/>
			<stop  offset="0.651" style="stop-color:#938975"/>
			<stop  offset="1" style="stop-color:#71673E"/>
		</linearGradient>
		<path fill-rule="evenodd" clip-rule="evenodd" fill="url(#SVGID_3_)" d="M108.801,48.012c-24.601,5.667-47.567,5.7-68.9,0.1
			c8.133-9.667,19.917-14.117,35.35-13.35C86.95,35.228,98.134,39.645,108.801,48.012z"/>
		<linearGradient id="SVGID_4_" gradientUnits="userSpaceOnUse" x1="10.3203" y1="142.8799" x2="138.9004" y2="142.8799">
			<stop  offset="0" style="stop-color:#716552"/>
			<stop  offset="0.3725" style="stop-color:#938975"/>
			<stop  offset="0.651" style="stop-color:#938975"/>
			<stop  offset="1" style="stop-color:#71673E"/>
		</linearGradient>
		<path fill-rule="evenodd" clip-rule="evenodd" fill="url(#SVGID_4_)" d="M93.601,133.111c11.467-1.667,26.566-4.384,45.3-8.149
			c-1.033,12.399-3.517,20.982-7.45,25.75c-4.1,4.967-6.399,7.366-6.899,7.199c-35.634,6.434-69.384,6.101-101.25-1
			c-9.334-9.3-13.634-20.516-12.9-33.649c18.167,5.1,30.816,8.05,37.95,8.85c2.5,0.3,5.267,0.583,8.3,0.851
			C56.65,132.962,71.775,135.312,93.601,133.111z"/>
		<linearGradient id="SVGID_5_" gradientUnits="userSpaceOnUse" x1="58.5508" y1="128.2363" x2="91.7002" y2="128.2363">
			<stop  offset="0" style="stop-color:#71673E"/>
			<stop  offset="1" style="stop-color:#4D441D"/>
		</linearGradient>
		<path display="none" fill-rule="evenodd" clip-rule="evenodd" fill="url(#SVGID_5_)" d="M91.7,128.212c0,0.833,0,1.633,0,2.399
			c-0.866,5.034-2.517,9.034-4.95,12c-3.166,3.967-7.05,5.95-11.649,5.95c-4.567,0-8.467-1.983-11.7-5.95
			c-2.233-2.8-3.7-6.017-4.4-9.649c0-0.268,0-0.484,0-0.65c-0.3-1.834-0.449-3.2-0.449-4.1c0-5.667,1.616-10.484,4.85-14.45
			c3.233-3.9,7.133-5.851,11.7-5.851c4.6,0,8.483,1.95,11.649,5.851C90.051,117.728,91.7,122.545,91.7,128.212z"/>
		<linearGradient id="SVGID_6_" gradientUnits="userSpaceOnUse" x1="25.1006" y1="171.6396" x2="122.4502" y2="171.6396">
			<stop  offset="0" style="stop-color:#716552"/>
			<stop  offset="0.3725" style="stop-color:#938975"/>
			<stop  offset="0.651" style="stop-color:#938975"/>
			<stop  offset="1" style="stop-color:#71673E"/>
		</linearGradient>
		<path fill-rule="evenodd" clip-rule="evenodd" fill="url(#SVGID_6_)" d="M120.9,162.312c-12.9,14.6-28.717,21.767-47.45,21.5
			c-18.733-0.233-31.566-4.416-38.5-12.55c-4.767-5.434-8.05-9.366-9.85-11.8c30.667,6.566,63.116,6.899,97.35,1
			C121.95,161.095,121.434,161.712,120.9,162.312z"/>
	</g>
</g>
<g>
	<g>
		<path fill-rule="evenodd" clip-rule="evenodd" fill="#010202" d="M16.2,103.262l-0.95-0.9l-1.649,1.65l0.95,0.95L16.2,103.262z
			 M14.551,108.562c0.1-0.233,0.183-0.434,0.25-0.6c0.066-0.234,0.1-0.484,0.1-0.75c0-0.301-0.066-0.601-0.2-0.9
			c-0.1-0.267-0.267-0.483-0.5-0.65l-1.2-1.3c-0.232-0.233-0.5-0.399-0.8-0.5c-0.267-0.134-0.566-0.2-0.899-0.2
			c-0.233,0-0.467,0.033-0.7,0.101c-0.233,0.066-0.434,0.183-0.601,0.35l-0.449-0.45c0.232-0.232,0.5-0.399,0.8-0.5
			c0.267-0.133,0.583-0.199,0.95-0.199c0.166,0,0.333,0,0.5,0c-0.134-0.234-0.2-0.484-0.2-0.75c0-0.301,0.066-0.533,0.2-0.7
			c0.066-0.233,0.183-0.434,0.35-0.601c0.167-0.166,0.367-0.316,0.6-0.449c0.233-0.033,0.467-0.051,0.7-0.051
			c0.2,0,0.417,0.018,0.65,0.051c0.233,0.133,0.433,0.283,0.6,0.449l0.55,0.5l1-0.85c0.067-0.1,0.167-0.15,0.301-0.15
			c0.033,0,0.083,0.051,0.149,0.15c0.067,0,0.101,0.066,0.101,0.2c0,0.1-0.033,0.183-0.101,0.25l-0.95,0.95l0.851,0.85l0.95-0.95
			c0.133-0.066,0.217-0.1,0.25-0.1c0.066,0,0.149,0.033,0.25,0.1c0.066,0.067,0.1,0.15,0.1,0.25c0,0.067-0.033,0.134-0.1,0.2
			l-0.9,0.95l0.5,0.6c0.333,0.333,0.5,0.75,0.5,1.25c0,0.534-0.167,0.967-0.5,1.3c-0.167,0.167-0.367,0.316-0.6,0.45
			c-0.233,0.067-0.467,0.101-0.7,0.101c-0.3,0-0.55-0.066-0.75-0.2c0,0.167,0,0.316,0,0.45c0,0.333-0.067,0.666-0.2,1
			c-0.1,0.366-0.233,0.666-0.4,0.899L14.551,108.562z M8.801,114.161l-1.15,1.2c-0.4,0.4-0.85,0.684-1.35,0.851
			c-0.067,0.066-0.134,0.1-0.2,0.1l-4.9-5c0.233-0.566,0.517-1.017,0.851-1.35l1.25-1.2c0.199,0.233,0.416,0.45,0.649,0.649
			l4.55,4.4v0.2h0.101L8.801,114.161z M10.351,112.361l-0.101-0.2v0.2l-0.1,0.15v-0.15l-0.85-0.6l-3.601-3.55
			c0-0.033,0-0.084,0-0.15l-0.1,0.1v-0.1l3.1-1.05v0.1l1.55,1.45h-0.1l1.3,1.3l-0.45,1.45l-0.6,1.05H10.351z M1.4,115.212
			c0.233,0.232,0.45,0.482,0.65,0.75H2l-0.8,0.8c-0.033,0.1-0.116,0.149-0.25,0.149c-0.066,0-0.149-0.05-0.25-0.149
			c0-0.067,0-0.134,0-0.2c0-0.1,0-0.184,0-0.25l0.851-0.75C1.483,115.429,1.434,115.312,1.4,115.212z"/>
		<path fill-rule="evenodd" clip-rule="evenodd" fill="#8A6553" d="M14.551,108.562c-0.067,0-0.101,0.033-0.101,0.1l-1.55-1.55
			c-0.033-0.066-0.083-0.1-0.15-0.1c-0.066,0-0.133,0-0.199,0c-0.033,0-0.051,0.033-0.051,0.1h-0.1v0.101
			c-0.066,0-0.1,0.016-0.1,0.05l-0.5,1.85l-2.4-2.25l1.9-0.7c0.033,0,0.083,0,0.149,0c0.067-0.066,0.101-0.116,0.101-0.149
			c0.033-0.067,0.033-0.134,0-0.2c0-0.066-0.033-0.117-0.101-0.15l-1.55-1.55H10c0.167-0.167,0.367-0.283,0.601-0.35
			c0.233-0.067,0.467-0.101,0.7-0.101c0.333,0,0.633,0.066,0.899,0.2c0.3,0.101,0.567,0.267,0.8,0.5l1.2,1.3
			c0.233,0.167,0.4,0.384,0.5,0.65c0.134,0.3,0.2,0.6,0.2,0.9c0,0.266-0.033,0.516-0.1,0.75
			C14.733,108.128,14.65,108.328,14.551,108.562z M16.2,103.262l-1.649,1.7l-0.95-0.95l1.649-1.65L16.2,103.262z"/>
		<linearGradient id="SVGID_7_" gradientUnits="userSpaceOnUse" x1="10.2563" y1="105.4453" x2="0.0512" y2="101.0574">
			<stop  offset="0" style="stop-color:#587675;stop-opacity:0.502"/>
			<stop  offset="1" style="stop-color:#E5F3F1;stop-opacity:0.4"/>
		</linearGradient>
		<path fill-rule="evenodd" clip-rule="evenodd" fill="url(#SVGID_7_)" d="M4.15,99.611c0.333,0.167,0.65,0.366,0.95,0.601l6.2,5.8
			c-2.434-0.067-5.567-0.384-9.4-0.95l-0.15-0.1c-0.366-0.167-0.666-0.367-0.899-0.601l-0.05-0.1c-0.2-0.267-0.384-0.517-0.551-0.75
			c-0.033-0.067-0.05-0.134-0.05-0.2c-0.133-0.334-0.2-0.666-0.2-1v-0.1c0-0.334,0.084-0.7,0.25-1.101
			c0.233-0.533,0.617-0.95,1.15-1.25c0.434-0.333,0.95-0.5,1.55-0.5C3.384,99.361,3.783,99.444,4.15,99.611z"/>
		<path fill-rule="evenodd" clip-rule="evenodd" fill="#FFCC07" d="M8.801,114.062l-0.101-0.05l0.101,0.149l-0.2-0.149H8.5v-0.2
			l-4.55-4.4c-0.233-0.199-0.45-0.416-0.649-0.649l0.649-0.55l0.601,0.199c0.166,0,0.316-0.033,0.449-0.1
			c0.067,0,0.117-0.033,0.15-0.1c0.066,0,0.133,0,0.2,0l0.25-0.051l0.1-0.1c0,0.066,0,0.117,0,0.15l3.601,3.55l0.85,0.6v0.15
			l0.1-0.15v0.15c-0.3,0.366-0.566,0.683-0.8,0.95L8.801,114.062z M2.051,115.962c-0.2-0.268-0.417-0.518-0.65-0.75
			c-0.167-0.467-0.283-0.967-0.35-1.5c-0.134-0.801-0.101-1.518,0.1-2.15c0.033-0.1,0.05-0.184,0.05-0.25l4.9,5
			c-0.434,0.166-0.917,0.25-1.45,0.25c-0.3,0-0.583-0.017-0.85-0.05c-0.567-0.067-1.15-0.217-1.75-0.45V115.962z"/>
		<linearGradient id="SVGID_8_" gradientUnits="userSpaceOnUse" x1="8.7061" y1="107.8398" x2="2.4255" y2="105.1529">
			<stop  offset="0" style="stop-color:#587675;stop-opacity:0.502"/>
			<stop  offset="1" style="stop-color:#E5F3F1;stop-opacity:0.4"/>
		</linearGradient>
		<path fill-rule="evenodd" clip-rule="evenodd" fill="url(#SVGID_8_)" d="M2.95,107.111l-0.1-0.1
			c-0.167-0.167-0.317-0.366-0.45-0.601c-0.1-0.166-0.15-0.366-0.15-0.6l6.9,0.35l-4.15,1.4c-0.232,0.1-0.5,0.117-0.8,0.05
			C3.7,107.611,3.283,107.444,2.95,107.111z"/>
		<linearGradient id="SVGID_9_" gradientUnits="userSpaceOnUse" x1="12.4282" y1="108.9492" x2="11.7127" y2="116.0982">
			<stop  offset="0" style="stop-color:#587675;stop-opacity:0.502"/>
			<stop  offset="1" style="stop-color:#E5F3F1;stop-opacity:0.4"/>
		</linearGradient>
		<path fill-rule="evenodd" clip-rule="evenodd" fill="url(#SVGID_9_)" d="M12.551,112.512l0.199,3.7c-0.533,0-0.967-0.167-1.3-0.5
			v-0.101c-0.167-0.167-0.283-0.366-0.35-0.6c-0.101-0.233-0.184-0.45-0.25-0.65c0-0.233,0.033-0.5,0.1-0.8l1.45-4.3l0.1,2.05
			c0.033,0.4,0.084,0.783,0.15,1.15L12.551,112.512z"/>
		<polygon fill-rule="evenodd" clip-rule="evenodd" fill="#EAC080" points="10.25,112.361 10.25,112.161 10.351,112.361 		"/>
		<polygon fill-rule="evenodd" clip-rule="evenodd" fill="#1E1E1C" points="8.801,114.161 8.7,114.012 8.801,114.062 		"/>
		<linearGradient id="SVGID_10_" gradientUnits="userSpaceOnUse" x1="16.1606" y1="108.3545" x2="15.2094" y2="118.4289">
			<stop  offset="0" style="stop-color:#587675;stop-opacity:0.502"/>
			<stop  offset="1" style="stop-color:#E5F3F1;stop-opacity:0.4"/>
		</linearGradient>
		<path fill-rule="evenodd" clip-rule="evenodd" fill="url(#SVGID_10_)" d="M18.95,114.361c0.167,0.333,0.25,0.7,0.25,1.101
			c0,0.399-0.066,0.766-0.2,1.1c-0.166,0.4-0.366,0.75-0.6,1.05c-0.267,0.3-0.6,0.534-1,0.7c-0.367,0.1-0.75,0.15-1.15,0.15
			c-0.633,0-1.199-0.134-1.699-0.4c-0.167-0.2-0.334-0.35-0.5-0.45c-0.2-0.233-0.351-0.466-0.45-0.7
			c-0.067-0.066-0.101-0.116-0.101-0.149v-0.2l-0.35-4.2h-0.05l-0.55-5.25l5.85,6.45C18.634,113.795,18.817,114.062,18.95,114.361z"
			/>
	</g>
</g>
</svg>
