<?xml version="1.0" encoding="utf-8"?>
<!-- Generator: Adobe Illustrator 16.0.4, SVG Export Plug-In . SVG Version: 6.00 Build 0)  -->
<!DOCTYPE svg PUBLIC "-//W3C//DTD SVG 1.1//EN" "http://www.w3.org/Graphics/SVG/1.1/DTD/svg11.dtd">
<svg version="1.1" id="Calque_1" xmlns="http://www.w3.org/2000/svg" xmlns:xlink="http://www.w3.org/1999/xlink" x="0px" y="0px"
	 width="1053.113px" height="139.03px" viewBox="0 0 1053.113 139.03" enable-background="new 0 0 1053.113 139.03"
	 xml:space="preserve">
<rect x="406.333" y="1.017" fill="#414040" width="1" height="135.981"/>
<rect x="486.333" y="0.872" fill="#414040" width="1" height="135.98"/>
<rect x="566.332" y="0.872" fill="#414040" width="1" height="135.98"/>
<rect x="646.332" y="0.872" fill="#414040" width="1" height="135.98"/>
<rect x="86.333" y="-2.329" fill="#414040" width="1" height="135.98"/>
<rect x="166.333" y="-2.474" fill="#414040" width="1" height="139.472"/>
<rect x="246.333" y="-2.475" fill="#414040" width="1" height="139.473"/>
<rect x="326.333" y="-2.475" fill="#414040" width="1" height="139.473"/>
<rect x="406.333" y="-2.475" fill="#414040" width="1" height="135.98"/>
<rect x="1047.832" y="-6.879" fill="#414040" width="1" height="135.98"/>
<rect x="1047.832" y="-4.475" fill="#414040" width="1" height="135.98"/>
<rect x="81.05" y="2.038" fill="#030404" width="6" height="133.648"/>
<g>
	<path d="M36.444,43.73h11.247v3.924c0,1.375-0.439,2.508-1.317,3.398c-0.878,0.891-2.004,1.336-3.379,1.336h-1.862
		c-1.38,0-2.506-0.445-3.379-1.336c-0.873-0.891-1.31-2.024-1.31-3.398V43.73z M45.953,45.985h-7.778v1.669
		c0,0.742,0.277,1.339,0.83,1.792c0.554,0.453,1.263,0.68,2.128,0.68h1.877c0.86,0,1.565-0.227,2.116-0.68
		c0.551-0.453,0.827-1.05,0.827-1.792V45.985z"/>
	<path d="M41.388,60.624v-4.171h-3.213v4.959h-1.73v-7.215h11.247v7.199h-1.738v-4.944h-2.827v4.171H41.388z"/>
	<path d="M40.523,65.25h-4.079v-2.255h11.247v4.303c0,1.292-0.33,2.31-0.989,3.051c-0.659,0.741-1.527,1.112-2.604,1.112
		c-1.076,0-1.941-0.371-2.595-1.112c-0.654-0.742-0.98-1.759-0.98-3.051V65.25z M42.261,65.25v2.047
		c0,0.628,0.171,1.104,0.513,1.429c0.343,0.325,0.779,0.487,1.309,0.487c0.542,0,0.988-0.161,1.341-0.482
		c0.352-0.322,0.529-0.8,0.529-1.433V65.25H42.261z"/>
	<path d="M38.87,77.563v-3.646l-2.426-0.757v-2.356l11.247,3.792v2.31l-11.247,3.777v-2.356L38.87,77.563z M40.639,74.473v2.542
		l3.963-1.244v-0.046L40.639,74.473z"/>
	<path d="M40.94,84.021h-4.496v-2.255h11.247v3.894c0,1.282-0.292,2.285-0.877,3.008c-0.584,0.724-1.399,1.085-2.444,1.085
		c-0.577,0-1.075-0.153-1.495-0.459c-0.42-0.307-0.758-0.753-1.015-1.34c-0.196,0.665-0.523,1.142-0.981,1.433
		c-0.459,0.291-1.024,0.437-1.7,0.437h-0.826c-0.314,0-0.643,0.042-0.985,0.127c-0.342,0.085-0.596,0.23-0.76,0.437h-0.163v-2.325
		c0.165-0.206,0.438-0.338,0.819-0.397c0.381-0.06,0.749-0.089,1.105-0.089h0.796c0.561,0,0.997-0.154,1.309-0.46
		c0.312-0.306,0.468-0.74,0.468-1.301V84.021z M42.678,84.021v1.599c0,0.634,0.134,1.104,0.402,1.414
		c0.268,0.309,0.664,0.463,1.189,0.463c0.515,0,0.925-0.156,1.229-0.468c0.303-0.311,0.456-0.769,0.456-1.371v-1.638H42.678z"/>
	<path d="M45.953,99.3v-3.214h-9.509v-2.255h9.509v-3.167h1.738V99.3H45.953z"/>
</g>
<rect x="727.332" y="2.559" fill="#414040" width="1" height="135.981"/>
<rect x="807.332" y="2.414" fill="#414040" width="1" height="135.979"/>
<rect x="887.331" y="2.414" fill="#414040" width="1" height="135.98"/>
<rect x="967.331" y="2.414" fill="#414040" width="1" height="135.98"/>
<rect x="487.057" y="2.813" fill="#439AD2" width="79" height="133.404"/>
<rect x="2" y="2" fill="none" stroke="#000000" stroke-width="4" stroke-miterlimit="10" width="1049.113" height="135.03"/>
<g>
	<path fill="#FFFFFF" d="M522.688,45.182v-3.665l-2.438-0.761v-2.369l11.308,3.813v2.321l-11.308,3.798V45.95L522.688,45.182z
		 M524.465,42.075v2.555l3.985-1.25v-0.046L524.465,42.075z"/>
	<path fill="#FFFFFF" d="M524.769,51.674h-4.52v-2.268h11.308v3.914c0,1.289-0.295,2.297-0.882,3.025
		c-0.589,0.727-1.406,1.091-2.458,1.091c-0.58,0-1.082-0.155-1.503-0.463c-0.422-0.308-0.762-0.757-1.021-1.348
		c-0.197,0.668-0.525,1.148-0.987,1.441c-0.46,0.292-1.029,0.438-1.708,0.438h-0.831c-0.315,0-0.646,0.043-0.99,0.129
		c-0.345,0.085-0.599,0.231-0.765,0.438h-0.163v-2.338c0.166-0.207,0.439-0.341,0.823-0.399c0.383-0.061,0.753-0.09,1.11-0.09h0.801
		c0.563,0,1.003-0.154,1.316-0.462c0.312-0.309,0.469-0.744,0.469-1.309V51.674z M526.516,51.674v1.607
		c0,0.637,0.135,1.11,0.403,1.422c0.27,0.311,0.669,0.466,1.197,0.466c0.518,0,0.929-0.157,1.234-0.47
		c0.305-0.313,0.457-0.773,0.457-1.379v-1.646H526.516z"/>
	<path fill="#FFFFFF" d="M524.769,61.808h-4.52V59.54h11.308v3.914c0,1.289-0.295,2.298-0.882,3.025
		c-0.589,0.727-1.406,1.091-2.458,1.091c-0.58,0-1.082-0.154-1.503-0.462c-0.422-0.309-0.762-0.757-1.021-1.348
		c-0.197,0.668-0.525,1.148-0.987,1.44c-0.46,0.293-1.029,0.439-1.708,0.439h-0.831c-0.315,0-0.646,0.042-0.99,0.128
		c-0.345,0.085-0.599,0.231-0.765,0.438h-0.163V65.87c0.166-0.207,0.439-0.341,0.823-0.4c0.383-0.06,0.753-0.09,1.11-0.09h0.801
		c0.563,0,1.003-0.153,1.316-0.462c0.312-0.308,0.469-0.744,0.469-1.309V61.808z M526.516,61.808v1.608
		c0,0.637,0.135,1.11,0.403,1.421c0.27,0.311,0.669,0.466,1.197,0.466c0.518,0,0.929-0.157,1.234-0.47
		c0.305-0.313,0.457-0.773,0.457-1.379v-1.646H526.516z"/>
	<path fill="#FFFFFF" d="M520.249,72.098V69.83h11.308v2.268H520.249z"/>
	<path fill="#FFFFFF" d="M523.315,78.193l-0.621,0.141v0.046l0.6,0.133l8.263,2.461v2.392l-11.308-3.843v-2.33l11.308-3.836v2.392
		L523.315,78.193z"/>
	<path fill="#FFFFFF" d="M525.22,90.922v-4.193h-3.23v4.985h-1.74v-7.253h11.308v7.238h-1.749v-4.971h-2.841v4.193H525.22z"/>
	<path fill="#FFFFFF" d="M525.22,99.767v-4.193h-3.23v4.986h-1.74v-7.254h11.308v7.238h-1.749v-4.971h-2.841v4.193H525.22z"/>
</g>
</svg>
