<?xml version="1.0" encoding="utf-8"?>
<!-- Generator: Adobe Illustrator 16.0.4, SVG Export Plug-In . SVG Version: 6.00 Build 0)  -->
<!DOCTYPE svg PUBLIC "-//W3C//DTD SVG 1.1//EN" "http://www.w3.org/Graphics/SVG/1.1/DTD/svg11.dtd">
<svg version="1.1" id="Calque_1" xmlns="http://www.w3.org/2000/svg" xmlns:xlink="http://www.w3.org/1999/xlink" x="0px" y="0px"
	 width="605.535px" height="138.667px" viewBox="0 0 605.535 138.667" enable-background="new 0 0 605.535 138.667"
	 xml:space="preserve">
<path fill="#CCCCCC" d="M149.768,61.493c0,3.777-3.063,6.84-6.84,6.84l0,0c-3.777,0-6.84-3.063-6.84-6.84V18.174
	c0-3.777,3.063-6.84,6.84-6.84l0,0c3.777,0,6.84,3.063,6.84,6.84V61.493z"/>
<path fill="#CCCCCC" d="M142.927,11.333c3.777,0,6.84,3.063,6.84,6.84l0,0c0,3.777-3.063,6.84-6.84,6.84H99.608
	c-3.777,0-6.84-3.063-6.84-6.84l0,0c0-3.777,3.063-6.84,6.84-6.84H142.927z"/>
<path fill="#CCCCCC" d="M415.101,61.494c0,3.777-3.063,6.84-6.841,6.84l0,0c-3.776,0-6.84-3.062-6.84-6.84v-43.32
	c0-3.777,3.063-6.84,6.84-6.84l0,0c3.777,0,6.841,3.062,6.841,6.84V61.494z"/>
<path fill="#CCCCCC" d="M408.26,11.333c3.777,0,6.841,3.062,6.841,6.84l0,0c0,3.777-3.063,6.84-6.841,6.84h-43.318
	c-3.777,0-6.841-3.062-6.841-6.84l0,0c0-3.777,3.063-6.84,6.841-6.84H408.26z"/>
<path fill="#CCCCCC" d="M280.434,119.494c0,3.777-3.063,6.84-6.841,6.84l0,0c-3.776,0-6.84-3.062-6.84-6.84v-43.32
	c0-3.777,3.063-6.84,6.84-6.84l0,0c3.777,0,6.841,3.062,6.841,6.84V119.494z"/>
<path fill="#CCCCCC" d="M273.593,112.654c3.777,0,6.841,3.062,6.841,6.84l0,0c0,3.777-3.063,6.84-6.841,6.84h-43.318
	c-3.777,0-6.841-3.062-6.841-6.84l0,0c0-3.777,3.063-6.84,6.841-6.84H273.593z"/>
<path fill="#FFFFFF" d="M588.268,114.333c0,6.627-5.373,12-12,12h-53.5c-6.627,0-12-5.373-12-12v-91c0-6.627,5.373-12,12-12h53.5
	c6.627,0,12,5.373,12,12V114.333z"/>
</svg>
