<?xml version="1.0" encoding="utf-8"?>
<!-- Generator: Adobe Illustrator 16.0.4, SVG Export Plug-In . SVG Version: 6.00 Build 0)  -->
<!DOCTYPE svg PUBLIC "-//W3C//DTD SVG 1.1//EN" "http://www.w3.org/Graphics/SVG/1.1/DTD/svg11.dtd">
<svg version="1.1" id="Capa_1" xmlns="http://www.w3.org/2000/svg" xmlns:xlink="http://www.w3.org/1999/xlink" x="0px" y="0px"
	 width="128px" height="128px" viewBox="0 0 128 128" enable-background="new 0 0 128 128" xml:space="preserve">
<g>
	<g id="_x34__19_">
		<g>
			<path fill="#FFFFFF" d="M84,112c2.208,0,4-1.792,4-4V60c0-2.208-1.792-4-4-4s-4,1.792-4,4v48C80,110.208,81.792,112,84,112z
				 M108,16H84V8c0-4.42-3.58-8-8-8H52c-4.42,0-8,3.58-8,8v8H20c-4.42,0-8,3.58-8,8v8c0,4.416,3.58,8,8,8v72c0,8.836,7.164,16,16,16
				h56c8.836,0,16-7.164,16-16V40c4.42,0,8-3.584,8-8v-8C116,19.58,112.42,16,108,16z M52,12c0-2.208,1.792-4,4-4h16
				c2.208,0,4,1.792,4,4v4c-3.876,0-24,0-24,0V12z M100,112c0,4.416-3.58,8-8,8H36c-4.42,0-8-3.584-8-8V40h72V112z M104,32H24
				c-2.208,0-4-1.792-4-4s1.792-4,4-4h80c2.208,0,4,1.792,4,4S106.208,32,104,32z M44,112c2.208,0,4-1.792,4-4V60
				c0-2.208-1.792-4-4-4s-4,1.792-4,4v48C40,110.208,41.792,112,44,112z M64,112c2.208,0,4-1.792,4-4V60c0-2.208-1.792-4-4-4
				s-4,1.792-4,4v48C60,110.208,61.792,112,64,112z"/>
		</g>
	</g>
</g>
</svg>
