<?xml version="1.0" encoding="utf-8"?>
<!-- Generator: Adobe Illustrator 16.0.4, SVG Export Plug-In . SVG Version: 6.00 Build 0)  -->
<!DOCTYPE svg PUBLIC "-//W3C//DTD SVG 1.1//EN" "http://www.w3.org/Graphics/SVG/1.1/DTD/svg11.dtd">
<svg version="1.1" xmlns="http://www.w3.org/2000/svg" xmlns:xlink="http://www.w3.org/1999/xlink" x="0px" y="0px"
	 width="491.363px" height="349.432px" viewBox="0 0 491.363 349.432" enable-background="new 0 0 491.363 349.432"
	 xml:space="preserve">
<g id="Calque_2_1_">
	<circle fill="#FFFFFF" cx="78.546" cy="272.22" r="74.546"/>
</g>
<g id="Calque_1">
	<g id="Capa_1">
		<g>
			<path fill="#DCEFF3" d="M485.522,158.114c5.783-24.067-4.877-48.067-24.599-60.735c0.303-1.104,0.839-2.076,1.106-3.187
				c9.749-40.569-15.238-81.366-55.809-91.114l0,0c-27.514-6.61-54.886,3.014-72.854,22.373c-3.005-1.312-6.118-2.496-9.433-3.294
				c-24.071-5.784-48.054,4.883-60.721,24.604c-1.076-0.335-2.074-0.838-3.204-1.11c-30.418-7.31-61.027,11.437-68.336,41.857"/>
		</g>
		<g>
			<path fill="#DCEFF3" d="M272.237,238.312c27.514,6.61,54.886-3.012,72.854-22.37c3.004,1.312,6.118,2.493,9.436,3.29
				c24.07,5.785,48.05-4.88,60.716-24.602c1.079,0.335,2.078,0.841,3.205,1.114c30.419,7.307,61.026-11.442,68.338-41.858
				c7.307-30.421-11.439-61.028-41.859-68.338l-183.653-44.13c-30.42-7.311-61.029,11.438-68.337,41.856
				c-5.783,24.068,4.879,48.067,24.598,60.737c-0.302,1.103-0.839,2.075-1.106,3.187C206.68,187.77,231.668,228.565,272.237,238.312
				L272.237,238.312z"/>
		</g>
		<ellipse fill="#DCEFF3" cx="159.547" cy="211.225" rx="7.947" ry="8.882"/>
		<ellipse fill="#DCEFF3" cx="185.933" cy="183.694" rx="13.089" ry="13.558"/>
	</g>
	<g id="Calque_2" display="none">
		<g display="inline">
			<path fill="#EB64A9" d="M37.553,239.984c0,5.652,4.582,10.234,10.233,10.234c5.652,0,10.234-4.582,10.234-10.234
				s-4.583-10.235-10.234-10.235C42.135,229.749,37.553,234.332,37.553,239.984z M98.958,239.984
				c0,5.652,4.582,10.234,10.234,10.234c5.652,0,10.234-4.582,10.234-10.234s-4.582-10.235-10.234-10.235
				C103.54,229.75,98.958,234.332,98.958,239.984z"/>
		</g>
		<g display="inline">
			<g>
				<path fill="#EB64A9" d="M79.149,192.932c-43.149,0-78.25,35.102-78.25,78.251c0,43.147,35.101,78.249,78.25,78.249
					c43.146,0,78.247-35.102,78.247-78.249C157.396,228.033,122.294,192.932,79.149,192.932z M79.149,338.731
					c-37.246,0-67.548-30.303-67.548-67.549s30.302-67.551,67.548-67.551s67.547,30.303,67.547,67.551
					C146.696,308.429,116.395,338.731,79.149,338.731z"/>
			</g>
		</g>
		
			<ellipse display="inline" fill="none" stroke="#EB64A9" stroke-width="10" stroke-miterlimit="10" cx="78.49" cy="293.18" rx="40.937" ry="21.998"/>
	</g>
	<g id="Calque_2_2_">
		<g>
			<path fill="#F2B543" d="M37.553,239.984c0,5.652,4.582,10.234,10.233,10.234c5.652,0,10.234-4.582,10.234-10.234
				s-4.583-10.235-10.234-10.235C42.135,229.749,37.553,234.332,37.553,239.984z M98.958,239.984
				c0,5.652,4.582,10.234,10.234,10.234c5.652,0,10.234-4.582,10.234-10.234s-4.582-10.235-10.234-10.235
				C103.54,229.75,98.958,234.332,98.958,239.984z M58.021,301.39h40.937v10.234H58.021V301.39L58.021,301.39z"/>
		</g>
		<g>
			<g>
				<path fill="#F2B543" d="M79.149,192.932c-43.149,0-78.25,35.102-78.25,78.251c0,43.147,35.101,78.249,78.25,78.249
					c43.146,0,78.247-35.102,78.247-78.249C157.396,228.033,122.294,192.932,79.149,192.932z M79.149,338.731
					c-37.246,0-67.548-30.303-67.548-67.549s30.302-67.551,67.548-67.551s67.547,30.303,67.547,67.551
					C146.696,308.429,116.395,338.731,79.149,338.731z"/>
			</g>
		</g>
	</g>
	<g id="Calque_4" display="none">
		<g display="inline">
			<path fill="#EB64A9" d="M36.682,239.898c0,5.657,4.585,10.242,10.242,10.242c5.655,0,10.243-4.585,10.243-10.242
				s-4.586-10.243-10.243-10.243C41.269,229.656,36.682,234.241,36.682,239.898z M98.136,239.898
				c0,5.657,4.585,10.242,10.242,10.242s10.242-4.585,10.242-10.242s-4.585-10.243-10.242-10.243
				C102.722,229.656,98.136,234.241,98.136,239.898z"/>
		</g>
		<g display="inline">
			<g>
				<path fill="#EB64A9" d="M78.312,192.809C35.13,192.809,0,227.938,0,271.121c0,43.182,35.13,78.311,78.312,78.311
					c43.179,0,78.31-35.129,78.31-78.311C156.62,227.938,121.49,192.809,78.312,192.809z M78.312,338.723
					c-37.275,0-67.602-30.326-67.602-67.602s30.326-67.604,67.602-67.604s67.6,30.326,67.6,67.604
					C145.912,308.396,115.586,338.723,78.312,338.723z"/>
				<path fill="#EB64A9" d="M134.036,265.766H22.587c-2.957,0-5.355,2.398-5.355,5.355c0,33.677,27.399,61.077,61.08,61.077
					c33.68,0,61.079-27.4,61.079-61.077C139.389,268.164,136.99,265.766,134.036,265.766z M78.312,321.489
					c-25.965,0-47.405-19.75-50.087-45.014h100.174C125.717,301.739,104.277,321.489,78.312,321.489z"/>
			</g>
		</g>
		<rect x="17.232" y="261.888" display="inline" fill="#FFFFFF" width="122.158" height="27.038"/>
	</g>
	<g id="Calque_3" display="none">
		<g display="inline">
			<path fill="#259ED6" d="M37.241,240.914c0,5.604,4.543,10.147,10.147,10.147c5.603,0,10.147-4.543,10.147-10.147
				s-4.544-10.147-10.147-10.147C41.784,230.767,37.241,235.31,37.241,240.914z M98.125,240.914c0,5.604,4.542,10.147,10.147,10.147
				c5.604,0,10.147-4.543,10.147-10.147s-4.542-10.147-10.147-10.147C102.668,230.767,98.125,235.31,98.125,240.914z"/>
		</g>
		<g display="inline">
			<g>
				<path fill="#259ED6" d="M78.484,194.261c-42.782,0-77.585,34.804-77.585,77.586s34.804,77.585,77.585,77.585
					c42.779,0,77.583-34.803,77.583-77.585S121.263,194.261,78.484,194.261z M78.484,338.822c-36.93,0-66.975-30.046-66.975-66.976
					c0-36.929,30.045-66.977,66.975-66.977c36.93,0,66.973,30.046,66.973,66.977C145.457,308.776,115.414,338.822,78.484,338.822z"
					/>
				<path fill="#259ED6" d="M133.691,266.542H23.276c-2.93,0-5.306,2.376-5.306,5.305c0,33.365,27.145,60.512,60.513,60.512
					c33.367,0,60.512-27.146,60.512-60.512C138.996,268.918,136.619,266.542,133.691,266.542z M78.484,321.748
					c-25.725,0-46.966-19.566-49.623-44.596h99.245C125.45,302.182,104.208,321.748,78.484,321.748z"/>
			</g>
		</g>
	</g>
</g>
</svg>
