<?xml version="1.0" encoding="utf-8"?>
<!-- Generator: Adobe Illustrator 16.0.4, SVG Export Plug-In . SVG Version: 6.00 Build 0)  -->
<!DOCTYPE svg PUBLIC "-//W3C//DTD SVG 1.1//EN" "http://www.w3.org/Graphics/SVG/1.1/DTD/svg11.dtd">
<svg version="1.1" id="Calque_1" xmlns="http://www.w3.org/2000/svg" xmlns:xlink="http://www.w3.org/1999/xlink" x="0px" y="0px"
	 width="27.952px" height="6.36px" viewBox="0 0 27.952 6.36" enable-background="new 0 0 27.952 6.36" xml:space="preserve">
<g>
	<path fill="#DB0372" d="M1.001,6.36C-0.038,4.56-0.313,2.77,0.389,2.365l3.955-2.283c0.701-0.404,2.113,0.727,3.152,2.527l0,0"/>
	<path fill="#DB0372" d="M1.374,2.951L1.374,2.951C0.897,2.125,0.771,1.303,1.093,1.117L2.91,0.068
		C3.231-0.119,3.881,0.4,4.358,1.229l0,0"/>
</g>
<g>
	<path fill="#DB0372" d="M20.455,2.609c1.039-1.799,2.453-2.933,3.154-2.527l3.953,2.284c0.703,0.405,0.428,2.193-0.611,3.994l0,0"
		/>
	<path fill="#DB0372" d="M23.594,1.229L23.594,1.229c0.479-0.826,1.125-1.347,1.449-1.16l1.816,1.049
		c0.322,0.186,0.197,1.008-0.281,1.834l0,0"/>
</g>
</svg>
