<?xml version="1.0" encoding="utf-8"?>
<!-- Generator: Adobe Illustrator 16.0.4, SVG Export Plug-In . SVG Version: 6.00 Build 0)  -->
<!DOCTYPE svg PUBLIC "-//W3C//DTD SVG 1.1//EN" "http://www.w3.org/Graphics/SVG/1.1/DTD/svg11.dtd">
<svg version="1.1" id="Calque_1" xmlns="http://www.w3.org/2000/svg" xmlns:xlink="http://www.w3.org/1999/xlink" x="0px" y="0px"
	 width="27.147px" height="10.18px" viewBox="0.403 0 27.147 10.18" enable-background="new 0.403 0 27.147 10.18"
	 xml:space="preserve">
<g>
	<path fill="#8F908A" d="M12.776,1.211L12.776,1.211c0-0.666,0.206-1.205,0.466-1.206L14.704,0c0.259-0.001,0.472,0.538,0.473,1.203
		l0,0"/>
	<rect x="12.776" y="0.889" fill="#8F908A" width="2.4" height="1.702"/>
</g>
<path fill="#8F908A" d="M27.55,6.289c0-2.15-2.041-3.892-3.324-3.892H3.727c-1.284,0-3.324,1.741-3.324,3.892l0,0
	c0,2.148,0,3.891,0,3.891H27.55C27.55,10.18,27.55,8.438,27.55,6.289L27.55,6.289z"/>
</svg>
