<?xml version="1.0" encoding="utf-8"?>
<!-- Generator: Adobe Illustrator 16.0.4, SVG Export Plug-In . SVG Version: 6.00 Build 0)  -->
<!DOCTYPE svg PUBLIC "-//W3C//DTD SVG 1.1//EN" "http://www.w3.org/Graphics/SVG/1.1/DTD/svg11.dtd">
<svg version="1.1" id="Calque_1" xmlns="http://www.w3.org/2000/svg" xmlns:xlink="http://www.w3.org/1999/xlink" x="0px" y="0px"
	 width="145px" height="210.333px" viewBox="0 0 145 210.333" enable-background="new 0 0 145 210.333" xml:space="preserve">
<g id="IyGmeB.tif" display="none">
	
		<image display="inline" overflow="visible" width="527" height="474" id="Layer_0_1_" xlink:href="B235D69880B279DE.png"  transform="matrix(1 0 0 1 0.5 -37.834)">
	</image>
</g>
<path fill="#FFFFFF" stroke="#010202" stroke-miterlimit="10" d="M144.5,197.833c0,6.627-5.373,12-12,12h-120
	c-6.627,0-12-5.373-12-12V12.5c0-6.627,5.373-12,12-12h120c6.627,0,12,5.373,12,12V197.833z"/>
<rect x="19.856" y="20.167" fill="#8F908A" width="106.333" height="68.667"/>
<path fill="#D6892E" d="M88.091,125.379c0,6.808-5.521,12.328-12.328,12.328h-5.48c-6.808,0-12.328-5.521-12.328-12.328v-5.821
	c0-6.808,5.521-12.328,12.328-12.328h5.48c6.808,0,12.328,5.521,12.328,12.328V125.379z"/>
<polygon fill="#CDCCCC" points="46.957,137.28 30.5,122.469 46.957,107.657 "/>
<polygon fill="#CDCCCC" points="99.062,137.28 115.52,122.469 99.062,107.657 "/>
<path fill="#8B898A" d="M87.689,151.834c0,5.154-4.179,9.333-9.334,9.333H67.689c-5.155,0-9.334-4.179-9.334-9.333l0,0
	c0-5.155,4.179-9.334,9.334-9.334h10.666C83.511,142.5,87.689,146.679,87.689,151.834L87.689,151.834z"/>
<line fill="none" stroke="#8B898A" stroke-miterlimit="10" x1="126.166" y1="152.834" x2="144.5" y2="152.834"/>
<line fill="none" stroke="#8B898A" stroke-miterlimit="10" x1="126.166" y1="163.5" x2="144.5" y2="163.5"/>
<line fill="none" stroke="#8B898A" stroke-miterlimit="10" x1="126.166" y1="175.25" x2="144.5" y2="175.25"/>
<line fill="none" stroke="#8B898A" stroke-miterlimit="10" x1="0.5" y1="152.834" x2="18.834" y2="152.834"/>
<line fill="none" stroke="#8B898A" stroke-miterlimit="10" x1="0.5" y1="163.5" x2="18.834" y2="163.5"/>
<line fill="none" stroke="#8B898A" stroke-miterlimit="10" x1="0.5" y1="175.25" x2="18.834" y2="175.25"/>
<path fill="none" stroke="#8A8889" stroke-miterlimit="10" d="M144.5,197.833c0,6.627-5.373,12-12,12h-120c-6.627,0-12-5.373-12-12
	V12.5c0-6.627,5.373-12,12-12h120c6.627,0,12,5.373,12,12V197.833z"/>
</svg>
