<?xml version="1.0" encoding="utf-8"?>
<!-- Generator: Adobe Illustrator 16.0.4, SVG Export Plug-In . SVG Version: 6.00 Build 0)  -->
<!DOCTYPE svg PUBLIC "-//W3C//DTD SVG 1.1//EN" "http://www.w3.org/Graphics/SVG/1.1/DTD/svg11.dtd">
<svg version="1.1" id="Calque_1" xmlns="http://www.w3.org/2000/svg" xmlns:xlink="http://www.w3.org/1999/xlink" x="0px" y="0px"
	 width="418px" height="187.5px" viewBox="0 0 418 187.5" enable-background="new 0 0 418 187.5" xml:space="preserve">
<g id="Calque_1_1_">
	<path display="none" fill="none" stroke="#010202" stroke-width="4" stroke-miterlimit="10" d="M528.5,138.25
		c0,11.046-8.954,20-20,20H86c-11.046,0-20-8.954-20-20v-151.5c0-11.046,8.954-20,20-20h422.5c11.046,0,20,8.954,20,20V138.25z"/>
	<rect x="48.556" y="58.853" fill="#49AE50" width="4" height="66.608"/>
	<rect x="366.146" y="58.853" fill="#E84339" width="4" height="66.608"/>
	<path fill="none" stroke="#010202" stroke-width="4" stroke-miterlimit="10" d="M183.085,60.184V41.208
		c0-7.985,6.473-14.458,14.458-14.458h156.145c7.985,0,14.459,6.473,14.459,14.458v18.976"/>
	<path fill="none" stroke="#010202" stroke-width="4" stroke-miterlimit="10" d="M235.617,124.814v18.978
		c0,7.985-6.473,14.458-14.458,14.458H65.013c-7.985,0-14.458-6.473-14.458-14.458v-18.978"/>
	<path fill="none" stroke="#010202" stroke-width="4" stroke-miterlimit="10" d="M50.556,60.908V40.484
		c0-7.585,6.148-13.734,13.733-13.734h67.639c7.585,0,13.733,6.148,13.733,13.734v20.424"/>
	<path fill="none" stroke="#010202" stroke-width="4" stroke-miterlimit="10" d="M368.146,124.092v20.426
		c0,7.584-6.148,13.732-13.733,13.732h-67.638c-7.586,0-13.734-6.148-13.734-13.732v-20.426"/>
	<path fill="none" stroke="#010202" stroke-width="4" stroke-miterlimit="10" d="M183.085,40.484v20.424
		c0,7.585-6.148,13.733-13.734,13.733h-9.957c-7.585,0-13.734-6.148-13.734-13.733V40.484"/>
	<path fill="none" stroke="#010202" stroke-width="4" stroke-miterlimit="10" d="M235.617,144.518v-20.426
		c0-7.585,6.148-13.734,13.734-13.734h9.957c7.584,0,13.73,6.149,13.73,13.734v20.426"/>
</g>
<g>
	<path fill="#CCCCCC" d="M406.917,115.075c0,4.569-3.708,8.272-8.274,8.272h-11.304c-4.57,0-8.274-3.703-8.274-8.272V69.572
		c0-4.569,3.704-8.275,8.274-8.275h11.304c4.566,0,8.274,3.706,8.274,8.275V115.075z"/>
	<path fill="none" stroke="#FFFFFF" stroke-miterlimit="10" d="M379.062,72.864l27.433-15.302L379.062,72.864z"/>
	<path fill="none" stroke="#FFFFFF" stroke-miterlimit="10" d="M379.062,89.995l27.433-15.301L379.062,89.995z"/>
	<path fill="none" stroke="#FFFFFF" stroke-miterlimit="10" d="M379.062,107.128l27.433-15.302L379.062,107.128z"/>
	<path fill="none" stroke="#FFFFFF" stroke-miterlimit="10" d="M379.062,124.26l27.433-15.299L379.062,124.26z"/>
</g>
<g>
	<path fill="#CCCCCC" d="M39.417,114.158c0,4.57-3.708,8.273-8.274,8.273H19.839c-4.57,0-8.275-3.703-8.275-8.273V68.655
		c0-4.569,3.705-8.275,8.275-8.275h11.304c4.566,0,8.274,3.706,8.274,8.275V114.158z"/>
	<path fill="none" stroke="#FFFFFF" stroke-miterlimit="10" d="M11.563,71.948l27.432-15.302L11.563,71.948z"/>
	<path fill="none" stroke="#FFFFFF" stroke-miterlimit="10" d="M11.563,89.078l27.432-15.301L11.563,89.078z"/>
	<path fill="none" stroke="#FFFFFF" stroke-miterlimit="10" d="M11.563,106.211L38.995,90.91L11.563,106.211z"/>
	<path fill="none" stroke="#FFFFFF" stroke-miterlimit="10" d="M11.563,123.344l27.432-15.299L11.563,123.344z"/>
</g>
</svg>
