<?xml version="1.0" encoding="utf-8"?>
<!-- Generator: Adobe Illustrator 16.0.4, SVG Export Plug-In . SVG Version: 6.00 Build 0)  -->
<!DOCTYPE svg PUBLIC "-//W3C//DTD SVG 1.1//EN" "http://www.w3.org/Graphics/SVG/1.1/DTD/svg11.dtd">
<svg version="1.1" id="Calque_1" xmlns="http://www.w3.org/2000/svg" xmlns:xlink="http://www.w3.org/1999/xlink" x="0px" y="0px"
	 width="61.409px" height="34.714px" viewBox="-5.771 -2.2 61.409 34.714" enable-background="new -5.771 -2.2 61.409 34.714"
	 xml:space="preserve">
<g>
	<g>
		<path fill="#8F908A" d="M54.426,13.956L54.426,13.956c0.666,0,1.205,0.206,1.206,0.467l0.007,1.462
			c0.001,0.259-0.538,0.472-1.203,0.474l0,0"/>
		<rect x="53.046" y="13.956" fill="#8F908A" width="1.702" height="2.399"/>
	</g>
	<path fill="#8F908A" d="M49.348,28.73c2.148,0,3.893-2.041,3.893-3.323v-20.5c0-1.284-1.741-3.324-3.893-3.324l0,0
		c-2.147,0-3.893,0-3.893,0V28.73C45.457,28.73,47.199,28.73,49.348,28.73L49.348,28.73z"/>
</g>
<g>
	<path fill="#F2B543" d="M2.103,21.728c-3.644,0-6.6-1.147-6.6-2.57v-8c0-1.418,2.957-2.57,6.6-2.57l0,0"/>
	<path fill="#F2B543" d="M-2.744,18.176L-2.744,18.176c-1.669,0-3.026-0.528-3.026-1.183v-3.676c0-0.65,1.354-1.183,3.026-1.183l0,0
		"/>
</g>
<g>
	<path fill="#010202" d="M45.551,28.597c0,1.734-1.404,3.146-3.145,3.146h-9.791c-1.735,0-3.145-1.409-3.145-3.146l0,0
		c0-1.736,1.407-3.146,3.145-3.146h9.791C44.145,25.451,45.551,26.86,45.551,28.597L45.551,28.597z"/>
	<ellipse fill="#010202" cx="37.511" cy="31.74" rx="2.447" ry="0.774"/>
</g>
<g>
	<path fill="#010202" d="M45.551,1.662c0,1.734-1.405,3.144-3.143,3.144h-9.79c-1.734,0-3.143-1.408-3.143-3.144l0,0
		c0-1.735,1.406-3.144,3.143-3.144h9.789C44.144-1.48,45.551-0.073,45.551,1.662L45.551,1.662z"/>
	<ellipse fill="#010202" cx="37.513" cy="-1.428" rx="2.446" ry="0.772"/>
</g>
<g>
	<path fill="#010202" d="M24.727,28.597c0,1.735-1.406,3.146-3.146,3.146H11.79c-1.733,0-3.145-1.408-3.145-3.146l0,0
		c0-1.736,1.409-3.146,3.145-3.146h9.791C23.321,25.452,24.727,26.86,24.727,28.597L24.727,28.597z"/>
	<ellipse fill="#010202" cx="16.687" cy="31.74" rx="2.449" ry="0.774"/>
</g>
<g>
	<path fill="#010202" d="M24.727,1.663c0,1.734-1.407,3.144-3.145,3.144h-9.79c-1.732,0-3.143-1.408-3.143-3.144l0,0
		c0-1.734,1.408-3.144,3.143-3.144h9.789C23.32-1.48,24.727-0.073,24.727,1.663L24.727,1.663z"/>
	<ellipse fill="#010202" cx="16.689" cy="-1.428" rx="2.448" ry="0.772"/>
</g>
<path fill="#259ED6" d="M52.657,18.141c0,6.627-4.929,12-11.009,12H11.008C4.928,30.141,0,24.768,0,18.141v-5.969
	c0-6.627,4.93-12,11.008-12H41.65c6.08,0,11.01,5.373,11.01,12L52.657,18.141L52.657,18.141z"/>
<g>
	<path fill="#FFFFFF" stroke="#010202" stroke-width="0.5" stroke-miterlimit="10" d="M6.582,24.438
		c-0.888,0-1.607-0.722-1.607-1.608V6.738c0-0.889,0.722-1.607,1.607-1.607h24.854c0.89,0,1.605,0.72,1.605,1.607v16.092
		c0,0.889-0.718,1.608-1.605,1.608H6.582z"/>
	<rect x="21.196" y="7.725" fill="#8F908A" width="9.209" height="14.258"/>
	<path fill="#D6892E" d="M16.296,16.874c-0.913,0-1.651-0.739-1.651-1.652v-0.735c0-0.912,0.739-1.652,1.651-1.652h0.782
		c0.913,0,1.653,0.74,1.653,1.652v0.735c0,0.913-0.74,1.652-1.653,1.652H16.296z"/>
	<polygon fill="#CDCCCC" points="14.701,11.359 16.686,9.152 18.673,11.359 	"/>
	<polygon fill="#CDCCCC" points="14.701,18.346 16.686,20.554 18.673,18.346 	"/>
	<path fill="#8B898A" d="M12.75,16.82c-0.69,0-1.251-0.562-1.251-1.251v-1.431c0-0.691,0.562-1.251,1.251-1.251l0,0
		c0.69,0,1.252,0.562,1.252,1.251v1.431C14.002,16.262,13.44,16.82,12.75,16.82L12.75,16.82z"/>
	<line fill="none" stroke="#8B898A" stroke-miterlimit="10" x1="12.614" y1="21.98" x2="12.614" y2="24.438"/>
	<line fill="none" stroke="#8B898A" stroke-miterlimit="10" x1="11.187" y1="21.98" x2="11.187" y2="24.438"/>
	<line fill="none" stroke="#8B898A" stroke-miterlimit="10" x1="9.611" y1="21.98" x2="9.611" y2="24.438"/>
	<line fill="none" stroke="#8B898A" stroke-miterlimit="10" x1="12.614" y1="5.13" x2="12.614" y2="7.587"/>
	<line fill="none" stroke="#8B898A" stroke-miterlimit="10" x1="11.187" y1="5.13" x2="11.187" y2="7.587"/>
	<line fill="none" stroke="#8B898A" stroke-miterlimit="10" x1="9.611" y1="5.13" x2="9.611" y2="7.587"/>
	<path fill="none" stroke="#8A8889" stroke-width="0.5" stroke-miterlimit="10" d="M6.582,24.438c-0.888,0-1.607-0.722-1.607-1.608
		V6.738c0-0.889,0.722-1.607,1.607-1.607h24.854c0.89,0,1.605,0.72,1.605,1.607v16.092c0,0.889-0.718,1.608-1.605,1.608H6.582z"/>
</g>
</svg>
