<?xml version="1.0" encoding="utf-8"?>
<!-- Generator: Adobe Illustrator 16.0.4, SVG Export Plug-In . SVG Version: 6.00 Build 0)  -->
<!DOCTYPE svg PUBLIC "-//W3C//DTD SVG 1.1//EN" "http://www.w3.org/Graphics/SVG/1.1/DTD/svg11.dtd">
<svg version="1.1" id="Calque_1" xmlns="http://www.w3.org/2000/svg" xmlns:xlink="http://www.w3.org/1999/xlink" x="0px" y="0px"
	 width="52.658px" height="39.967px" viewBox="0 0 52.658 39.967" enable-background="new 0 0 52.658 39.967" xml:space="preserve">
<path d="M24.686,4.967c0,2.231-1.809,4.04-4.04,4.04H8.062c-2.23,0-4.04-1.809-4.04-4.04l0,0c0-2.231,1.81-4.04,4.04-4.04h12.583
	C22.877,0.927,24.686,2.736,24.686,4.967L24.686,4.967z"/>
<path d="M24.636,34.934c0,2.23-1.809,4.04-4.04,4.04H8.013c-2.23,0-4.04-1.81-4.04-4.04l0,0c0-2.23,1.81-4.04,4.04-4.04h12.583
	C22.827,30.894,24.636,32.704,24.636,34.934L24.636,34.934z"/>
<ellipse cx="14.354" cy="0.994" rx="3.146" ry="0.993"/>
<path d="M48.436,4.966c0,2.231-1.809,4.04-4.04,4.04H31.812c-2.23,0-4.04-1.809-4.04-4.04l0,0c0-2.231,1.81-4.04,4.04-4.04h12.583
	C46.627,0.926,48.436,2.735,48.436,4.966L48.436,4.966z"/>
<ellipse cx="38.104" cy="0.993" rx="3.146" ry="0.993"/>
<ellipse cx="14.304" cy="38.973" rx="3.146" ry="0.994"/>
<path d="M48.436,34.934c0,2.23-1.809,4.04-4.04,4.04H31.813c-2.23,0-4.04-1.81-4.04-4.04l0,0c0-2.23,1.81-4.04,4.04-4.04h12.583
	C46.627,30.894,48.436,32.704,48.436,34.934L48.436,34.934z"/>
<ellipse cx="38.104" cy="38.973" rx="3.146" ry="0.994"/>
<path fill="#259ED6" d="M52.658,22.934c0,6.627-4.929,12-11.009,12H11.009c-6.08,0-11.008-5.373-11.008-12v-5.967
	c0-6.627,4.928-12,11.008-12H41.65c6.08,0,11.009,5.373,11.009,12V22.934z"/>
</svg>
