<?xml version="1.0" encoding="utf-8"?>
<!-- Generator: Adobe Illustrator 16.0.4, SVG Export Plug-In . SVG Version: 6.00 Build 0)  -->
<!DOCTYPE svg PUBLIC "-//W3C//DTD SVG 1.1//EN" "http://www.w3.org/Graphics/SVG/1.1/DTD/svg11.dtd">
<svg version="1.1" id="Capa_1" xmlns="http://www.w3.org/2000/svg" xmlns:xlink="http://www.w3.org/1999/xlink" x="0px" y="0px"
	 width="363.4px" height="258.432px" viewBox="6.5 152.068 363.4 258.432" enable-background="new 6.5 152.068 363.4 258.432"
	 xml:space="preserve">
<g>
	<path fill="#DCEFF3" d="M369.69,268.618c0-21.82-14.082-40.194-33.594-46.99c0.033-1.008,0.293-1.951,0.293-2.959
		c0-36.779-29.82-66.6-66.6-66.6l0,0c-24.943,0-46.421,13.886-57.836,34.179c-2.846-0.505-5.756-0.879-8.764-0.879
		c-21.821,0-40.178,14.082-46.974,33.593c-0.992-0.065-1.951-0.293-2.976-0.293c-27.577,0-49.95,22.374-49.95,49.95"/>
</g>
<g>
	<path fill="#DCEFF3" d="M203.4,381.284c24.943,0,46.421-13.887,57.836-34.179c2.846,0.505,5.756,0.879,8.764,0.879
		c21.821,0,40.179-14.081,46.975-33.593c0.992,0.064,1.951,0.293,2.976,0.293c27.577,0,49.95-22.374,49.95-49.95
		c0-27.577-22.373-49.95-49.95-49.95H153.451c-27.577,0-49.951,22.373-49.951,49.95c0,21.819,14.082,40.194,33.594,46.99
		c-0.033,1.009-0.293,1.951-0.293,2.96C136.801,351.464,166.621,381.284,203.4,381.284L203.4,381.284z"/>
</g>
<ellipse fill="#DCEFF3" cx="15" cy="401" rx="8.5" ry="9.5"/>
<ellipse fill="#DCEFF3" cx="47.5" cy="364.068" rx="14" ry="14.5"/>
<ellipse fill="#DCEFF3" cx="91.5" cy="329.068" rx="18" ry="20.5"/>
</svg>
