<?xml version="1.0" encoding="utf-8"?>
<!-- Generator: Adobe Illustrator 16.0.4, SVG Export Plug-In . SVG Version: 6.00 Build 0)  -->
<!DOCTYPE svg PUBLIC "-//W3C//DTD SVG 1.1//EN" "http://www.w3.org/Graphics/SVG/1.1/DTD/svg11.dtd">
<svg version="1.1" id="Calque_1" xmlns="http://www.w3.org/2000/svg" xmlns:xlink="http://www.w3.org/1999/xlink" x="0px" y="0px"
	 width="1053.113px" height="139.029px" viewBox="0 0 1053.113 139.029" enable-background="new 0 0 1053.113 139.029"
	 xml:space="preserve">
<rect x="86.333" y="-2.329" fill="#414040" width="1" height="135.979"/>
<rect x="81.05" y="2.038" fill="#030404" width="6" height="133.647"/>
<g>
	<path d="M36.444,43.73h11.247v3.924c0,1.375-0.439,2.509-1.317,3.398c-0.878,0.891-2.004,1.336-3.379,1.336h-1.862
		c-1.38,0-2.506-0.445-3.379-1.336s-1.31-2.024-1.31-3.398V43.73z M45.953,45.985h-7.778v1.669c0,0.742,0.277,1.34,0.83,1.792
		c0.554,0.453,1.263,0.681,2.128,0.681h1.877c0.86,0,1.565-0.228,2.116-0.681c0.551-0.452,0.827-1.05,0.827-1.792V45.985z"/>
	<path d="M41.388,60.624v-4.171h-3.213v4.959h-1.73v-7.216h11.247v7.199h-1.738v-4.943h-2.827v4.171L41.388,60.624L41.388,60.624z"
		/>
	<path d="M40.523,65.25h-4.079v-2.255h11.247v4.303c0,1.292-0.33,2.31-0.989,3.051c-0.659,0.741-1.527,1.112-2.604,1.112
		c-1.076,0-1.941-0.371-2.595-1.112c-0.654-0.742-0.98-1.759-0.98-3.051V65.25z M42.261,65.25v2.047
		c0,0.628,0.171,1.104,0.513,1.429c0.343,0.325,0.779,0.487,1.309,0.487c0.542,0,0.988-0.161,1.341-0.482
		c0.352-0.321,0.529-0.8,0.529-1.433V65.25H42.261z"/>
	<path d="M38.87,77.563v-3.646l-2.426-0.757v-2.356l11.247,3.792v2.311l-11.247,3.776v-2.355L38.87,77.563z M40.639,74.473v2.542
		l3.963-1.244v-0.046L40.639,74.473z"/>
	<path d="M40.94,84.021h-4.496v-2.255h11.247v3.895c0,1.281-0.292,2.284-0.877,3.008c-0.584,0.724-1.399,1.085-2.444,1.085
		c-0.577,0-1.075-0.153-1.495-0.459c-0.42-0.308-0.758-0.753-1.015-1.34c-0.196,0.665-0.523,1.142-0.981,1.433
		c-0.459,0.291-1.024,0.438-1.7,0.438h-0.826c-0.314,0-0.643,0.042-0.985,0.127c-0.342,0.085-0.596,0.229-0.76,0.437h-0.163v-2.325
		c0.165-0.206,0.438-0.338,0.819-0.396c0.381-0.061,0.749-0.089,1.105-0.089h0.796c0.561,0,0.997-0.154,1.309-0.46
		c0.312-0.307,0.468-0.74,0.468-1.302v-1.795H40.94z M42.678,84.021v1.6c0,0.634,0.134,1.104,0.402,1.414
		c0.268,0.309,0.664,0.463,1.189,0.463c0.515,0,0.925-0.156,1.229-0.469c0.303-0.311,0.456-0.769,0.456-1.37V84.02L42.678,84.021
		L42.678,84.021z"/>
	<path d="M45.953,99.3v-3.214h-9.509v-2.255h9.509v-3.167h1.738V99.3H45.953z"/>
</g>
<rect x="241.333" y="3.701" fill="#439AD2" width="7" height="133.404"/>
<rect x="566.724" y="3.701" fill="#439AD2" width="7" height="133.404"/>
<rect x="808.724" y="2.813" fill="#439AD2" width="7" height="133.404"/>
<rect x="404.39" y="4.102" fill="#439AD2" width="7" height="133.404"/>
<rect x="486.989" y="3.759" fill="#EB64A9" width="7" height="133.404"/>
<rect x="161.724" y="3.701" fill="#EB64A9" width="7" height="133.404"/>
<rect x="968.193" y="3.759" fill="#439AD2" width="7" height="133.404"/>
<rect x="647.36" y="2.813" fill="#FCB141" width="7" height="133.404"/>
<rect x="887.391" y="2.16" fill="#FCB141" width="7" height="133.404"/>
<rect x="322.057" y="2.813" fill="#FCB141" width="7" height="133.404"/>
<rect x="728.332" y="3.847" fill="#42B34F" width="7" height="133.404"/>
<rect x="1041.998" y="2.813" fill="#42B34F" width="7" height="133.404"/>
<rect x="2" y="2" fill="none" stroke="#000000" stroke-width="4" stroke-miterlimit="10" width="1049.113" height="135.029"/>
</svg>
