<?xml version="1.0" encoding="utf-8"?>
<!-- Generator: Adobe Illustrator 16.0.4, SVG Export Plug-In . SVG Version: 6.00 Build 0)  -->
<!DOCTYPE svg PUBLIC "-//W3C//DTD SVG 1.1//EN" "http://www.w3.org/Graphics/SVG/1.1/DTD/svg11.dtd">
<svg version="1.1" id="Capa_1" xmlns="http://www.w3.org/2000/svg" xmlns:xlink="http://www.w3.org/1999/xlink" x="0px" y="0px"
	 width="117.953px" height="118.042px" viewBox="150.879 0 117.953 118.042" enable-background="new 150.879 0 117.953 118.042"
	 xml:space="preserve">
<g id="Close">
	<path fill="#F04237" d="M223.239,58.351l41.134-41.133c3.787-3.787,3.787-9.925,0-13.711c-3.786-3.786-9.925-3.786-13.711,0
		L209.528,44.64L168.394,3.505c-3.786-3.786-9.925-3.786-13.711,0c-3.786,3.787-3.786,9.925,0,13.711l41.134,41.133l-41.134,41.134
		c-3.786,3.787-3.786,9.925,0,13.711s9.925,3.786,13.711,0l41.135-41.134l41.134,41.134c3.786,3.786,9.925,3.786,13.711,0
		c3.787-3.786,3.787-9.925,0-13.711L223.239,58.351z"/>
</g>
</svg>
