<?xml version="1.0" encoding="utf-8"?>
<!-- Generator: Adobe Illustrator 16.0.4, SVG Export Plug-In . SVG Version: 6.00 Build 0)  -->
<!DOCTYPE svg PUBLIC "-//W3C//DTD SVG 1.1//EN" "http://www.w3.org/Graphics/SVG/1.1/DTD/svg11.dtd">
<svg version="1.1" id="Capa_1" xmlns="http://www.w3.org/2000/svg" xmlns:xlink="http://www.w3.org/1999/xlink" x="0px" y="0px"
	 width="117.953px" height="118.042px" viewBox="150.879 0 117.953 118.042" enable-background="new 150.879 0 117.953 118.042"
	 xml:space="preserve">
<g>
	<path fill="#F04237" d="M268.787,110.578l0.045-67.61c0-2.062-0.834-3.931-2.185-5.283c-1.352-1.353-3.22-2.189-5.281-2.191
		c-4.125-0.003-7.472,3.339-7.475,7.465l-0.033,49.576L163.634,2.191c-2.915-2.919-7.646-2.922-10.563-0.006
		c-2.919,2.915-2.923,7.645-0.008,10.564l90.225,90.342l-49.576-0.032c-4.126-0.003-7.473,3.339-7.475,7.465
		c-0.003,4.125,3.34,7.472,7.465,7.475l67.611,0.044C265.438,118.045,268.784,114.704,268.787,110.578z"/>
</g>
</svg>
