<?xml version="1.0" encoding="utf-8"?>
<!-- Generator: Adobe Illustrator 16.0.4, SVG Export Plug-In . SVG Version: 6.00 Build 0)  -->
<!DOCTYPE svg PUBLIC "-//W3C//DTD SVG 1.1//EN" "http://www.w3.org/Graphics/SVG/1.1/DTD/svg11.dtd">
<svg version="1.1" id="Capa_1" xmlns="http://www.w3.org/2000/svg" xmlns:xlink="http://www.w3.org/1999/xlink" x="0px" y="0px"
	 width="117.953px" height="118.042px" viewBox="150.879 0 117.953 118.042" enable-background="new 150.879 0 117.953 118.042"
	 xml:space="preserve">
<g>
	<path fill="#3BB54A" d="M261.312,0l-67.611,0.044c-4.125,0.003-7.468,3.35-7.465,7.475c0.002,4.126,3.349,7.468,7.475,7.465
		l49.576-0.032l-90.225,90.342c-2.915,2.919-2.911,7.649,0.008,10.564c2.918,2.916,7.648,2.913,10.563-0.006l90.225-90.342
		l0.033,49.576c0.003,4.125,3.35,7.468,7.475,7.465c2.062-0.002,3.93-0.838,5.281-2.191c1.351-1.353,2.185-3.222,2.185-5.283
		l-0.045-67.61C268.784,3.339,265.438-0.002,261.312,0z"/>
</g>
</svg>
