<?xml version="1.0" encoding="utf-8"?>
<!-- Generator: Adobe Illustrator 16.0.4, SVG Export Plug-In . SVG Version: 6.00 Build 0)  -->
<!DOCTYPE svg PUBLIC "-//W3C//DTD SVG 1.1//EN" "http://www.w3.org/Graphics/SVG/1.1/DTD/svg11.dtd">
<svg version="1.1" id="Calque_1" xmlns="http://www.w3.org/2000/svg" xmlns:xlink="http://www.w3.org/1999/xlink" x="0px" y="0px"
	 width="185.449px" height="204.5px" viewBox="0 0 185.449 204.5" enable-background="new 0 0 185.449 204.5" xml:space="preserve">
<g>
	<path fill-rule="evenodd" clip-rule="evenodd" fill="#23696A" d="M9.75,132.55l1.05,0.7c0.5-0.833,1.116-1.184,1.85-1.05
		c0.867,0.233,1.4,0.616,1.601,1.15l1.25-1.7c0.566-0.2,1.033-0.101,1.399,0.3c0.867-2.467,2.601-3.75,5.2-3.85
		c2.9,0.566,5.333,1.699,7.3,3.399c2.233,2,3.834,3.9,4.8,5.7c1.867-0.1,3.551,0.7,5.051,2.4l1.75,2.6c2.199-0.5,4.483,0.3,6.85,2.4
		c2.267,2.366,3.633,4.616,4.1,6.75c0.134,0.933,0.184,1.85,0.15,2.75c1.333-0.434,2.267,0.033,2.8,1.399l0.3,0.65l0.15,0.5
		l-5.05-1.75c-1.867,2.3-4.233,3.366-7.101,3.2l0.9,0.449l-0.05,1l1.649,0.9l-0.3,0.5l-4.25-1.4c-0.566,0.467-1.2,0.9-1.899,1.301
		c-0.134,0.066-0.284,0.133-0.45,0.199c-0.733,0.4-1.566,0.767-2.5,1.101c-2.467,0.8-5,1.149-7.601,1.05l-1.949-0.05
		c-1.267-0.101-2.517-0.283-3.75-0.55c-0.801-0.2-1.267-0.334-1.4-0.4l-12.45,37.3c-1.566,0-2.899-0.434-4-1.3l12.7-34
		c-0.434-0.134-0.9-0.283-1.4-0.45c-3.366-1.133-5.966-2.95-7.8-5.45c-1.333-1.866-1.95-3.683-1.85-5.449l-6.8-2.4l1.449-0.65
		l1.601,0.45c0.066-0.467,0.184-0.85,0.35-1.149c0.4-1.067,1.066-1.717,2-1.95c-1.467-1.7-1.6-4.25-0.399-7.65l-3.9-1.25
		c0.5-1.533,1.2-2.666,2.1-3.399c1.134-0.9,2.551-1.167,4.25-0.801C7.816,133.717,8.583,133.217,9.75,132.55z M37.05,150.45
		l-2.101-0.75c-0.166,0.3-0.3,0.634-0.399,1c-0.634,1.833-0.584,3.65,0.149,5.45l2-4.9l-1.649,5.7c0.033,0.033,0.066,0.066,0.1,0.1
		c0.767,1.4,1.816,2.5,3.15,3.301c0.7-0.334,1.35-0.717,1.95-1.15l-2.95-1c0.066-0.5,0.5-0.783,1.3-0.85
		c0.434,0,0.8,0.066,1.1,0.199c0.134-0.199,0.767-0.283,1.9-0.25l0.5,0.301c1.233-1.267,2.15-2.784,2.75-4.551l-7.9-2.75
		L37.05,150.45z M45.3,153.7c-0.533,1.533-1.267,2.866-2.2,4c2.767,0.3,5-0.684,6.7-2.95l-4.351-1.5
		C45.449,153.45,45.399,153.601,45.3,153.7z M33.949,150.8c0.167-0.433,0.351-0.866,0.551-1.3l-1.4-0.399
		c-1.533,3.066-4.434,4.666-8.7,4.8l-2.55,7.399c2.634,0.867,5.217,1.267,7.75,1.2c0.066,0,0.134,0,0.2,0
		c2.066-0.066,4.083-0.416,6.05-1.05c0.733-0.267,1.417-0.55,2.05-0.85c-1.5-0.834-2.649-2.017-3.45-3.551
		C33.383,155.017,33.216,152.934,33.949,150.8z M26.8,146.95l-2.2,6.4c4.134,0.033,6.884-1.417,8.25-4.351L26.8,146.95z
		 M17.899,143.95c-1.8,2.634-3.434,4.066-4.899,4.3c0.1,0.066,0.199,0.15,0.3,0.25c0.533,0.533,0.899,1.134,1.1,1.8
		c1.233-0.033,2.417,0.7,3.55,2.2c0.301,0.634,0.483,1.233,0.551,1.8c0.133,0.9-0.067,1.7-0.601,2.4v0.05l-4.7-1.649L11.3,160.3
		c1.566,1.367,3.467,2.434,5.7,3.2c0.3,0.134,0.616,0.233,0.949,0.3l6.15-17.75L17.899,143.95z M11.35,141.7l-1.75,4.9
		c0.467,0.133,0.917,0.283,1.35,0.449c0.7,0.267,1.301,0.567,1.801,0.9c0.699-0.134,1.449-0.583,2.25-1.35h0.05
		c-1.2-1.301-1.434-2.601-0.7-3.9L11.35,141.7z M10.649,141.45l-5.25-1.95c-1.267,3.733-1.149,6.25,0.351,7.55
		c0.1,0,0.166-0.017,0.199-0.05H6c1.199-0.333,2.183-0.517,2.949-0.55L10.649,141.45z M14.649,142.8
		c-0.6,1.267-0.399,2.483,0.601,3.65c0.733-0.7,1.466-1.6,2.199-2.7L14.649,142.8z M7.35,153.05c0,1.601,0.634,3.267,1.9,5
		c0.533,0.767,1.116,1.417,1.75,1.95l1.949-5.05L7.35,153.05z"/>
</g>
<g>
	<g>
		<path fill-rule="evenodd" clip-rule="evenodd" fill="#679A2F" d="M125.449,69.25c-0.699,0.3-1.55,0.533-2.55,0.7
			c-1.1,0.233-2.233,0.3-3.399,0.2c-0.467-0.101-0.934-0.15-1.4-0.15c-0.8-0.1-1.633-0.267-2.5-0.5
			c-0.367-0.1-0.717-0.217-1.05-0.35c-0.2-0.066-0.384-0.134-0.55-0.2c-3.4-1.167-6.101-2.684-8.101-4.55
			c-1.399-1.434-2.183-2.783-2.35-4.05l22.35,7.399L127,68.101C126.6,68.533,126.083,68.917,125.449,69.25z M127.649,65.8
			c-0.399-0.133-0.767-0.283-1.1-0.449c-0.2-0.067-0.384-0.167-0.55-0.301c-1.567-0.767-2.567-1.649-3-2.649l4.3,0.2h1.1l12,0.5
			h0.45l3.1,0.1c-0.467,0.934-1.399,1.717-2.8,2.35c-0.366,0.167-0.733,0.334-1.1,0.5c-0.134,0-0.283,0.051-0.45,0.15
			c-1.767,0.533-3.783,0.783-6.05,0.75C131.35,66.851,129.383,66.467,127.649,65.8z M44.35,29.3c-1.366-0.8-2.517-1.699-3.45-2.699
			c-0.967-1.134-1.467-2.184-1.5-3.15l5.7,2.3l0.2,0.15l12,4.899c-0.667,0.601-1.783,0.983-3.351,1.15
			c-2.133,0.033-4.467-0.417-7-1.35c-0.8-0.367-1.55-0.717-2.25-1.051C44.566,29.45,44.449,29.367,44.35,29.3z M70.199,23.95
			c-0.133-0.066-0.232-0.116-0.3-0.15c-1.7-0.699-3.1-1.583-4.2-2.649c-1.133-1.033-1.767-2.017-1.899-2.95l6.7,2.1l0.199,0.051
			l8.75,2.699l0.4,0.15l2.5,0.75c-0.667,0.733-1.667,1.2-3,1.4c-0.133,0-0.217,0.017-0.25,0.05c-0.1,0.033-0.2,0.05-0.3,0.05
			c-2.067,0.233-4.317-0.05-6.75-0.85C71.383,24.4,70.767,24.184,70.199,23.95z M81.35,16.25c-1.934-0.366-3.617-1-5.05-1.899
			c-1.5-0.834-2.45-1.75-2.851-2.75l21,1.8c-0.467,0.934-1.467,1.684-3,2.25c-2.133,0.866-4.683,1.166-7.649,0.899
			c-0.833-0.066-1.601-0.149-2.3-0.25C81.433,16.267,81.383,16.25,81.35,16.25z M101.199,10.95c-0.333-0.033-0.666-0.083-1-0.15
			C100,10.733,99.8,10.684,99.6,10.65c-1.033-0.167-2.15-0.45-3.35-0.851c-3.233-1.133-5.783-2.666-7.65-4.6
			c-1.333-1.4-2.1-2.75-2.3-4.05l14.5,5.1l0.35,0.05l1.3,0.45l0.25,0.101l6.101,2.1c-0.733,1-2.033,1.634-3.9,1.9
			c-1,0.166-2.05,0.216-3.149,0.149C101.55,10.967,101.366,10.95,101.199,10.95z M131.649,7.15l-0.05-0.05h0.05h0.2h18.9
			c-0.367,0.899-1.2,1.683-2.5,2.35c-1.834,0.9-4.101,1.366-6.801,1.4c-2.767-0.034-5.133-0.517-7.1-1.45
			c-1.233-0.601-2.1-1.3-2.6-2.101C131.683,7.233,131.649,7.184,131.649,7.15z M126,18.3l25.949,8c-1,1.134-2.732,1.867-5.199,2.2
			c-3.334,0.467-7.101,0.084-11.301-1.149c-4.267-1.233-7.649-3.051-10.149-5.45c-0.267-0.267-0.533-0.517-0.8-0.75
			c-0.134-0.167-0.25-0.3-0.351-0.4c-0.033-0.033-0.066-0.066-0.1-0.1c-0.2-0.233-0.384-0.467-0.55-0.7
			c-0.667-0.967-1.084-1.884-1.25-2.75l2.399,0.75l0.8,0.15l0.101,0.05L126,18.3z M133.649,39.55h0.101l10.649,1.051
			c-0.366,0.866-1.25,1.566-2.649,2.1c-1.967,0.7-4.317,0.934-7.051,0.7c-0.633-0.066-1.217-0.15-1.75-0.25
			c-0.133-0.033-0.25-0.066-0.35-0.101c-1.8-0.333-3.367-0.916-4.7-1.75c-1.3-0.833-2.116-1.699-2.45-2.6L133.649,39.55z
			 M144.85,47.101l0.05,0.05l22.851,7.6l-0.301,1.5c-0.8,0.533-1.866,0.867-3.199,1c-3.233,0.533-6.783,0.15-10.65-1.149
			c-3.934-1.301-7.033-3.101-9.3-5.4l-0.101-0.05c-0.1-0.101-0.183-0.184-0.25-0.25c-1.467-1.566-2.283-3.033-2.449-4.4
			L144.85,47.101z M184.55,46.851L185.449,47c-0.199,0.334-0.5,0.65-0.899,0.95V46.851z M37.35,20.7
			c-0.533-0.066-1.066-0.134-1.6-0.2c-1.233-0.166-2.467-0.434-3.7-0.8c-3.434-1.1-6.167-2.55-8.2-4.35
			c-1.533-1.267-2.384-2.483-2.55-3.65l24.2,7.1c-0.834,0.867-2.233,1.434-4.2,1.7C40.033,20.733,38.716,20.8,37.35,20.7z
			 M74.699,101.5l7.851,2.5l3.75,1.15l1.95,0.6c-0.533,0.601-1.417,1.066-2.65,1.4c-0.2,0-0.383,0.017-0.55,0.05
			c-1.134,0.167-2.351,0.15-3.65-0.05c-1.1-0.134-2.233-0.4-3.399-0.8c-1.667-0.5-3.117-1.134-4.351-1.9
			c-0.733-0.434-1.399-0.934-2-1.5c-0.033-0.033-0.05-0.066-0.05-0.1c-1.066-1.034-1.667-1.983-1.8-2.851l2.6,0.8L74.699,101.5z"/>
		<path fill-rule="evenodd" clip-rule="evenodd" fill="#71AB2D" d="M145.25,79.8c-0.601-0.133-1.167-0.267-1.7-0.399
			c-0.867-0.233-1.7-0.517-2.5-0.851c-0.067-0.033-0.117-0.05-0.15-0.05c-0.667-0.333-1.233-0.633-1.7-0.899
			c-0.732-0.467-1.3-0.95-1.699-1.45c-0.067-0.101-0.134-0.2-0.2-0.3h0.3l26.15,0.699c-0.467,1-1.634,1.834-3.5,2.5
			c-1.5,0.567-3.233,0.95-5.2,1.15c-1.333,0.167-2.767,0.217-4.3,0.15C148.75,80.283,146.916,80.101,145.25,79.8z M132.25,97.15
			c-0.4-0.101-0.783-0.2-1.15-0.3h-0.05c-2.9-0.867-5.184-2.134-6.851-3.801c-1.232-1.133-1.916-2.216-2.05-3.25l10.05,3.15l1,0.3
			l9.101,2.9c-0.733,0.733-1.884,1.25-3.45,1.55C136.816,97.967,134.616,97.783,132.25,97.15z M50.949,92.05
			c-0.5-0.166-0.982-0.35-1.449-0.55c-0.533-0.2-1.033-0.416-1.5-0.649c-1.634-0.767-3.034-1.634-4.2-2.601
			c-1.5-1.333-2.351-2.55-2.55-3.649l8,2.3L52,87.65l13.899,3.95c-0.8,0.866-2.2,1.449-4.2,1.75c-2.566,0.333-5.399,0.116-8.5-0.65
			c-0.333-0.134-0.666-0.233-1-0.3C51.767,92.267,51.35,92.15,50.949,92.05z M96.899,66.25l2.65,0.851L105.699,69
			c-0.699,0.8-1.85,1.334-3.449,1.601c-1.233,0.166-2.551,0.166-3.95,0C97.399,70.5,96.449,70.3,95.449,70
			c-0.333-0.066-0.666-0.149-1-0.25c-2.767-0.866-5.017-2.1-6.75-3.7c-0.066-0.033-0.1-0.066-0.1-0.1
			c-1.233-1.167-1.917-2.25-2.05-3.25L96.899,66.25z M77.3,33.9c-0.233-0.134-0.467-0.233-0.7-0.3c-0.8-0.301-1.533-0.65-2.2-1.051
			c-1.5-0.866-2.467-1.8-2.899-2.8l6.05,0.5l0.649,0.05l14.25,1.101c-0.399,0.899-1.35,1.666-2.85,2.3
			c-2.133,0.9-4.684,1.217-7.65,0.95C80.25,34.517,78.699,34.267,77.3,33.9z M97.25,24.7c-1.268-0.634-2.367-1.384-3.301-2.25
			c-1.199-1.2-1.866-2.283-2-3.25l6.351,2l0.899,0.25l12.9,4c-0.7,0.8-1.85,1.333-3.45,1.6c-2.333,0.267-4.917-0.033-7.75-0.899
			c-0.933-0.3-1.8-0.601-2.6-0.9C97.967,25.084,97.616,24.9,97.25,24.7z M118.899,11.851c-0.433-0.2-0.833-0.417-1.2-0.65
			c-0.933-0.6-1.767-1.233-2.5-1.9c-1.232-1.166-1.916-2.25-2.05-3.25l5.75,1.851l1.25,0.35l9.25,2.851l0.25,0.149l3.7,1.101
			c-0.7,0.767-1.883,1.283-3.55,1.55c-0.5,0.1-1.033,0.149-1.601,0.149c-0.166,0-0.316,0-0.449,0c-1.768,0-3.667-0.316-5.7-0.949
			C120.916,12.733,119.866,12.316,118.899,11.851z M119.8,53.65c-0.2-0.033-0.4-0.066-0.601-0.101
			c-0.533-0.133-1.066-0.283-1.6-0.449c-2.867-0.934-5.15-2.2-6.85-3.801c-1.268-1.199-1.95-2.283-2.051-3.25l11.65,3.601l0.55,0.2
			l7.55,2.3c0.033,0.133,0.067,0.267,0.101,0.399c-0.7,0.667-1.75,1.117-3.15,1.351C123.699,54.134,121.833,54.05,119.8,53.65z
			 M35.699,33.45l0.65,0.3l0.95,0.45c-0.334,0.5-0.733,0.917-1.2,1.25c-0.3,0.2-0.6,0.384-0.9,0.55c-0.5,0.2-1.033,0.367-1.6,0.5
			c-2.434,0.5-5.167,0.084-8.2-1.25c-3-1.267-5.383-3.116-7.149-5.55c-1.301-1.767-2.017-3.434-2.15-5L35.699,33.45z M67.8,40.75
			c-0.267,0.101-0.5,0.2-0.7,0.3c-0.066,0.034-0.117,0.051-0.15,0.051c-0.3,0.033-0.566,0.133-0.8,0.3
			c-1.467,0.434-3.033,0.684-4.7,0.75c-3.533,0.3-6.6-0.283-9.199-1.75c-1.934-0.967-3.217-2.117-3.851-3.45l18.55-1.05l0.65,0.05
			l5.6-0.4c-0.399,1.367-1.433,2.667-3.1,3.9C69.366,39.95,68.6,40.384,67.8,40.75z"/>
		<path fill-rule="evenodd" clip-rule="evenodd" fill="#413E3D" d="M132.199,92.95l7.4-26.75c0.167-0.1,0.316-0.15,0.45-0.15
			l-2.45,9.801h-0.3c0.066,0.1,0.133,0.199,0.2,0.3l-1,3.899l6.1,1.65l0.95-2.3c0.533,0.133,1.1,0.267,1.7,0.399l-1.2,3.45
			l-8.101-0.8l-2.75,10.8L132.199,92.95z M131.1,96.851c0.367,0.1,0.75,0.199,1.15,0.3l-1.65,6.55l-1.25-0.4L131.1,96.851z
			 M127.649,65.8l-2.25,9.601l-11.2-0.851l-5.25,19.7l-1.699-0.55l7.3-24.55c0.333,0.133,0.683,0.25,1.05,0.35l-0.8,2.851
			l9.399,1.399l1.25-4.5c0.634-0.333,1.15-0.717,1.551-1.149l-1.101-0.351l0.65-2.399C126.883,65.517,127.25,65.667,127.649,65.8z
			 M101.899,115.45l-1.1-0.05l4.85-16.3c0.634,0.166,1.25,0.3,1.851,0.399l-4.2,15.8l-1.5-0.05
			C101.833,115.316,101.866,115.384,101.899,115.45z M124.199,121.65c0.4-0.134,0.783-0.283,1.15-0.45
			c0.233-0.167,0.533-0.316,0.9-0.45l-6.4,25.05l-24.05-2.5v0.101l-2.101,6.5l-22.8-1.4l-6,17l-13.649,0.25L38.1,204.5l-6.4-2.899
			l39.9-98.75c0,0.033,0.017,0.066,0.05,0.1c0.601,0.566,1.267,1.066,2,1.5l-20.7,56.05l8.9-1.649l19.55-51.7
			c1.3,0.2,2.517,0.217,3.65,0.05c0.167-0.033,0.35-0.05,0.55-0.05L72.75,143.9l18.899,2.2l7.8-26.2
			c0.067,0.033,0.134,0.066,0.2,0.1c0.667,0.367,1.367,0.7,2.101,1l-5.2,19.351l21.649,3.1L124.199,121.65z M98.3,70.601
			l-6.351,18.25L91.6,88.75c0.033,0.233,0.083,0.5,0.15,0.8L86.3,105.15L82.55,104l12.899-34C96.449,70.3,97.399,70.5,98.3,70.601z
			 M85.149,73.101l-1.35-0.4l2.649-6.75h1.15c0,0.033,0.033,0.066,0.1,0.1L85.149,73.101z M99.55,67.101l-2.65-0.851l7.2-19.1
			c0.267-0.233,0.5-0.467,0.7-0.7l-0.351-0.15l0.25-0.75L93,39.65l4.25-14.95c0.366,0.2,0.717,0.384,1.05,0.55L95.1,38.9
			l10.45,4.399l12.149-32.1c0.367,0.233,0.768,0.45,1.2,0.65l-6.25,18.1l5.351,1.65l5.1-9c0.1,0.166,0.217,0.333,0.35,0.5
			l-5.05,9.649L112,31.25L99.55,67.101z M118.899,7.9l2.95-7.9l-0.1,3.7l-1.601,4.55L118.899,7.9z M99.199,21.45L98.3,21.2
			l2.899-10.25c0.167,0,0.351,0.017,0.551,0.05L99.199,21.45z M102.449,6.75l1.5-5.2l-1.25,5.301L102.449,6.75z M133.649,39.55
			l0.95-3.5l-0.85,3.5H133.649z M124.149,20.75c0.101,0.101,0.217,0.233,0.351,0.4l-0.101,0.149l-0.55-0.1L124.149,20.75z M126,18.3
			l-0.45-0.149l2.2-4.101c0.133,0,0.283,0,0.449,0L126,18.3z M129.649,11.25l-0.25-0.149l2.25-3.95c0,0.033,0.033,0.083,0.101,0.149
			L129.649,11.25z M131.649,7.101L134.75,1.5l-2.9,5.601H131.649z M128.399,62.601h-1.1l2.25-8.25
			c0.167,0.233,0.366,0.466,0.6,0.699L128.399,62.601z M120.35,49.65l5.8-19.8l-5.25,20L120.35,49.65z M119.199,53.55
			c0.2,0.034,0.4,0.067,0.601,0.101l-2.9,10.899L116,64.3L119.199,53.55z M132.6,43.05c0.1,0.034,0.217,0.067,0.35,0.101l-2.1,8.899
			l-0.6-0.25L132.6,43.05z M151.699,59.5l0.7-1.649l-0.55,1.699L151.699,59.5z M150.199,63.101c0.167,0,0.317,0,0.45,0l-4.2,12.949
			l-1.5-0.1L150.199,63.101z M142.55,56.25l-0.2-0.05l0.95-3.65c0.066,0.034,0.133,0.084,0.2,0.15L142.55,56.25z M140.85,63.101
			h-0.45l0.4-1.45c0.1,0.033,0.233,0.083,0.399,0.149L140.85,63.101z M144.899,47.15l-0.05-0.05l0.85-3.25L144.899,47.15z
			 M72.399,100.8l9.4-23.199c0.5,0.066,1.05,0.116,1.649,0.149l-8.75,23.75L72.399,100.8z M127.149,111.101
			c0.434,0.166,0.884,0.366,1.351,0.6l-1,4.05h-1.65L127.149,111.101z"/>
		<path fill-rule="evenodd" clip-rule="evenodd" fill="#554D4B" d="M68.25,72.101l-2.351,9.85l10.05,4.5l4.101-9.15
			c0.6,0.101,1.183,0.2,1.75,0.301l-9.4,23.199l-2.6-0.8c0.133,0.867,0.733,1.816,1.8,2.851l-39.9,98.75l-6.25-2.801l27.301-60.85
			l-16.95-8.3l10.1-32.15L32.8,87.2l2.8-14c0.6,0.333,1.233,0.634,1.9,0.9l-2.101,13.1l11.3,7.35L48,90.851
			c0.467,0.233,0.967,0.449,1.5,0.649c0.467,0.2,0.949,0.384,1.449,0.55L42.6,126.7l13,4.9l19-42.5l-11.15-6.5l3.15-11.95
			c0.2,0.2,0.383,0.383,0.55,0.55C67.517,71.5,67.883,71.8,68.25,72.101z M67.5,67.55l2.35-9c0.5,0.134,1.017,0.25,1.55,0.351
			l-2.2,9.2L67.5,67.55z M38.399,68.65l-1.75-0.55L38.25,60c0.5,0.167,0.983,0.316,1.449,0.45L38.399,68.65z M39.5,53.65l0.25-1.351
			L33.6,49l1.7-12.75c0.3-0.1,0.583-0.217,0.85-0.35L35.1,48.8l4.85,1.95l4.4-21.45c0.1,0.067,0.217,0.15,0.35,0.25L40.75,54.101
			L39.5,53.65z M70.5,20.3l1.149-7.05l-0.95,7.101L70.5,20.3z M69.899,23.8c0.067,0.034,0.167,0.084,0.3,0.15l-1.699,11.9
			L67.949,35.8L69.899,23.8z M45.3,25.9l-0.2-0.15l1.1-5.45L45.3,25.9z M54.899,75.55L52,87.65l-2.75-0.75l3.449-10.65
			C53.533,76.05,54.267,75.816,54.899,75.55z M55.199,73.9l-1.55-0.45L60,54.05L55.199,73.9z M83.8,72.7l-1.45-0.45l2.75-6.3h1.35
			L83.8,72.7z M76.6,33.601c0.233,0.066,0.467,0.166,0.7,0.3l-0.45,1.95l-0.8-0.301L76.6,33.601z M79.35,25.351l-1.15,4.949
			l-0.649-0.05l1.25-4.8c0.1,0,0.2-0.017,0.3-0.05C79.133,25.367,79.217,25.351,79.35,25.351z M79.449,23.05l1.9-6.8
			c0.033,0,0.083,0.017,0.15,0.05l-1.65,6.9L79.449,23.05z M36.35,33.75l-0.65-0.3l1.65-12.75L36.35,33.75z M67.1,41.05
			c0.2-0.1,0.434-0.199,0.7-0.3l-0.8,5.5l5.5,2.15l2.449-8.95c0.2,0.366,0.45,0.75,0.75,1.15L73,52.05l-1.4,0.101l0.65-2.65
			l-6.101-2.85L67.1,41.05z"/>
		<path fill-rule="evenodd" clip-rule="evenodd" fill="#7FBA2F" d="M129.35,103.3l1.25,0.4l25.4,8.35
			c-1.268,1.301-3.45,2.101-6.551,2.4c-4.366,0.4-9.133-0.267-14.3-2c-1.267-0.4-2.483-0.85-3.649-1.35
			c-0.601-0.267-1.184-0.5-1.75-0.7c-2.801-1.334-5.167-2.9-7.101-4.7c-2.167-1.967-3.316-3.884-3.45-5.75L129.35,103.3z
			 M101.899,115.45l29.2,0.6c-0.667,1.733-2.25,3.284-4.75,4.65c-0.033,0-0.066,0.017-0.1,0.05c-0.367,0.134-0.667,0.283-0.9,0.45
			c-0.367,0.167-0.75,0.316-1.15,0.45c-0.433,0.133-0.866,0.25-1.3,0.35c-2.866,0.934-6.116,1.384-9.75,1.351
			c-4.3-0.2-8.1-0.983-11.399-2.351c-0.733-0.3-1.434-0.633-2.101-1c-0.066-0.033-0.133-0.066-0.2-0.1
			c-1.566-0.8-2.816-1.733-3.75-2.8c-0.6-0.567-1.066-1.184-1.399-1.851l6.5,0.15L101.899,115.45z M107.25,93.7l1.699,0.55
			L119.8,97.7c-0.934,1.066-2.567,1.75-4.9,2.05c-2.267,0.367-4.733,0.283-7.399-0.25c-0.601-0.1-1.217-0.233-1.851-0.399
			c-0.533-0.134-1.083-0.284-1.649-0.45c-3.934-1.267-7.117-3.033-9.551-5.3c-1.5-1.301-2.399-2.567-2.699-3.801
			c-0.067-0.3-0.117-0.566-0.15-0.8l0.35,0.101L107.25,93.7z M40.75,54.101l14.149,5.1c-1.1,1.167-2.967,1.866-5.6,2.1
			c-2.967,0.4-6.167,0.117-9.601-0.85c-0.466-0.134-0.949-0.283-1.449-0.45c-0.134-0.033-0.284-0.083-0.45-0.149
			c-0.2-0.101-0.434-0.184-0.7-0.25c-0.3-0.167-0.583-0.284-0.85-0.351c-4.101-1.533-7.351-3.533-9.75-6
			c-1.834-1.8-2.801-3.566-2.9-5.3l15.9,5.7L40.75,54.101z M54.899,75.55c-0.633,0.267-1.366,0.5-2.2,0.7
			c-0.333,0.066-0.717,0.134-1.149,0.2c-3.2,0.467-6.783,0.083-10.75-1.15c-1.167-0.333-2.267-0.733-3.3-1.199
			c-0.667-0.267-1.301-0.567-1.9-0.9c-1.733-0.934-3.233-2-4.5-3.2c-1.7-1.566-2.65-3.083-2.85-4.55l8.399,2.65l1.75,0.55l15.25,4.8
			l1.55,0.45l1.351,0.45C56.116,74.783,55.566,75.184,54.899,75.55z M68.25,72.101c-0.367-0.301-0.733-0.601-1.101-0.9
			c-0.167-0.167-0.35-0.35-0.55-0.55c-1.367-1.434-2.133-2.783-2.3-4.05l3.2,0.949l1.699,0.551l13.15,4.149l1.45,0.45l1.35,0.4
			l7.4,2.3c-0.967,1.1-2.601,1.833-4.9,2.2c-1.333,0.199-2.733,0.25-4.2,0.149c-0.6-0.033-1.149-0.083-1.649-0.149
			c-0.567-0.101-1.15-0.2-1.75-0.301c-1.067-0.233-2.167-0.517-3.3-0.85C73.316,75.351,70.482,73.9,68.25,72.101z M104.449,46.3
			l0.351,0.15c-0.2,0.233-0.434,0.467-0.7,0.7c-1.066,0.833-2.65,1.366-4.75,1.6c-3.633,0.434-7.65-0.2-12.05-1.899
			c-4.367-1.634-7.817-3.801-10.351-6.5c-0.366-0.4-0.717-0.784-1.05-1.15c-0.333-0.467-0.616-0.9-0.85-1.3
			c-0.667-1.101-1.033-2.15-1.101-3.15l2.101,0.8l0.8,0.301L104.449,46.3z M150.199,63.101c-2.767,0.166-5.767-0.267-9-1.301
			c-0.166-0.066-0.3-0.116-0.399-0.149c-0.2-0.066-0.367-0.134-0.5-0.2c-4-1.4-7.15-3.267-9.45-5.6
			c-0.267-0.267-0.5-0.534-0.7-0.801c-0.233-0.233-0.433-0.466-0.6-0.699c-0.434-0.601-0.767-1.2-1-1.801
			c-0.033-0.133-0.067-0.267-0.101-0.399c-0.133-0.334-0.217-0.684-0.25-1.05l2.051,0.699l0.6,0.25l11.5,4.15l0.2,0.05l9.149,3.25
			l0.15,0.05l4.2,1.551c-0.967,1.033-2.634,1.683-5,1.949c-0.134,0.034-0.267,0.051-0.4,0.051
			C150.517,63.101,150.366,63.101,150.199,63.101z M71.6,52.15L73,52.05l26.25-1.199c-0.567,1.8-2.067,3.416-4.5,4.85
			c-3.467,2.1-7.783,3.267-12.95,3.5c-2.967,0.2-5.684,0.066-8.15-0.4c-0.667-0.133-1.316-0.283-1.95-0.449
			c-1.232-0.367-2.416-0.767-3.55-1.2c-2.7-1.233-4.55-2.767-5.55-4.601L71.6,52.15z"/>
	</g>
</g>
</svg>
