<?xml version="1.0" encoding="utf-8"?>
<!-- Generator: Adobe Illustrator 16.0.4, SVG Export Plug-In . SVG Version: 6.00 Build 0)  -->
<!DOCTYPE svg PUBLIC "-//W3C//DTD SVG 1.1//EN" "http://www.w3.org/Graphics/SVG/1.1/DTD/svg11.dtd">
<svg version="1.1" id="Calque_1" xmlns="http://www.w3.org/2000/svg" xmlns:xlink="http://www.w3.org/1999/xlink" x="0px" y="0px"
	 width="12.5px" height="13.518px" viewBox="563.879 1916.859 12.5 13.518" enable-background="new 563.879 1916.859 12.5 13.518"
	 xml:space="preserve">
<title>marker</title>
<circle fill="#FFFFFF" cx="570.129" cy="1923.203" r="6.25"/>
<g enable-background="new    ">
	<path d="M573.098,1927.125h-5.725v-1.119l2.643-2.988c0.395-0.465,0.674-0.858,0.84-1.181s0.25-0.618,0.25-0.888
		c0-0.352-0.088-0.633-0.264-0.844s-0.439-0.316-0.791-0.316c-0.371,0-0.658,0.135-0.861,0.404s-0.305,0.611-0.305,1.025h-1.664
		l-0.012-0.035c-0.02-0.758,0.23-1.399,0.75-1.925s1.217-0.788,2.092-0.788s1.555,0.224,2.039,0.671s0.727,1.048,0.727,1.802
		c0,0.512-0.137,0.979-0.408,1.4s-0.738,1.006-1.402,1.752l-1.406,1.688l0.012,0.029h3.486V1927.125z"/>
</g>
</svg>
