<?xml version="1.0" encoding="utf-8"?>
<!-- Generator: Adobe Illustrator 16.0.4, SVG Export Plug-In . SVG Version: 6.00 Build 0)  -->
<!DOCTYPE svg PUBLIC "-//W3C//DTD SVG 1.1//EN" "http://www.w3.org/Graphics/SVG/1.1/DTD/svg11.dtd">
<svg version="1.1" id="Calque_1" xmlns="http://www.w3.org/2000/svg" xmlns:xlink="http://www.w3.org/1999/xlink" x="0px" y="0px"
	 width="12.5px" height="13.518px" viewBox="563.879 1916.859 12.5 13.518" enable-background="new 563.879 1916.859 12.5 13.518"
	 xml:space="preserve">
<title>marker</title>
<circle fill="#FFFFFF" cx="570.129" cy="1923.203" r="6.25"/>
<g enable-background="new    ">
	<path d="M570.08,1922.109c0.406,0,0.707-0.105,0.904-0.316s0.297-0.508,0.297-0.891c0-0.32-0.104-0.586-0.311-0.797
		s-0.496-0.316-0.867-0.316c-0.312,0-0.576,0.096-0.789,0.287s-0.318,0.436-0.318,0.732h-1.652l-0.012-0.035
		c-0.023-0.668,0.234-1.219,0.773-1.652s1.205-0.65,1.998-0.65c0.883,0,1.584,0.208,2.104,0.624s0.779,1.013,0.779,1.79
		c0,0.391-0.113,0.749-0.338,1.075s-0.531,0.583-0.922,0.771c0.445,0.168,0.789,0.423,1.031,0.765s0.363,0.755,0.363,1.239
		c0,0.781-0.283,1.396-0.848,1.843s-1.287,0.671-2.17,0.671c-0.777,0-1.457-0.211-2.039-0.633s-0.863-1.014-0.844-1.775l0.012-0.035
		h1.664c0,0.32,0.111,0.589,0.336,0.806s0.516,0.325,0.871,0.325c0.391,0,0.707-0.115,0.949-0.346s0.363-0.521,0.363-0.873
		c0-0.449-0.113-0.782-0.34-0.999s-0.559-0.325-0.996-0.325h-0.943v-1.283H570.08z"/>
</g>
</svg>
