<?xml version="1.0" encoding="utf-8"?>
<!-- Generator: Adobe Illustrator 16.0.4, SVG Export Plug-In . SVG Version: 6.00 Build 0)  -->
<!DOCTYPE svg PUBLIC "-//W3C//DTD SVG 1.1//EN" "http://www.w3.org/Graphics/SVG/1.1/DTD/svg11.dtd">
<svg version="1.1" id="Calque_1" xmlns="http://www.w3.org/2000/svg" xmlns:xlink="http://www.w3.org/1999/xlink" x="0px" y="0px"
	 width="20px" height="32.36px" viewBox="560.129 1912.913 20 32.36" enable-background="new 560.129 1912.913 20 32.36"
	 xml:space="preserve">
<title>marker</title>
<g>
	<title>Layer 1</title>
	<path id="svg_2" fill="#FAAF4C" d="M570.155,1945.273c-0.742-3.632-2.047-6.663-3.629-9.469c-1.171-2.076-2.532-3.994-3.79-6.019
		c-0.42-0.672-0.782-1.381-1.185-2.077c-0.807-1.402-1.462-3.022-1.419-5.127c0.041-2.049,0.635-3.696,1.49-5.049
		c1.409-2.215,3.77-4.027,6.935-4.508c2.587-0.387,5.018,0.271,6.738,1.275c1.407,0.826,2.496,1.922,3.324,3.216
		c0.863,1.354,1.458,2.952,1.508,5.03c0.026,1.071-0.149,2.06-0.395,2.874c-0.25,0.832-0.649,1.523-1.006,2.271
		c-0.697,1.44-1.567,2.765-2.444,4.096C573.674,1935.731,571.229,1939.76,570.155,1945.273z"/>
	<path id="svg_4" fill="none" d="M570.272,1915.953c2.391,0,4.331,1.94,4.331,4.329c0,2.4-1.939,4.339-4.331,4.339
		c-2.395,0-4.331-1.938-4.331-4.339C565.941,1917.894,567.877,1915.953,570.272,1915.953z"/>
</g>
</svg>
