<?xml version="1.0" encoding="utf-8"?>
<!-- Generator: Adobe Illustrator 16.0.4, SVG Export Plug-In . SVG Version: 6.00 Build 0)  -->
<!DOCTYPE svg PUBLIC "-//W3C//DTD SVG 1.1//EN" "http://www.w3.org/Graphics/SVG/1.1/DTD/svg11.dtd">
<svg version="1.1" id="Calque_1" xmlns="http://www.w3.org/2000/svg" xmlns:xlink="http://www.w3.org/1999/xlink" x="0px" y="0px"
	 width="55.067px" height="39.966px" viewBox="0 0 55.067 39.966" enable-background="new 0 0 55.067 39.966" xml:space="preserve">
<path d="M24.686,4.967c0,2.231-1.809,4.04-4.04,4.04H8.062c-2.231,0-4.04-1.809-4.04-4.04l0,0c0-2.231,1.809-4.04,4.04-4.04h12.583
	C22.877,0.927,24.686,2.736,24.686,4.967L24.686,4.967z"/>
<path d="M55.067,19.984c0,3.066-1.809,5.555-4.041,5.555H38.444c-2.231,0-4.04-2.488-4.04-5.555l0,0c0-3.069,1.809-5.557,4.04-5.557
	h12.582C53.259,14.427,55.067,16.915,55.067,19.984L55.067,19.984z"/>
<path d="M24.636,34.934c0,2.231-1.809,4.04-4.04,4.04H8.013c-2.231,0-4.04-1.809-4.04-4.04l0,0c0-2.231,1.809-4.04,4.04-4.04h12.583
	C22.827,30.894,24.636,32.703,24.636,34.934L24.636,34.934z"/>
<ellipse cx="14.354" cy="0.994" rx="3.146" ry="0.993"/>
<ellipse cx="47.6" cy="14.427" rx="3.146" ry="0.993"/>
<ellipse cx="47.6" cy="25.54" rx="3.146" ry="0.993"/>
<ellipse cx="14.304" cy="38.973" rx="3.146" ry="0.994"/>
<path fill="#CDCCCC" d="M48.676,22.934c0,6.627-4.556,12-10.176,12H10.176c-5.62,0-10.176-5.373-10.176-12v-5.967
	c0-6.627,4.556-12,10.176-12H38.5c5.62,0,10.176,5.373,10.176,12V22.934z"/>
</svg>
