<?xml version="1.0" encoding="utf-8"?>
<!-- Generator: Adobe Illustrator 16.0.4, SVG Export Plug-In . SVG Version: 6.00 Build 0)  -->
<!DOCTYPE svg PUBLIC "-//W3C//DTD SVG 1.1//EN" "http://www.w3.org/Graphics/SVG/1.1/DTD/svg11.dtd">
<svg version="1.1" id="Capa_1" xmlns="http://www.w3.org/2000/svg" xmlns:xlink="http://www.w3.org/1999/xlink" x="0px" y="0px"
	 width="700px" height="500px" viewBox="0 0 700 500" enable-background="new 0 0 700 500" preserveAspectRatio="none" xml:space="preserve">
<g>
	<path fill="#259ED6" d="M80.018,73.121c-4.591,1.572-6.057,6.08-3.268,10.05c2.807,3.997,8.804,5.947,13.402,4.357
		c65.023-45.932,185.681-90.483,346.663-40.79C604.5,98.5,702.5,217.5,662.524,342.528
		c-36.446,113.991-202.183,157.354-360.939,113.067C100.5,399.5,18.506,278.549,60.375,146.901l5.483,27.611
		c2.784,3.99,8.785,5.941,13.402,4.357c2.303-0.773,3.831-2.313,4.419-4.122c0.588-1.808,0.25-3.931-1.151-5.931l-21.278-53.904
		l-48.167,31.33c-4.598,1.591-6.058,6.079-3.267,10.048c2.807,3.998,8.804,5.947,13.403,4.358l18.326-19.219
		C-3.297,280.924,92.5,415.5,297.917,473.793C461.8,520.3,634.81,468.935,678.454,348.661C727.5,213.5,621.5,83.5,441.424,28.479
		C276.5-21.5,145.564,17.917,80.018,73.121z"/>
</g>
</svg>
